<?xml version="1.0" encoding="UTF-8" standalone="no"?>
<!DOCTYPE svg PUBLIC "-//W3C//DTD SVG 1.1//EN" "http://www.w3.org/Graphics/SVG/1.1/DTD/svg11.dtd">
<svg width="100%" height="100%" viewBox="0 0 160 40" version="1.1" xmlns="http://www.w3.org/2000/svg" xmlns:xlink="http://www.w3.org/1999/xlink" xml:space="preserve" xmlns:serif="http://www.serif.com/" style="fill-rule:evenodd;clip-rule:evenodd;stroke-linejoin:round;stroke-miterlimit:2;">
    <g>
        <path d="M64.362,10.296C66.08,9.233 67.349,8.901 68.199,9.024L68.324,9.048C68.342,9.052 68.358,9.057 68.374,9.061C68.587,9.124 68.762,9.28 68.85,9.485C69.366,10.688 69.458,12.025 69.123,13.28L69.094,13.375L69.16,13.454C69.967,14.471 70.435,15.719 70.494,17.02L70.5,17.3C70.5,21.892 68.445,24.08 64.703,24.843L64.602,24.861L64.675,25.017L64.767,25.25C64.937,25.721 65.019,26.219 65.011,26.682L65,26.91L65,29.78C65,30.194 64.665,30.53 64.25,30.53C63.871,30.53 63.557,30.248 63.507,29.882L63.5,29.78L63.503,26.851C63.532,26.481 63.482,26.108 63.356,25.758C63.23,25.408 63.031,25.089 62.772,24.822C62.338,24.375 62.608,23.624 63.227,23.555C67.11,23.122 69,21.533 69,17.3C69,16.096 68.537,14.939 67.707,14.067C67.509,13.859 67.447,13.557 67.548,13.288C67.876,12.407 67.907,11.448 67.644,10.555L67.632,10.52L67.557,10.532C67.48,10.545 67.394,10.564 67.3,10.587L67.153,10.627C66.482,10.82 65.656,11.221 64.668,11.883C64.487,12.004 64.264,12.041 64.054,11.984C61.891,11.398 59.61,11.398 57.446,11.984C57.237,12.041 57.013,12.004 56.833,11.883C55.845,11.221 55.019,10.82 54.348,10.627C54.194,10.583 54.059,10.552 53.943,10.532L53.867,10.52L53.857,10.555C53.617,11.367 53.621,12.233 53.871,13.046L53.953,13.288C54.053,13.557 53.991,13.859 53.793,14.067C52.957,14.945 52.494,16.113 52.5,17.33C52.5,21.524 54.375,23.101 58.283,23.586C58.897,23.662 59.159,24.407 58.729,24.852C58.473,25.116 58.276,25.431 58.15,25.777C58.05,26.053 57.996,26.344 57.993,26.664L58,26.91L58,29.78C58,30.194 57.664,30.53 57.25,30.53C56.871,30.53 56.557,30.248 56.507,29.882L56.5,29.78L56.502,26.963C56.462,26.386 56.543,25.807 56.741,25.263C56.769,25.186 56.8,25.109 56.833,25.033L56.904,24.88L56.785,24.856C53.12,24.071 51.092,21.981 51.003,17.634L51,17.334C50.993,15.922 51.468,14.556 52.338,13.457L52.405,13.375L52.378,13.28C52.066,12.115 52.124,10.879 52.547,9.745L52.651,9.485C52.739,9.28 52.913,9.124 53.127,9.061L53.235,9.035C53.256,9.032 53.278,9.028 53.301,9.024C54.152,8.901 55.42,9.233 57.139,10.296L57.384,10.451L57.483,10.427C59.631,9.917 61.87,9.917 64.018,10.427L64.115,10.451L64.362,10.296Z" style="fill:white;fill-rule:nonzero;"/>
        <path d="M49.665,24.356C50.035,24.171 50.486,24.321 50.671,24.691C51.361,26.07 52.242,26.913 53.227,27.325C54.213,27.737 55.397,27.758 56.769,27.313C57.163,27.185 57.586,27.401 57.714,27.795C57.841,28.189 57.626,28.612 57.232,28.74C55.603,29.268 54.038,29.29 52.648,28.708C51.258,28.127 50.14,26.983 49.329,25.362C49.144,24.991 49.294,24.541 49.665,24.356Z" style="fill:white;"/>
        <path d="M93.4,10.55C93.542,10.361 93.764,10.25 94,10.25L108,10.25C108.414,10.25 108.75,10.586 108.75,11L108.75,22C108.75,22.223 108.651,22.434 108.48,22.576L102.48,27.576C102.345,27.689 102.175,27.75 102,27.75L99.311,27.75L95.53,31.53C95.316,31.745 94.993,31.809 94.713,31.693C94.433,31.577 94.25,31.303 94.25,31L94.25,27.75L91,27.75C90.586,27.75 90.25,27.414 90.25,27L90.25,15C90.25,14.838 90.303,14.68 90.4,14.55L93.4,10.55ZM94.375,11.75L91.75,15.25L91.75,26.25L95,26.25C95.414,26.25 95.75,26.586 95.75,27L95.75,29.189L98.47,26.47C98.61,26.329 98.801,26.25 99,26.25L101.728,26.25L107.25,21.649L107.25,11.75L94.375,11.75Z" style="fill:white;"/>
        <path d="M100.5,14.75C100.5,14.336 100.164,14 99.75,14C99.336,14 99,14.336 99,14.75L99,17.25C99,17.664 99.336,18 99.75,18C100.164,18 100.5,17.664 100.5,17.25L100.5,14.75Z" style="fill:white;fill-rule:nonzero;"/>
        <path d="M104.5,14.75C104.5,14.336 104.164,14 103.75,14C103.336,14 103,14.336 103,14.75L103,17.25C103,17.664 103.336,18 103.75,18C104.164,18 104.5,17.664 104.5,17.25L104.5,14.75Z" style="fill:white;fill-rule:nonzero;"/>
        <path d="M95,11.25C95.414,11.25 95.75,11.586 95.75,12L95.75,21.25L108,21.25C108.414,21.25 108.75,21.586 108.75,22C108.75,22.414 108.414,22.75 108,22.75L95,22.75C94.586,22.75 94.25,22.414 94.25,22L94.25,12C94.25,11.586 94.586,11.25 95,11.25Z" style="fill:white;"/>
        <g transform="matrix(1,0,0,1,128,8)">
            <path d="M4.07,4.742C4.35,4.437 4.824,4.416 5.13,4.695C5.435,4.975 5.456,5.45 5.176,5.755C3.669,7.4 2.75,9.593 2.75,12C2.75,17.109 6.891,21.25 12,21.25C14.346,21.25 16.488,20.377 18.118,18.938C18.429,18.664 18.903,18.693 19.177,19.004C19.451,19.314 19.421,19.788 19.111,20.062C17.216,21.735 14.726,22.75 12,22.75C6.063,22.75 1.25,17.937 1.25,12C1.25,9.202 2.319,6.654 4.07,4.742ZM21.999,15.953C21.847,16.338 21.411,16.527 21.026,16.375C20.641,16.223 20.452,15.786 20.605,15.402C21.021,14.349 21.25,13.201 21.25,12C21.25,6.891 17.109,2.75 12,2.75C10.861,2.75 9.77,2.956 8.763,3.332C8.375,3.477 7.942,3.28 7.797,2.892C7.653,2.504 7.85,2.072 8.237,1.927C9.409,1.489 10.676,1.25 12,1.25C17.937,1.25 22.75,6.063 22.75,12C22.75,13.396 22.484,14.73 21.999,15.953ZM11.317,7.977L15.693,10.894L15.941,11.108L16.127,11.373L16.244,11.674L16.285,12L16.244,12.326L16.127,12.627L15.941,12.892L15.693,13.106L11.317,16.023L10.993,16.181L10.644,16.245L10.291,16.215L9.952,16.089L9.66,15.877L9.439,15.6L9.299,15.274L9.25,14.917L9.25,9.083L9.299,8.726L9.439,8.4L9.66,8.123L9.952,7.911L10.291,7.785L10.644,7.755L10.993,7.819L11.317,7.977ZM10.75,14.599L14.648,12L10.75,9.401L10.75,14.599Z" style="fill:white;"/>
        </g>
        <path d="M16.737,26.156C16.951,26.886 17.448,27.236 18.063,27.408C18.67,27.578 19.366,27.606 20.047,27.631C21.784,27.687 23.33,27.193 23.33,27.193C23.552,27.121 23.795,27.158 23.987,27.291C24.179,27.424 24.298,27.64 24.308,27.873L24.386,29.846C24.399,30.132 24.248,30.4 23.998,30.538C23.998,30.538 22.578,31.334 20.041,31.477C18.692,31.556 17.015,31.445 15.063,30.918C12.198,30.143 10.806,27.918 10.174,25.095C9.595,22.509 9.663,19.41 9.663,16.645C9.663,11.568 12.975,10.093 13.024,10.072C14.514,9.376 17.247,9.002 19.988,9C22.728,8.998 25.469,9.368 26.973,10.072C27.025,10.094 30.332,11.57 30.333,16.642C30.334,16.791 30.358,19.895 29.907,22.237C29.766,22.968 29.265,23.745 28.48,24.417C27.428,25.317 25.861,26.049 24.159,26.256C23.29,26.362 20.332,26.842 16.737,26.156ZM28.833,16.645C28.833,12.647 26.349,11.436 26.349,11.436C26.347,11.435 26.345,11.434 26.342,11.433C24.978,10.793 22.48,10.498 19.989,10.5C17.497,10.502 15.006,10.799 13.654,11.433C13.652,11.434 13.65,11.435 13.648,11.436C13.648,11.436 11.163,12.647 11.163,16.645C11.163,19.302 11.081,22.282 11.637,24.767C12.141,27.016 13.172,28.853 15.454,29.47C17.219,29.946 18.735,30.051 19.955,29.98C21.35,29.901 22.346,29.599 22.865,29.401L22.851,28.858C22.142,29.007 21.103,29.166 19.997,29.13L19.995,29.13C17.774,29.051 15.531,28.731 15.166,25.946C15.134,25.697 15.118,25.447 15.119,25.195C15.12,24.965 15.226,24.748 15.408,24.606C15.59,24.464 15.827,24.414 16.05,24.47C19.848,25.417 23,25.195 23.977,25.011C25.365,24.598 26.647,24.011 27.505,23.277C27.992,22.86 28.346,22.407 28.434,21.953C28.872,19.681 28.833,16.653 28.833,16.653L28.833,16.645Z" style="fill:white;"/>
        <path d="M15.262,17.381C15.262,16.26 16.17,15.352 17.29,15.352C18.411,15.352 19.319,16.26 19.319,17.381L19.319,19.07C19.319,19.444 19.621,19.746 19.995,19.746C20.368,19.746 20.671,19.444 20.671,19.07L20.671,17.381C20.671,16.26 21.579,15.352 22.699,15.352C23.819,15.352 24.727,16.26 24.727,17.381L24.727,21.324C24.727,21.697 25.03,22 25.403,22C25.777,22 26.079,21.697 26.079,21.324L26.079,17.381C26.079,15.513 24.566,14 22.699,14C21.593,14 20.612,14.531 19.995,15.351C19.378,14.531 18.396,14 17.29,14C15.423,14 13.91,15.513 13.91,17.381L13.91,21.324C13.91,21.697 14.213,22 14.586,22C14.96,22 15.262,21.697 15.262,21.324L15.262,17.381Z" style="fill:white;fill-rule:nonzero;"/>
    </g>
</svg>
