<svg width="160" height="40" viewBox="0 0 160 40" fill="none" xmlns="http://www.w3.org/2000/svg">
<g clip-path="url(#clip0_702_16)">
<path d="M64.3617 10.2959C66.08 9.23265 67.3485 8.90098 68.1993 9.02448L68.3236 9.04781C68.3416 9.0521 68.3583 9.05654 68.3735 9.06106C68.5873 9.12447 68.7618 9.2797 68.8496 9.48465C69.3655 10.6883 69.4583 12.0254 69.1229 13.2802L69.0942 13.3753L69.1597 13.4542C69.9665 14.4712 70.4348 15.7188 70.4939 17.0204L70.5002 17.3001C70.5002 21.8923 68.445 24.0797 64.7027 24.8426L64.6022 24.8613L64.675 25.017L64.7669 25.2497C64.9367 25.7213 65.0188 26.2192 65.0114 26.682L65.0002 26.9101V29.7801C65.0002 30.1943 64.6645 30.5301 64.2502 30.5301C63.8706 30.5301 63.5568 30.248 63.5071 29.8819L63.5002 29.7801L63.5026 26.8513C63.5317 26.4806 63.4816 26.1079 63.3556 25.7581C63.2296 25.4082 63.0305 25.0891 62.7717 24.8221C62.3379 24.3746 62.6076 23.6238 63.2272 23.5547C67.1104 23.1219 69.0002 21.5328 69.0002 17.3003C69 16.0965 68.537 14.939 67.707 14.0672C67.5091 13.8594 67.4472 13.5568 67.5476 13.2879C67.8762 12.4072 67.9071 11.448 67.6437 10.5551L67.6322 10.5203L67.5574 10.5321C67.4801 10.5454 67.3945 10.5635 67.3004 10.5872L67.1527 10.6272C66.482 10.8202 65.6558 11.2209 64.6678 11.8831C64.4875 12.004 64.2636 12.0408 64.0541 11.984C61.8905 11.3976 59.61 11.3976 57.4464 11.984C57.2369 12.0408 57.013 12.004 56.8326 11.8831C55.8447 11.2209 55.0185 10.8202 54.3478 10.6272C54.1936 10.5828 54.059 10.5521 53.9431 10.5321L53.8672 10.5203L53.8567 10.5551C53.6173 11.3669 53.621 12.2333 53.8706 13.0458L53.9529 13.2879C54.0533 13.5568 53.9913 13.8594 53.7934 14.0673C52.9573 14.9455 52.4938 16.1135 52.5002 17.3301C52.5002 21.5239 54.3752 23.1005 58.2827 23.5858C58.8966 23.6621 59.1594 24.407 58.7292 24.8516C58.4734 25.116 58.2761 25.4312 58.1502 25.7768C58.0495 26.0532 57.9962 26.3442 57.9931 26.6643L58.0002 26.9101V29.7801C58.0002 30.1943 57.6645 30.5301 57.2502 30.5301C56.8705 30.5301 56.5567 30.248 56.5071 29.8819L56.5002 29.7801L56.5021 26.9627C56.4615 26.3858 56.5429 25.8067 56.7409 25.2632C56.7691 25.1856 56.7997 25.109 56.8325 25.0334L56.9042 24.8803L56.7851 24.8559C53.1195 24.0707 51.0915 21.9814 51.0032 17.634L51.0001 17.334C50.9927 15.9219 51.4681 14.5556 52.3382 13.4574L52.4052 13.3753L52.3776 13.2802C52.0661 12.115 52.1239 10.8789 52.5468 9.74453L52.6509 9.48463C52.7387 9.2797 52.9132 9.12447 53.127 9.06106L53.2349 9.03549C53.2557 9.03158 53.2778 9.02789 53.3012 9.02448C54.152 8.90098 55.4205 9.23265 57.1388 10.2959L57.3842 10.4513L57.4825 10.4273C59.631 9.91653 61.8695 9.91653 64.018 10.4273L64.1152 10.4513L64.3617 10.2959Z" fill="white"/>
<path fill-rule="evenodd" clip-rule="evenodd" d="M49.6648 24.3557C50.0353 24.1705 50.4858 24.3206 50.671 24.6911C51.3605 26.0701 52.2421 26.9126 53.2271 27.3245C54.2125 27.7367 55.3973 27.758 56.7688 27.3131C57.1628 27.1853 57.5858 27.4011 57.7136 27.7951C57.8414 28.1891 57.6256 28.6121 57.2316 28.7399C55.6031 29.2682 54.0379 29.2896 52.6483 28.7084C51.2582 28.127 50.1399 26.9829 49.3294 25.3619C49.1441 24.9914 49.2943 24.5409 49.6648 24.3557Z" fill="white"/>
<path fill-rule="evenodd" clip-rule="evenodd" d="M93.4 10.55C93.5416 10.3611 93.7639 10.25 94 10.25H108C108.414 10.25 108.75 10.5858 108.75 11V22C108.75 22.2226 108.651 22.4337 108.48 22.5762L102.48 27.5762C102.345 27.6885 102.175 27.75 102 27.75H99.3107L95.5303 31.5303C95.3158 31.7448 94.9932 31.809 94.713 31.6929C94.4327 31.5768 94.25 31.3033 94.25 31V27.75H91C90.5858 27.75 90.25 27.4142 90.25 27V15C90.25 14.8377 90.3026 14.6798 90.4 14.55L93.4 10.55ZM94.375 11.75L91.75 15.25V26.25H95C95.4142 26.25 95.75 26.5858 95.75 27V29.1893L98.4697 26.4697C98.6103 26.329 98.8011 26.25 99 26.25H101.728L107.25 21.6487V11.75H94.375Z" fill="white"/>
<path d="M100.5 14.75C100.5 14.3358 100.164 14 99.75 14C99.3358 14 99 14.3358 99 14.75V17.25C99 17.6642 99.3358 18 99.75 18C100.164 18 100.5 17.6642 100.5 17.25V14.75Z" fill="white"/>
<path d="M104.5 14.75C104.5 14.3358 104.164 14 103.75 14C103.336 14 103 14.3358 103 14.75V17.25C103 17.6642 103.336 18 103.75 18C104.164 18 104.5 17.6642 104.5 17.25V14.75Z" fill="white"/>
<path fill-rule="evenodd" clip-rule="evenodd" d="M95 11.25C95.4142 11.25 95.75 11.5858 95.75 12V21.25H108C108.414 21.25 108.75 21.5858 108.75 22C108.75 22.4142 108.414 22.75 108 22.75H95C94.5858 22.75 94.25 22.4142 94.25 22V12C94.25 11.5858 94.5858 11.25 95 11.25Z" fill="white"/>
<path fill-rule="evenodd" clip-rule="evenodd" d="M138.872 17.3488C138.64 17.2162 138.355 17.2171 138.124 17.3513C137.892 17.4855 137.75 17.7326 137.75 18V22C137.75 22.2674 137.892 22.5145 138.124 22.6487C138.355 22.7829 138.64 22.7838 138.872 22.6512L142.372 20.6512C142.606 20.5177 142.75 20.2691 142.75 20C142.75 19.7309 142.606 19.4823 142.372 19.3488L138.872 17.3488Z" fill="white"/>
<path d="M130 20.707V19.2919C130 16.3966 130 14.9489 130.905 14.0174C131.811 13.086 133.237 13.0456 136.088 12.965C137.439 12.9268 138.819 12.8994 140 12.8994C141.181 12.8994 142.561 12.9268 143.912 12.965C146.763 13.0456 148.189 13.086 149.094 14.0174C150 14.9489 150 16.3966 150 19.2919V20.707C150 23.6023 150 25.05 149.094 25.9814C148.189 26.9129 146.764 26.9532 143.912 27.0339C142.561 27.0721 141.181 27.0995 140 27.0995C138.819 27.0995 137.439 27.0721 136.088 27.0339C133.237 26.9532 131.811 26.9129 130.905 25.9814C130 25.05 130 23.6023 130 20.707Z" stroke="white" stroke-width="1.5"/>
<path d="M14.1188 16.2355C14.1188 15.0659 15.0669 14.1178 16.2365 14.1178C17.406 14.1178 18.3542 15.0659 18.3542 16.2355V20.0003C18.3542 20.3901 18.6702 20.7061 19.06 20.7061C19.4499 20.7061 19.7659 20.3901 19.7659 20.0003V16.2355C19.7659 15.0659 20.714 14.1178 21.8836 14.1178C23.0532 14.1178 24.0013 15.0659 24.0013 16.2355V22.3532C24.0013 22.7431 24.3173 23.0591 24.7072 23.0591C25.097 23.0591 25.4131 22.7431 25.4131 22.3532V16.2355C25.4131 14.2862 23.8329 12.7061 21.8836 12.7061C20.7291 12.7061 19.704 13.2604 19.06 14.1175C18.4161 13.2604 17.391 12.7061 16.2365 12.7061C14.2872 12.7061 12.707 14.2862 12.707 16.2355V22.3532C12.707 22.7431 13.0231 23.0591 13.4129 23.0591C13.8028 23.0591 14.1188 22.7431 14.1188 22.3532V16.2355Z" fill="white"/>
<path fill-rule="evenodd" clip-rule="evenodd" d="M15.667 26.4774C15.8919 27.4195 16.5197 27.8496 17.299 28.0567C17.9974 28.2431 18.7965 28.276 19.5786 28.3024C21.5711 28.3635 23.3443 27.8233 23.3443 27.8233C23.5523 27.7602 23.7782 27.796 23.957 27.9212C24.1349 28.0473 24.245 28.2478 24.2553 28.4652L24.3438 30.325C24.356 30.5998 24.2092 30.8567 23.9655 30.9847C23.9655 30.9847 22.3871 31.8243 19.5692 31.9758C18.0604 32.0596 16.1847 31.941 14.003 31.38C10.8142 30.5584 9.28105 28.1894 8.57704 25.1964C7.9248 22.4199 8.00292 19.0919 8.00292 16.1225C8.00292 10.737 11.6679 9.16331 11.7263 9.13884C13.3931 8.39625 16.452 8.00189 19.5183 8.00001C22.5847 7.99812 25.6521 8.38872 27.3349 9.13884C27.398 9.1652 31.0564 10.7398 31.0573 16.1196C31.0592 16.2721 31.0865 19.8712 30.5773 22.387C30.422 23.1559 29.8676 23.9729 29.0017 24.6788C27.8347 25.6303 26.0944 26.404 24.2064 26.6233C23.2144 26.739 19.796 27.2689 15.667 26.4774ZM29.6455 16.1225C29.6455 11.7497 26.7702 10.433 26.7702 10.433C26.7683 10.432 26.7664 10.4311 26.7645 10.4302C25.2078 9.73461 22.3598 9.4099 19.5193 9.41179C16.6778 9.41367 13.8383 9.74214 12.2966 10.4302C12.2947 10.4311 12.2928 10.432 12.291 10.433C12.291 10.433 9.4147 11.7497 9.4147 16.1225C9.4147 18.9855 9.32246 22.1959 9.95117 24.8736C10.53 27.3358 11.7319 29.3367 14.355 30.0125C16.3691 30.5311 18.1 30.644 19.492 30.5668C21.1645 30.4765 22.3363 30.1198 22.9104 29.9033L22.8859 29.3894C22.0972 29.557 20.8595 29.7546 19.5343 29.7132H19.5325C17.092 29.6313 14.6157 29.2972 14.2157 26.3814C14.179 26.1169 14.1611 25.8496 14.162 25.5823C14.163 25.3668 14.2618 25.1635 14.4312 25.0298C14.6006 24.8971 14.8218 24.8482 15.0308 24.8981C19.348 25.924 23.0299 25.3395 24.0436 25.2209C25.6426 25.0355 27.1213 24.3908 28.1095 23.5851C28.6799 23.1192 29.0912 22.6138 29.1937 22.1075C29.6888 19.6576 29.6455 16.13 29.6455 16.13C29.6455 16.1281 29.6455 16.1253 29.6455 16.1225Z" fill="white"/>
</g>
<defs>
<clipPath id="clip0_702_16">
<rect width="160" height="40" fill="white"/>
</clipPath>
</defs>
</svg>
