<?xml version="1.0" encoding="UTF-8" standalone="no"?>
<svg width="27px" height="18px" viewBox="0 0 27 18" version="1.1" xmlns="http://www.w3.org/2000/svg" xmlns:xlink="http://www.w3.org/1999/xlink" xmlns:sketch="http://www.bohemiancoding.com/sketch/ns">
    <!-- Generator: Sketch 3.2.2 (9983) - http://www.bohemiancoding.com/sketch -->
    <title>ico-magic</title>
    <desc>Created with Sketch.</desc>
    <defs></defs>
    <g id="Page-1" stroke="none" stroke-width="1" fill="none" fill-rule="evenodd" sketch:type="MSPage">
        <g id="ico-magic" sketch:type="MSLayerGroup" fill-opacity="0.900000036" fill="#4D5258">
            <path d="M11.6152328,11.014391 C12.2073171,10.8318973 12.8411022,10.7330233 13.5,10.7330233 C14.1588978,10.7330233 14.7926829,10.8318973 15.3847672,11.014391 L15.3847672,11.014391 C16.1057519,8.75185312 18.3796281,7.09953488 21.0731707,7.09953488 C24.3464682,7.09953488 27,9.53968712 27,12.5497674 C27,15.5598478 24.3464682,18 21.0731707,18 C17.7998733,18 15.1463415,15.5598478 15.1463415,12.5497674 C15.1463415,12.5493967 15.1463415,12.549026 15.1463416,12.5486552 C14.639537,12.3543028 14.0833982,12.2469767 13.5,12.2469767 C12.9166018,12.2469767 12.360463,12.3543028 11.8536584,12.5486552 C11.8536585,12.549026 11.8536585,12.5493967 11.8536585,12.5497674 C11.8536585,15.5598478 9.20012669,18 5.92682927,18 C2.65353185,18 0,15.5598478 0,12.5497674 C0,9.53968712 2.65353185,7.09953488 5.92682927,7.09953488 C8.62037191,7.09953488 10.8942481,8.75185312 11.6152328,11.014391 L11.6152328,11.014391 Z M17.4512195,12.5497674 C17.4512195,10.7102739 19.0728223,9.21906977 21.0731707,9.21906977 C23.0735192,9.21906977 24.695122,10.7102739 24.695122,12.5497674 C24.695122,14.389261 23.0735192,15.8804651 21.0731707,15.8804651 C19.0728223,15.8804651 17.4512195,14.389261 17.4512195,12.5497674 Z M2.30487805,12.5497674 C2.30487805,10.7102739 3.92648085,9.21906977 5.92682927,9.21906977 C7.92717769,9.21906977 9.54878049,10.7102739 9.54878049,12.5497674 C9.54878049,14.389261 7.92717769,15.8804651 5.92682927,15.8804651 C3.92648085,15.8804651 2.30487805,14.389261 2.30487805,12.5497674 Z" id="Gafas-2" sketch:type="MSShapeGroup"></path>
            <path d="M9.11349154,4.52142388 C8.96086636,4.97571906 9.41372843,5.39938602 9.86185139,5.22153848 L11.5619945,4.54552274 L10.8142141,6.77132215 C10.7152049,7.06602694 10.8757304,7.38456752 11.1727578,7.48280245 C11.4697852,7.58103738 11.7908363,7.42176709 11.8898454,7.1270623 L13.0236604,3.7522149 C13.1762856,3.29791972 12.7234236,2.87425276 12.2753006,3.0521003 L10.5761812,3.72506886 L11.3229379,1.50231663 C11.4219471,1.20761184 11.2614215,0.889071262 10.9643941,0.790836332 C10.6673667,0.692601401 10.3463157,0.851871692 10.2473066,1.14657648 L9.11349154,4.52142388 Z" id="Rayo-2" sketch:type="MSShapeGroup"></path>
        </g>
    </g>
</svg>