<?xml version="1.0" encoding="UTF-8" standalone="no"?>
<svg width="103px" height="46px" viewBox="0 0 103 46" version="1.1" xmlns="http://www.w3.org/2000/svg" xmlns:xlink="http://www.w3.org/1999/xlink" xmlns:sketch="http://www.bohemiancoding.com/sketch/ns">
    <!-- Generator: Sketch 3.2.2 (9983) - http://www.bohemiancoding.com/sketch -->
    <title>logo-promsite</title>
    <desc>Created with Sketch.</desc>
    <defs></defs>
    <g id="Page-1" stroke="none" stroke-width="1" fill="none" fill-rule="evenodd" sketch:type="MSPage">
        <g id="logo-promsite" sketch:type="MSLayerGroup" transform="translate(0.000000, 1.000000)">
            <path d="M75.640625,-0.116772152 L77.4579808,-0.116772152 L77.4579808,2.39525316 L75.640625,2.39525316 L75.640625,-0.116772152 Z" id="Fill-1" fill="#FFCC00" sketch:type="MSShapeGroup"></path>
            <path d="M82.1350721,1.21329114 L80.471226,1.21329114 L80.471226,5.27753165 L78.3938942,5.27753165 L78.3938942,6.65031646 L80.471226,6.65031646 L80.471226,17.2879747 C80.471226,18.364557 80.6792067,19.0822785 81.0951683,19.5607595 C81.5111298,19.9794304 82.1870673,20.2158228 83.0189904,20.2158228 C83.432476,20.2158228 84.0044231,20.0990506 84.6283654,19.9794304 C84.8363462,19.9196203 84.9403365,19.9196203 84.9923317,19.8598101 L84.9923317,18.4841772 C84.4723798,18.6037975 84.0044231,18.6636076 83.5884615,18.6636076 C82.9669952,18.6636076 82.5510337,18.5439873 82.3950481,18.2449367 C82.2390625,18.0056962 82.1350721,17.4674051 82.1350721,16.6329114 L82.1350721,6.65031646 L84.8363462,6.65031646 L84.8363462,5.27753165 L82.1350721,5.27753165 L82.1350721,1.21329114" id="Fill-2" fill="#FFCC00" sketch:type="MSShapeGroup"></path>
            <path d="M73.9272596,15.975 C73.9272596,15.2572785 73.771274,14.6591772 73.5112981,14.1208861 C73.1993269,13.6424051 72.8353606,13.2835443 72.3154087,12.9275316 C71.8474519,12.628481 71.3275,12.3892405 70.810024,12.2098101 C70.2900721,12.0901899 69.5621394,11.8509494 68.7302163,11.671519 C68.0047596,11.4920886 67.4328125,11.3724684 67.016851,11.193038 C66.6008894,11.0734177 66.1849279,10.9537975 65.8209615,10.7743671 C65.4594712,10.5351266 65.1994952,10.2958861 64.9915144,9.99683544 C64.7835337,9.69778481 64.6795433,9.34177215 64.6795433,8.86329114 C64.6795433,8.14556962 64.9395192,7.48765823 65.5089904,7.06898734 C66.0809375,6.59050633 66.8608654,6.41107595 67.9527644,6.41107595 C69.0421875,6.41107595 69.9261058,6.65031646 70.6020433,7.12879747 C71.2779808,7.60727848 71.6914663,8.38481013 71.8474519,9.46139241 L73.5632933,9.46139241 C73.3553125,7.84651899 72.7833654,6.71012658 71.7954567,5.93544304 C70.8620192,5.21772152 69.5621394,4.85886076 67.9527644,4.85886076 C66.3929087,4.85886076 65.1475,5.27753165 64.2115865,5.99525316 C63.5876442,6.59050633 63.1716827,7.24841772 62.9637019,8.08575949 C62.9117067,8.38481013 62.8597115,8.68386076 62.8597115,9.04272152 C62.8597115,9.40158228 62.9117067,9.69778481 62.9637019,10.0566456 C63.0676923,10.3556962 63.1716827,10.5949367 63.2756731,10.8341772 C63.5876442,11.3724684 63.9516106,11.7313291 64.4715625,12.0303797 C64.9395192,12.3294304 65.407476,12.5686709 65.9769471,12.6882911 C66.496899,12.8677215 67.2248317,13.0471519 68.0567548,13.1667722 C68.7302163,13.3433544 69.3021635,13.4629747 69.718125,13.5825949 C70.1860817,13.7022152 70.5500481,13.8816456 70.9660096,14.0610759 C71.3275,14.2405063 71.6394712,14.4797468 71.8474519,14.7787975 C72.0554327,15.1376582 72.1594231,15.5563291 72.1594231,15.975 C72.1594231,16.7525316 71.8474519,17.4075949 71.2259856,17.8860759 C70.6020433,18.4243671 69.718125,18.6636076 68.5742308,18.6636076 L67.6927885,18.6636076 C67.2768269,18.6037975 66.9128606,18.4841772 66.5488942,18.364557 L66.5488942,20.0990506 C66.9128606,20.1560127 67.3288221,20.1560127 67.6927885,20.2158228 L68.0567548,20.2158228 C69.8221154,20.2158228 71.2779808,19.8598101 72.3154087,19.0822785 C73.4073077,18.364557 73.9272596,17.2879747 73.9272596,15.975" id="Fill-3" fill="#FFCC00" sketch:type="MSShapeGroup"></path>
            <path d="M75.6926202,5.56234177 L77.4084615,5.56234177 L77.4084615,20.0848101 L75.6926202,20.0848101 L75.6926202,5.56234177 Z" id="Fill-4" fill="#FFCC00" sketch:type="MSShapeGroup"></path>
            <path d="M88.4215385,7.84651899 C89.2509856,6.88955696 90.3948798,6.41107595 91.79875,6.41107595 C93.2521394,6.41107595 94.3440385,6.88955696 95.1734856,7.84651899 C95.9534135,8.80348101 96.369375,10.0566456 96.369375,11.5518987 L86.9136779,11.5518987 C87.0696635,10.0566456 87.5896154,8.80348101 88.4215385,7.84651899 L88.4215385,7.84651899 Z M91.79875,4.85886076 C90.7588462,4.85886076 89.8749279,5.03829114 89.0454808,5.45696203 C88.1615625,5.81582278 87.485625,6.41107595 86.9136779,7.12879747 C86.3417308,7.84651899 85.87625,8.68386076 85.5642788,9.58101266 C85.2523077,10.5351266 85.0963221,11.5518987 85.0963221,12.628481 C85.0963221,13.7022152 85.2523077,14.7189873 85.5122837,15.6161392 C85.7722596,16.5731013 86.1882212,17.3477848 86.7056971,18.0655063 C87.2776442,18.7234177 87.9535817,19.2617089 88.8375,19.6205696 C89.6149519,19.9794304 90.5508654,20.1560127 91.5907692,20.2158228 L91.5907692,18.6636076 C90.1349038,18.6636076 88.9934856,18.1253165 88.1615625,17.0487342 C87.3296394,15.975 86.9136779,14.5993671 86.9136779,12.9275316 L98.1372115,12.9275316 C98.1372115,10.3556962 97.5652644,8.325 96.4733654,6.94936709 C95.3319471,5.57658228 93.7720913,4.85886076 91.79875,4.85886076 L91.79875,4.85886076 Z" id="Fill-5" fill="#FFCC00" sketch:type="MSShapeGroup"></path>
            <path d="M37.5083413,8.14556962 C37.8723077,8.74367089 38.1842788,9.34177215 38.3922596,10.1164557 C38.5457692,10.8341772 38.6497596,11.6117089 38.6497596,12.5686709 C38.6497596,13.3433544 38.5457692,14.1208861 38.3922596,14.8386076 C38.1842788,15.5563291 37.8723077,16.2142405 37.4563462,16.8094937 C37.0923798,17.3477848 36.5724279,17.8262658 35.9484856,18.1851266 C35.3270192,18.4841772 34.5990865,18.6636076 33.7151683,18.6636076 C32.1577885,18.6636076 30.9099038,18.1253165 30.0779808,16.9889241 C29.1965385,15.8553797 28.7805769,14.3601266 28.7805769,12.5686709 C28.7805769,11.7313291 28.8845673,10.9537975 29.0405529,10.2360759 C29.2485337,9.46139241 29.5605048,8.80348101 29.9739904,8.26518987 C30.3379567,7.66708861 30.8579087,7.24841772 31.5338462,6.88955696 C32.1577885,6.59050633 32.8832452,6.41107595 33.7151683,6.41107595 C34.5990865,6.41107595 35.3270192,6.5306962 35.9484856,6.82974684 C36.5724279,7.18860759 37.0923798,7.60727848 37.5083413,8.14556962 L37.5083413,8.14556962 Z M38.5977644,18.1253165 C39.845649,16.6927215 40.4175962,14.8386076 40.4175962,12.5686709 C40.4175962,10.2958861 39.845649,8.44462025 38.7017548,7.00917722 C37.5603365,5.57658228 35.8964904,4.85886076 33.7151683,4.85886076 C31.5858413,4.85886076 29.9219952,5.57658228 28.7285817,7.00917722 C27.5846875,8.50443038 27.0127404,10.2958861 27.0127404,12.5686709 C27.0127404,14.9582278 27.6366827,16.8693038 28.8845673,18.1851266 C30.1819712,19.5009494 31.7938221,20.1560127 33.7151683,20.2158228 C35.7405048,20.2158228 37.404351,19.5009494 38.5977644,18.1253165 L38.5977644,18.1253165 Z" id="Fill-6" fill="#FFFFFF" sketch:type="MSShapeGroup"></path>
            <path d="M50.4947596,5.86139241 C49.8732933,5.38291139 48.8853846,5.14367089 47.6894952,5.14367089 C46.7560577,5.14367089 45.8721394,5.38291139 45.0922115,5.80158228 C44.2627644,6.28006329 43.6388221,6.93512658 43.2228606,7.71265823 L43.1708654,7.71265823 L43.1708654,5.56234177 L41.5094952,5.56234177 L41.5094952,20.0848101 L43.1708654,20.0848101 L43.1708654,12.2553797 C43.1708654,11.5376582 43.2748558,10.8199367 43.3788462,10.1050633 C43.5348317,9.32753165 43.7948077,8.78924051 44.1067788,8.31075949 C44.5202644,7.77246835 44.9882212,7.35379747 45.6121635,7.11455696 C46.1321154,6.81550633 46.7560577,6.69588608 47.377524,6.69588608 C48.5214183,6.69588608 49.3533413,6.93512658 49.8212981,7.53322785 C50.2892548,8.07151899 50.4947596,8.96867089 50.4947596,10.0452532 L50.4947596,20.0848101 L52.1586058,20.0848101 L52.1586058,12.2553797 C52.1586058,11.5376582 52.2625962,10.8199367 52.4185817,10.1050633 C52.5225721,9.32753165 52.7825481,8.78924051 53.1465144,8.31075949 C53.56,7.77246835 54.0279567,7.35379747 54.5999038,7.11455696 C55.171851,6.81550633 55.7437981,6.69588608 56.4172596,6.69588608 C57.5611538,6.69588608 58.3410817,6.93512658 58.8090385,7.53322785 C59.2745192,8.07151899 59.5344952,8.96867089 59.5344952,10.0452532 L59.5344952,20.0848101 L61.1983413,20.0848101 L61.1983413,10.8797468 C61.1983413,10.0452532 61.1463462,9.32753165 61.0423558,8.66962025 C60.8863702,8.01170886 60.6783894,7.41360759 60.3664183,6.87531646 C60.0544471,6.33987342 59.5864904,5.92120253 59.0170192,5.6221519 C58.3930769,5.32310127 57.6651442,5.14367089 56.6772356,5.14367089 C55.6398077,5.14367089 54.7038942,5.38291139 53.8719712,5.86139241 C53.042524,6.33987342 52.4185817,7.05474684 51.950625,7.95189873 C51.5866587,7.05474684 51.1187019,6.33987342 50.4947596,5.86139241" id="Fill-7" fill="#FFFFFF" sketch:type="MSShapeGroup"></path>
            <path d="M7.84384615,14.9582278 C7.58387019,14.1806962 7.47987981,13.4031646 7.47987981,12.628481 C7.47987981,10.7743671 7.94783654,9.28196203 8.77728365,8.14556962 C9.66120192,6.94936709 10.8050962,6.41107595 12.362476,6.41107595 C13.8183413,6.41107595 15.0117548,6.88955696 15.9476683,7.90632911 C16.8835817,8.92310127 17.2995433,10.2958861 17.3515385,12.0901899 C17.3515385,14.1208861 16.9355769,15.6759494 16.1036538,16.8693038 C15.2197356,18.0655063 14.0263221,18.6636076 12.362476,18.6636076 C11.6370192,18.6636076 10.9610817,18.5439873 10.3371394,18.1851266 C9.76519231,17.8860759 9.24524038,17.4674051 8.77728365,16.8693038 C8.36379808,16.3338608 8.05182692,15.6759494 7.84384615,14.9582278 L7.84384615,14.9582278 Z M7.47987981,5.27753165 L5.81603365,5.27753165 L5.81603365,25.5360759 L7.47987981,25.5360759 L7.47987981,17.4674051 C7.99983173,18.364557 8.72528846,19.0224684 9.71319712,19.5009494 C10.6491106,19.9794304 11.585024,20.2158228 12.6224519,20.2158228 C13.7663462,20.2158228 14.6997837,19.9794304 15.5317067,19.6205696 C16.3116346,19.2018987 16.9875721,18.6636076 17.5595192,17.9458861 C18.0769952,17.1683544 18.4929567,16.3936709 18.7529327,15.496519 C19.0129087,14.539557 19.116899,13.5227848 19.116899,12.5088608 C19.116899,11.3724684 19.0129087,10.3556962 18.7529327,9.46139241 C18.4929567,8.50443038 18.1289904,7.72689873 17.5595192,7.06898734 C17.0395673,6.35411392 16.3636298,5.81582278 15.5317067,5.45696203 C14.6997837,5.03829114 13.714351,4.85886076 12.5704567,4.85886076 C11.585024,4.85886076 10.6491106,5.15791139 9.71319712,5.63639241 C8.72528846,6.17468354 7.99983173,6.88955696 7.531875,7.78670886 L7.47987981,7.78670886 L7.47987981,5.27753165 L7.47987981,5.27753165 Z" id="Fill-8" fill="#FFFFFF" sketch:type="MSShapeGroup"></path>
            <path d="M27.4806971,6.99493671 L27.4806971,5.14367089 C26.2352885,5.14367089 25.2473798,5.38291139 24.5194471,5.86139241 C23.7915144,6.33987342 23.1700481,7.11455696 22.7540865,8.25094937 L22.7020913,8.25094937 L22.7020913,5.56234177 L20.98625,5.56234177 L20.98625,20.0848101 L22.7020913,20.0848101 L22.7020913,12.9731013 C22.7020913,12.0759494 22.7540865,11.2984177 22.9100721,10.5806962 C23.0660577,9.86582278 23.3260337,9.26772152 23.687524,8.72943038 C24.0514904,8.19113924 24.5194471,7.77246835 25.1433894,7.41360759 C25.7673317,7.11455696 26.5447837,6.99493671 27.4806971,6.99493671" id="Fill-9" fill="#FFFFFF" sketch:type="MSShapeGroup"></path>
            <path d="M0.0148557692,33.0550633 L0.0148557692,41.85 L0.975528846,41.85 L0.975528846,37.8626582 L4.71918269,37.8626582 L4.71918269,41.85 L5.67985577,41.85 L5.67985577,33.0550633 L4.71918269,33.0550633 L4.71918269,37.0424051 L0.975528846,37.0424051 L0.975528846,33.0550633 L0.0148557692,33.0550633" id="Fill-10" fill="#BCBCBC" sketch:type="MSShapeGroup"></path>
            <path d="M10.1242067,36.4386076 C11.2730529,36.4386076 11.7261538,37.714557 11.7261538,38.7227848 C11.7261538,40.0585443 11.0304087,41.0297468 10.1019231,41.0297468 C9.15115385,41.0297468 8.47769231,40.0471519 8.47769231,38.7455696 C8.47769231,37.6177215 8.97536058,36.4386076 10.1242067,36.4386076 L10.1242067,36.4386076 Z M10.1464904,35.6212025 C8.66586538,35.6212025 7.51701923,36.7946203 7.51701923,38.7825949 C7.51701923,40.6594937 8.60891827,41.8471519 10.0573558,41.8471519 C11.3522837,41.8471519 12.6868269,40.8816456 12.6868269,38.6857595 C12.6868269,36.8686709 11.6840625,35.6212025 10.1464904,35.6212025 L10.1464904,35.6212025 Z" id="Fill-11" fill="#BCBCBC" sketch:type="MSShapeGroup"></path>
            <path d="M14.6279808,41.4313291 C15.0068029,41.6848101 15.5515144,41.8471519 16.155649,41.8471519 C17.4654327,41.8471519 18.2007933,41.0924051 18.2007933,40.0471519 C18.2007933,39.1642405 17.7229327,38.6487342 16.7721635,38.2556962 C16.0516587,37.9623418 15.7198798,37.7401899 15.7198798,37.2503165 C15.7198798,36.8088608 16.0516587,36.4386076 16.6483654,36.4386076 C17.1633654,36.4386076 17.5545673,36.6351266 17.7675,36.7832278 L18.0126202,35.9943038 C17.7105529,35.7949367 17.2302163,35.6212025 16.670649,35.6212025 C15.4846635,35.6212025 14.7839663,36.4158228 14.7839663,37.3727848 C14.7839663,38.0848101 15.2420192,38.671519 16.2225,39.0531646 C16.9677644,39.346519 17.254976,39.628481 17.254976,40.1439873 C17.254976,40.6367089 16.9108173,41.0297468 16.1779327,41.0297468 C15.6753125,41.0297468 15.1627885,40.8075949 14.873101,40.5996835 L14.6279808,41.4313291" id="Fill-12" fill="#BCBCBC" sketch:type="MSShapeGroup"></path>
            <path d="M20.790649,34.1344937 L20.790649,35.6212025 L19.953774,35.6212025 L19.953774,36.4386076 L20.790649,36.4386076 L20.790649,39.853481 C20.790649,40.5882911 20.8896875,41.1294304 21.1694712,41.4256329 C21.4022115,41.6990506 21.7686538,41.8471519 22.2267067,41.8471519 C22.6055288,41.8471519 22.9051202,41.7901899 23.0957692,41.710443 L23.0512019,40.95 C22.9274038,40.9898734 22.7392308,41.0297468 22.4817308,41.0297468 C21.9370192,41.0297468 21.7463702,40.5882911 21.7463702,39.8136076 L21.7463702,36.4386076 L23.1502404,36.4386076 L23.1502404,35.6212025 L21.7463702,35.6212025 L21.7463702,33.8411392 L20.790649,34.1344937" id="Fill-13" fill="#BCBCBC" sketch:type="MSShapeGroup"></path>
            <path d="M25.6806731,33.0408228 C25.3266106,33.0408228 25.0715865,33.3484177 25.0715865,33.7414557 C25.0715865,34.1259494 25.3167067,34.4306962 25.6583894,34.4306962 C26.0471154,34.4306962 26.2897596,34.1259494 26.2798558,33.7414557 C26.2798558,33.3484177 26.0471154,33.0408228 25.6806731,33.0408228 L25.6806731,33.0408228 Z M25.0715865,41.85 L26.0322596,41.85 L26.0322596,35.6183544 L25.0715865,35.6183544 L25.0715865,41.85 Z" id="Fill-14" fill="#BCBCBC" sketch:type="MSShapeGroup"></path>
            <path d="M28.1170192,41.85 L29.0776923,41.85 L29.0776923,38.1189873 C29.0776923,37.9253165 29.099976,37.7344937 29.1470192,37.5920886 C29.3228125,36.9655063 29.8477163,36.4386076 30.5236538,36.4386076 C31.4917548,36.4386076 31.8309615,37.2731013 31.8309615,38.2727848 L31.8309615,41.85 L32.7916346,41.85 L32.7916346,38.1446203 C32.7916346,36.0712025 31.6452644,35.6212025 30.8628606,35.6212025 C29.9294231,35.6212025 29.2757692,36.1253165 29.0009375,36.6693038 L28.9786538,36.6693038 L28.9241827,35.6183544 L28.0724519,35.6183544 C28.1071154,36.1338608 28.1170192,36.6607595 28.1170192,37.3044304 L28.1170192,41.85" id="Fill-15" fill="#BCBCBC" sketch:type="MSShapeGroup"></path>
            <path d="M38.8379327,39.2439873 C38.8379327,39.4405063 38.815649,39.6626582 38.7611779,39.8563291 C38.5507212,40.5882911 38.0109615,41.0297468 37.4142548,41.0297468 C36.3669231,41.0297468 35.8370673,40.0015823 35.8370673,38.7626582 C35.8370673,37.3528481 36.498149,36.4386076 37.4266346,36.4386076 C38.1322837,36.4386076 38.6051923,36.9797468 38.7834615,37.6348101 C38.8280288,37.7886076 38.8379327,37.9566456 38.8379327,38.1503165 L38.8379327,39.2439873 L38.8379327,39.2439873 Z M38.9939183,35.6183544 L38.949351,36.6322785 L38.9270673,36.6322785 C38.6943269,36.1424051 38.1867548,35.6212025 37.2607452,35.6212025 C36.0351442,35.6212025 34.8763942,36.7490506 34.8763942,38.8566456 C34.8763942,40.5797468 35.8048798,41.85 37.1270433,41.85 C37.9564904,41.85 38.5284375,41.4085443 38.8280288,40.8503165 L38.8503125,40.8503165 L38.8503125,41.5196203 C38.8503125,43.0148734 38.1199038,43.593038 37.1270433,43.593038 C36.4659615,43.593038 35.9138221,43.3708861 35.5671875,43.1259494 L35.3294952,43.9348101 C35.7504087,44.2452532 36.4535817,44.410443 37.0948558,44.410443 C37.7683173,44.410443 38.5185337,44.2452532 39.0360096,43.7212025 C39.5559615,43.2113924 39.7986058,42.3768987 39.7986058,41.0183544 L39.7986058,37.4041139 C39.7986058,36.5838608 39.8208894,36.0768987 39.8431731,35.6183544 L38.9939183,35.6183544 L38.9939183,35.6183544 Z" id="Fill-16" fill="#BCBCBC" sketch:type="MSShapeGroup"></path>
            <path d="M49.1082212,38.2727848 C49.1082212,38.0933544 49.1428846,37.9424051 49.1651683,37.8142405 C49.3706731,36.9626582 50.0144231,36.4386076 50.7027404,36.4386076 C51.7822596,36.4386076 52.3566827,37.4952532 52.3566827,38.7313291 C52.3566827,40.0870253 51.7253125,41.0297468 50.6680769,41.0297468 C49.9351923,41.0297468 49.3483894,40.5028481 49.1527885,39.7367089 C49.1305048,39.6113924 49.1082212,39.4746835 49.1082212,39.3351266 L49.1082212,38.2727848 L49.1082212,38.2727848 Z M48.9423317,41.85 L48.986899,40.7648734 L49.0190865,40.7648734 C49.4300962,41.5310127 50.0713702,41.8471519 50.8760577,41.8471519 C52.1165144,41.8471519 53.3173558,40.8275316 53.3173558,38.6572785 C53.3272596,36.814557 52.40125,35.6212025 51.0246154,35.6212025 C50.1283173,35.6212025 49.4870433,36.0313291 49.1305048,36.6778481 L49.1082212,36.6778481 L49.1082212,32.7702532 L48.1475481,32.7702532 L48.1475481,40.2009494 C48.1475481,40.8047468 48.1252644,41.428481 48.1029808,41.85 L48.9423317,41.85 L48.9423317,41.85 Z" id="Fill-17" fill="#BCBCBC" sketch:type="MSShapeGroup"></path>
            <path d="M55.1545192,35.6183544 L57.0907212,41.3344937 C57.1352885,41.4768987 57.1550962,41.5651899 57.1550962,41.6306962 C57.1550962,41.6933544 57.1229087,41.7844937 57.0808173,41.8984177 C56.8629327,42.4765823 56.5385817,42.9123418 56.2810817,43.1544304 C55.9988221,43.4363924 55.684375,43.6158228 55.4466827,43.706962 L55.684375,44.6553797 C55.9220673,44.6041139 56.3875481,44.410443 56.8530288,43.9234177 C57.5017308,43.256962 57.9672115,42.1689873 58.648101,40.0414557 L60.0767308,35.6183544 L59.0714904,35.6183544 L58.0315865,39.2582278 C57.9028365,39.7082278 57.7938942,40.1810127 57.6973317,40.5541139 L57.6750481,40.5541139 C57.5883894,40.1810127 57.4596394,39.6939873 57.3407933,39.2838608 L56.1944231,35.6183544 L55.1545192,35.6183544" id="Fill-18" fill="#BCBCBC" sketch:type="MSShapeGroup"></path>
            <path d="M71.3770192,40.6623418 C70.9882933,40.8844937 70.3866346,41.0297468 69.7948798,41.0297468 C67.9676202,41.0297468 66.9103846,39.6484177 66.9103846,37.4981013 C66.9103846,35.1939873 68.0790385,33.8753165 69.8394471,33.8753165 C70.4633894,33.8753165 70.9882933,34.0348101 71.3547356,34.2427215 L71.5899519,33.3939873 C71.3324519,33.2601266 70.7431731,33.0579114 69.8072596,33.0579114 C67.4773798,33.0579114 65.9497115,34.789557 65.9497115,37.5379747 C65.9497115,40.4174051 67.4773798,41.8471519 69.5943269,41.8471519 C70.5079567,41.8471519 71.2210337,41.6677215 71.5775721,41.4882911 L71.3770192,40.6623418" id="Fill-19" fill="#BCBCBC" sketch:type="MSShapeGroup"></path>
            <path d="M74.4125481,33.9949367 C74.672524,33.9294304 75.0562981,33.8753165 75.5663462,33.8753165 C77.6461538,33.8753165 78.663774,35.1996835 78.6513942,37.2816456 C78.6513942,39.6655063 77.509976,41.0297468 75.4078846,41.0297468 C75.0216346,41.0297468 74.6601442,41.0155063 74.4125481,40.9642405 L74.4125481,33.9949367 L74.4125481,33.9949367 Z M73.451875,41.7531646 C73.9371635,41.8129747 74.5140625,41.8471519 75.2147596,41.8471519 C76.6953846,41.8471519 77.8714663,41.4484177 78.5845433,40.6737342 C79.2530529,39.8620253 79.6120673,38.6829114 79.6120673,37.2417722 C79.6120673,35.8148734 79.243149,34.7924051 78.6068269,34.0718354 C77.9407933,33.4025316 76.9330769,33.0579114 75.5193029,33.0579114 C74.739375,33.0579114 74.0362019,33.1291139 73.451875,33.2231013 L73.451875,41.7531646 L73.451875,41.7531646 Z" id="Fill-20" fill="#BCBCBC" sketch:type="MSShapeGroup"></path>
            <path d="M81.6993029,41.85 L82.655024,41.85 L82.655024,38.1132911 C82.655024,37.9224684 82.6797837,37.7316456 82.7367308,37.5636076 C82.9001442,37.0025316 83.3606731,36.4386076 83.9969952,36.4386076 C84.7719712,36.4386076 85.165649,37.1563291 85.165649,38.1389241 L85.165649,41.85 L86.1213702,41.85 L86.1213702,38.025 C86.1213702,37.8199367 86.1535577,37.6148734 86.195649,37.4610759 C86.3516346,36.9113924 86.7601683,36.4386076 87.2850721,36.4386076 C88.0278606,36.4386076 88.384399,37.1563291 88.384399,38.3439873 L88.384399,41.85 L89.3401202,41.85 L89.3401202,38.2044304 C89.3401202,36.0996835 88.2878365,35.6212025 87.6193269,35.6212025 C87.1365144,35.6212025 86.8022596,35.7579114 86.5001923,36.0085443 C86.2897356,36.1794304 86.0891827,36.4186709 85.9208173,36.7575949 L85.8985337,36.7575949 C85.6657933,36.0768987 85.106226,35.6212025 84.3436298,35.6212025 C83.4200962,35.6212025 82.9001442,36.1110759 82.5881731,36.6579114 L82.5559856,36.6579114 L82.5114183,35.6183544 L81.6547356,35.6183544 C81.6869231,36.1338608 81.6993029,36.6607595 81.6993029,37.3044304 L81.6993029,41.85" id="Fill-21" fill="#BCBCBC" sketch:type="MSShapeGroup"></path>
            <path d="M93.7869471,36.4386076 C94.9357933,36.4386076 95.3888942,37.714557 95.3888942,38.7227848 C95.3888942,40.0585443 94.693149,41.0297468 93.7646635,41.0297468 C92.8138942,41.0297468 92.1404327,40.0471519 92.1404327,38.7455696 C92.1404327,37.6177215 92.638101,36.4386076 93.7869471,36.4386076 L93.7869471,36.4386076 Z M93.8092308,35.6212025 C92.3286058,35.6212025 91.1797596,36.7946203 91.1797596,38.7825949 C91.1797596,40.6594937 92.2716587,41.8471519 93.7200962,41.8471519 C95.015024,41.8471519 96.3495673,40.8816456 96.3495673,38.6857595 C96.3495673,36.8686709 95.3468029,35.6212025 93.8092308,35.6212025 L93.8092308,35.6212025 Z" id="Fill-22" fill="#BCBCBC" sketch:type="MSShapeGroup"></path>
            <path d="M98.1867308,41.85 L99.1474038,41.85 L99.1474038,38.1189873 C99.1474038,37.9253165 99.1696875,37.7344937 99.2167308,37.5920886 C99.392524,36.9655063 99.9174279,36.4386076 100.593365,36.4386076 C101.561466,36.4386076 101.900673,37.2731013 101.900673,38.2727848 L101.900673,41.85 L102.861346,41.85 L102.861346,38.1446203 C102.861346,36.0712025 101.714976,35.6212025 100.932572,35.6212025 C99.9991346,35.6212025 99.3454808,36.1253165 99.070649,36.6693038 L99.0483654,36.6693038 L98.9938942,35.6183544 L98.1421635,35.6183544 C98.1768269,36.1338608 98.1867308,36.6607595 98.1867308,37.3044304 L98.1867308,41.85" id="Fill-23" fill="#BCBCBC" sketch:type="MSShapeGroup"></path>
        </g>
    </g>
</svg>