<?xml version="1.0" encoding="UTF-8" standalone="no"?>
<svg width="254px" height="55px" viewBox="0 0 254 55" version="1.1" xmlns="http://www.w3.org/2000/svg" xmlns:xlink="http://www.w3.org/1999/xlink" xmlns:sketch="http://www.bohemiancoding.com/sketch/ns">
    <!-- Generator: Sketch 3.2.2 (9983) - http://www.bohemiancoding.com/sketch -->
    <title>project-hello-soldier</title>
    <desc>Created with Sketch.</desc>
    <defs></defs>
    <g id="Page-1" stroke="none" stroke-width="1" fill="none" fill-rule="evenodd" sketch:type="MSPage">
        <g id="project-hello-soldier" sketch:type="MSLayerGroup" transform="translate(0.000000, 0.500000)">
            <g id="Happy-face" sketch:type="MSShapeGroup">
                <circle id="Oval-11" fill="#FFCC00" cx="26" cy="26" r="26"></circle>
                <path d="M21.32,31.32 C21.8106691,31.32 22.2319982,31.4959982 22.584,31.848 C22.9360018,32.2000018 23.112,32.6213309 23.112,33.112 L23.112,33.304 C23.112,33.7946691 22.9360018,34.2159982 22.584,34.568 C22.2319982,34.9200018 21.8106691,35.096 21.32,35.096 L21,35.096 C20.5093309,35.096 20.0880018,34.9200018 19.736,34.568 C19.3839982,34.2159982 19.208,33.7946691 19.208,33.304 L19.208,33.112 C19.208,32.6213309 19.3839982,32.2000018 19.736,31.848 C20.0880018,31.4959982 20.5093309,31.32 21,31.32 L21.32,31.32 Z M21.32,18.584 C21.8106691,18.584 22.2319982,18.7599982 22.584,19.112 C22.9360018,19.4640018 23.112,19.8853309 23.112,20.376 L23.112,20.568 C23.112,21.0586691 22.9360018,21.4799982 22.584,21.832 C22.2319982,22.1840018 21.8106691,22.36 21.32,22.36 L21,22.36 C20.5093309,22.36 20.0880018,22.1840018 19.736,21.832 C19.3839982,21.4799982 19.208,21.0586691 19.208,20.568 L19.208,20.376 C19.208,19.8853309 19.3839982,19.4640018 19.736,19.112 C20.0880018,18.7599982 20.5093309,18.584 21,18.584 L21.32,18.584 Z M27.24,39.576 C26.9839987,39.3413322 26.856,39.0746682 26.856,38.776 C26.856,38.4773318 26.9199994,38.2106678 27.048,37.976 C29.5440125,33.7946458 30.792,29.5280218 30.792,25.176 C30.792,20.8239782 29.5440125,16.5573542 27.048,12.376 C26.9199994,12.1626656 26.856,11.9013349 26.856,11.592 C26.856,11.2826651 26.9839987,11.0106678 27.24,10.776 C27.4960013,10.5413322 27.7786651,10.424 28.088,10.424 C28.3973349,10.424 28.6213326,10.4773328 28.76,10.584 C28.8986674,10.6906672 29.0426659,10.8293325 29.192,11 C30.7280077,12.8346758 31.8639963,14.9839877 32.6,17.448 C33.3360037,19.9120123 33.704,22.4879866 33.704,25.176 C33.704,27.8640134 33.3360037,30.4399877 32.6,32.904 C31.8639963,35.3680123 30.7280077,37.5173242 29.192,39.352 C29.0426659,39.5226675 28.8986674,39.6613328 28.76,39.768 C28.6213326,39.8746672 28.3973349,39.928 28.088,39.928 C27.7786651,39.928 27.4960013,39.8106678 27.24,39.576 L27.24,39.576 Z" id=":)" fill="#2C2C2C"></path>
            </g>
            <path d="M64.59,28 L72.9,28 L72.9,25.66 L70.23,25.66 L70.23,18.64 L81.21,18.64 L81.21,25.66 L78.54,25.66 L78.54,28 L86.85,28 L86.85,25.66 L84.21,25.66 L84.21,9.13 L86.85,9.13 L86.85,6.82 L78.54,6.82 L78.54,9.13 L81.21,9.13 L81.21,16.18 L70.23,16.18 L70.23,9.13 L72.9,9.13 L72.9,6.82 L64.59,6.82 L64.59,9.13 L67.23,9.13 L67.23,25.66 L64.59,25.66 L64.59,28 Z M89.19,20.41 C89.19,24.91 92.46,28.36 97.23,28.36 C100.86,28.36 103.14,26.26 103.14,26.26 L101.94,24.13 C101.94,24.13 100.05,25.84 97.41,25.84 C94.71,25.84 92.34,24.04 92.16,20.68 L103.26,20.68 C103.26,20.68 103.35,19.96 103.35,19.57 C103.35,15.64 101.1,12.46 96.78,12.46 C92.46,12.46 89.19,15.58 89.19,20.41 L89.19,20.41 Z M92.28,18.82 C92.7,16.27 94.5,14.77 96.72,14.77 C98.64,14.77 100.26,16.15 100.35,18.82 L92.28,18.82 Z M107.16,23.68 C107.16,27.22 109.02,28.09 111.18,28.09 C111.87,28.09 112.47,28.03 112.47,28.03 L112.5,25.63 C112.5,25.63 112.17,25.66 111.69,25.66 C110.37,25.66 110.07,24.79 110.07,23.5 L110.07,6.82 L104.64,6.82 L104.64,9.07 L107.16,9.07 L107.16,23.68 Z M115.74,23.68 C115.74,27.22 117.6,28.09 119.76,28.09 C120.45,28.09 121.05,28.03 121.05,28.03 L121.08,25.63 C121.08,25.63 120.75,25.66 120.27,25.66 C118.95,25.66 118.65,24.79 118.65,23.5 L118.65,6.82 L113.22,6.82 L113.22,9.07 L115.74,9.07 L115.74,23.68 Z M123.06,20.38 C123.06,25 126.72,28.36 131.25,28.36 C135.78,28.36 139.44,25 139.44,20.38 C139.44,15.79 135.78,12.46 131.25,12.46 C126.72,12.46 123.06,15.79 123.06,20.38 L123.06,20.38 Z M126.03,20.38 C126.03,17.23 128.37,14.98 131.25,14.98 C134.1,14.98 136.47,17.23 136.47,20.38 C136.47,23.56 134.1,25.84 131.25,25.84 C128.37,25.84 126.03,23.56 126.03,20.38 L126.03,20.38 Z M149.34,24.73 C149.34,27.13 152.52,28.36 155.28,28.36 C158.73,28.36 161.37,26.77 161.37,23.89 C161.37,21.07 158.7,20.08 156.36,19.3 C154.53,18.67 152.85,18.07 152.85,16.63 C152.85,15.4 154.11,14.8 155.55,14.8 C157.02,14.8 158.22,15.43 158.22,16.36 L158.22,17.35 L160.77,17.35 L160.77,15.52 C160.77,13.3 157.65,12.46 155.52,12.46 C152.88,12.46 149.91,13.66 149.91,16.66 C149.91,19.42 152.4,20.44 154.65,21.28 C156.75,22.03 158.43,22.51 158.43,24.04 C158.43,25.3 157.08,25.99 155.37,25.99 C153.69,25.99 151.89,25.39 151.89,24.1 L151.89,23.11 L149.34,23.11 L149.34,24.73 Z M163.77,20.38 C163.77,25 167.43,28.36 171.96,28.36 C176.49,28.36 180.15,25 180.15,20.38 C180.15,15.79 176.49,12.46 171.96,12.46 C167.43,12.46 163.77,15.79 163.77,20.38 L163.77,20.38 Z M166.74,20.38 C166.74,17.23 169.08,14.98 171.96,14.98 C174.81,14.98 177.18,17.23 177.18,20.38 C177.18,23.56 174.81,25.84 171.96,25.84 C169.08,25.84 166.74,23.56 166.74,20.38 L166.74,20.38 Z M183.9,23.68 C183.9,27.22 185.76,28.09 187.92,28.09 C188.61,28.09 189.21,28.03 189.21,28.03 L189.24,25.63 C189.24,25.63 188.91,25.66 188.43,25.66 C187.11,25.66 186.81,24.79 186.81,23.5 L186.81,6.82 L181.38,6.82 L181.38,9.07 L183.9,9.07 L183.9,23.68 Z M191.4,20.41 C191.4,25.12 193.95,28.36 198.03,28.36 C201.93,28.36 203.16,25.33 203.16,25.33 L203.22,25.33 C203.22,25.33 203.13,25.63 203.13,26.14 L203.13,26.35 C203.13,27.34 203.67,28 205.02,28 L208.05,28 L208.05,25.75 L206.52,25.75 C206.1,25.75 205.86,25.54 205.86,25.09 L205.86,6.82 L200.43,6.82 L200.43,9.07 L202.95,9.07 L202.95,13.87 C202.95,14.53 203.04,15.01 203.04,15.01 L202.98,15.01 C202.98,15.01 201.75,12.46 198.3,12.46 C194.22,12.46 191.4,15.58 191.4,20.41 L191.4,20.41 Z M194.37,20.41 C194.37,16.96 196.32,15.01 198.75,15.01 C201.63,15.01 203.04,17.65 203.04,20.44 C203.04,24.22 200.91,25.84 198.66,25.84 C196.14,25.84 194.37,23.71 194.37,20.41 L194.37,20.41 Z M212.76,9.79 L215.82,9.79 L215.82,6.82 L212.76,6.82 L212.76,9.79 Z M210.45,28 L218.13,28 L218.13,25.75 L215.73,25.75 L215.73,12.82 L210.3,12.82 L210.3,15.07 L212.82,15.07 L212.82,25.75 L210.45,25.75 L210.45,28 Z M220.2,20.41 C220.2,24.91 223.47,28.36 228.24,28.36 C231.87,28.36 234.15,26.26 234.15,26.26 L232.95,24.13 C232.95,24.13 231.06,25.84 228.42,25.84 C225.72,25.84 223.35,24.04 223.17,20.68 L234.27,20.68 C234.27,20.68 234.36,19.96 234.36,19.57 C234.36,15.64 232.11,12.46 227.79,12.46 C223.47,12.46 220.2,15.58 220.2,20.41 L220.2,20.41 Z M223.29,18.82 C223.71,16.27 225.51,14.77 227.73,14.77 C229.65,14.77 231.27,16.15 231.36,18.82 L223.29,18.82 Z M237.12,28 L244.56,28 L244.56,25.75 L242.31,25.75 L242.31,21.73 C242.31,18.76 243.69,15.49 246.93,15.49 C247.41,15.49 247.77,15.58 247.77,15.58 L247.77,12.7 C247.77,12.7 247.41,12.64 247.02,12.64 C244.68,12.64 242.91,14.38 242.22,16.6 L242.16,16.6 C242.16,16.6 242.22,16.15 242.22,15.55 L242.22,14.59 C242.22,13.36 241.59,12.82 240.27,12.82 L236.85,12.82 L236.85,15.07 L238.74,15.07 C239.16,15.07 239.4,15.28 239.4,15.73 L239.4,25.75 L237.12,25.75 L237.12,28 Z M250.71,22.18 L253.32,22.18 L253.5,6.82 L250.5,6.82 L250.71,22.18 Z M250.53,28 L253.53,28 L253.53,25.06 L250.53,25.06 L250.53,28 Z" id="Hello-soldier!" fill="#2C2C2C" sketch:type="MSShapeGroup"></path>
            <path d="M64.08,50 L69.16,50 L69.16,48.84 L67.32,48.84 L67.32,43.56 L75.46,43.56 L75.46,48.84 L73.62,48.84 L73.62,50 L78.7,50 L78.7,48.84 L76.86,48.84 L76.86,37.1 L78.7,37.1 L78.7,35.94 L73.62,35.94 L73.62,37.1 L75.46,37.1 L75.46,42.36 L67.32,42.36 L67.32,37.1 L69.16,37.1 L69.16,35.94 L64.08,35.94 L64.08,37.1 L65.92,37.1 L65.92,48.84 L64.08,48.84 L64.08,50 Z M80.3,44.92 C80.3,47.96 82.68,50.24 85.6,50.24 C88.54,50.24 90.92,47.96 90.92,44.92 C90.92,41.94 88.54,39.7 85.6,39.7 C82.68,39.7 80.3,41.94 80.3,44.92 L80.3,44.92 Z M81.7,44.92 C81.7,42.64 83.46,40.92 85.6,40.92 C87.76,40.92 89.52,42.64 89.52,44.92 C89.52,47.26 87.76,49.02 85.6,49.02 C83.46,49.02 81.7,47.26 81.7,44.92 L81.7,44.92 Z M91.9,41.06 L93.18,41.06 L96.04,50 L97.52,50 L100,42.46 C100.12,42.1 100.18,41.66 100.18,41.66 L100.24,41.66 C100.24,41.66 100.3,42.1 100.42,42.46 L102.9,50 L104.36,50 L107.22,41.06 L108.52,41.06 L108.52,39.94 L104.36,39.94 L104.36,41.06 L105.86,41.06 L103.74,47.82 C103.64,48.18 103.6,48.6 103.6,48.6 L103.56,48.6 C103.56,48.6 103.5,48.18 103.4,47.82 L100.88,39.98 L99.54,39.98 L97.02,47.82 C96.92,48.18 96.86,48.6 96.86,48.6 L96.82,48.6 C96.82,48.6 96.78,48.18 96.66,47.82 L94.56,41.06 L96.06,41.06 L96.06,39.94 L91.9,39.94 L91.9,41.06 Z M113.92,41.06 L115.2,41.06 L118.06,50 L119.54,50 L122.02,42.46 C122.14,42.1 122.2,41.66 122.2,41.66 L122.26,41.66 C122.26,41.66 122.32,42.1 122.44,42.46 L124.92,50 L126.38,50 L129.24,41.06 L130.54,41.06 L130.54,39.94 L126.38,39.94 L126.38,41.06 L127.88,41.06 L125.76,47.82 C125.66,48.18 125.62,48.6 125.62,48.6 L125.58,48.6 C125.58,48.6 125.52,48.18 125.42,47.82 L122.9,39.98 L121.56,39.98 L119.04,47.82 C118.94,48.18 118.88,48.6 118.88,48.6 L118.84,48.6 C118.84,48.6 118.8,48.18 118.68,47.82 L116.58,41.06 L118.08,41.06 L118.08,39.94 L113.92,39.94 L113.92,41.06 Z M131.5,47.24 C131.5,49.3 133.22,50.24 134.86,50.24 C137.44,50.24 138.3,47.94 138.3,47.94 L138.34,47.94 C138.34,47.94 138.28,48.24 138.28,48.72 L138.28,48.9 C138.28,49.62 138.62,50 139.48,50 L141.12,50 L141.12,48.88 L140.02,48.88 C139.74,48.88 139.58,48.74 139.58,48.44 L139.58,43.48 C139.58,41 138.32,39.7 135.88,39.7 C133.6,39.7 132.24,40.84 132.24,40.84 L132.88,41.86 C132.88,41.86 134.1,40.88 135.8,40.88 C137.2,40.88 138.22,41.54 138.22,43.42 L138.22,43.84 L137.56,43.84 C135.86,43.84 131.5,43.98 131.5,47.24 L131.5,47.24 Z M132.9,47.1 C132.9,44.78 136.82,44.86 137.64,44.86 L138.22,44.86 L138.22,45.34 C138.22,47.1 137.08,49.12 135.06,49.12 C133.66,49.12 132.9,48.14 132.9,47.1 L132.9,47.1 Z M142.56,47.86 C142.56,49.4 144.5,50.24 146.36,50.24 C148.6,50.24 150.16,49.14 150.16,47.4 C150.16,45.6 148.44,44.94 146.88,44.38 C145.56,43.9 144.34,43.44 144.34,42.34 C144.34,41.36 145.34,40.88 146.46,40.88 C147.52,40.88 148.52,41.34 148.52,42.08 L148.52,42.82 L149.76,42.82 L149.76,41.66 C149.76,40.28 147.78,39.7 146.42,39.7 C144.74,39.7 142.94,40.54 142.94,42.38 C142.94,44.14 144.54,44.82 146.06,45.38 C147.5,45.92 148.78,46.32 148.78,47.48 C148.78,48.5 147.7,49.06 146.42,49.06 C145.26,49.06 143.8,48.62 143.8,47.6 L143.8,46.88 L142.56,46.88 L142.56,47.86 Z M157.32,52.52 L156.8,53.6 C156.8,53.6 157.56,54.2 158.7,54.2 C160.1,54.2 161.2,53.3 161.78,51.86 L166.06,41.06 L167.38,41.06 L167.38,39.94 L163.22,39.94 L163.22,41.06 L164.68,41.06 L162.04,47.92 C161.9,48.3 161.84,48.64 161.84,48.64 L161.78,48.64 C161.78,48.64 161.74,48.3 161.62,47.92 L158.98,41.06 L160.44,41.06 L160.44,39.94 L156.22,39.94 L156.22,41.06 L157.54,41.06 L161.14,50.06 L160.58,51.4 C160.2,52.28 159.56,53 158.66,53 C157.9,53 157.32,52.52 157.32,52.52 L157.32,52.52 Z M168.3,44.92 C168.3,47.96 170.68,50.24 173.6,50.24 C176.54,50.24 178.92,47.96 178.92,44.92 C178.92,41.94 176.54,39.7 173.6,39.7 C170.68,39.7 168.3,41.94 168.3,44.92 L168.3,44.92 Z M169.7,44.92 C169.7,42.64 171.46,40.92 173.6,40.92 C175.76,40.92 177.52,42.64 177.52,44.92 C177.52,47.26 175.76,49.02 173.6,49.02 C171.46,49.02 169.7,47.26 169.7,44.92 L169.7,44.92 Z M181.96,46.34 C181.96,48.96 182.94,50.24 185.26,50.24 C187.74,50.24 188.98,48.42 189.24,47.66 L189.28,47.66 C189.28,47.66 189.26,47.98 189.26,48.38 L189.26,48.88 C189.26,49.64 189.62,50 190.46,50 L192.16,50 L192.16,48.9 L191.02,48.9 C190.74,48.9 190.58,48.76 190.58,48.46 L190.58,39.94 L187.42,39.94 L187.42,41.06 L189.22,41.06 L189.22,44.72 C189.22,46.9 187.78,48.98 185.52,48.98 C183.56,48.98 183.32,47.58 183.32,46 L183.32,39.94 L180.16,39.94 L180.16,41.06 L181.96,41.06 L181.96,46.34 Z M193.86,50 L198.34,50 L198.34,48.88 L196.78,48.88 L196.78,45.74 C196.78,43.74 197.7,41.2 199.96,41.2 C200.22,41.2 200.48,41.24 200.48,41.24 L200.48,39.9 C200.48,39.9 200.2,39.84 199.92,39.84 C198.36,39.84 197.24,41 196.74,42.52 L196.7,42.52 C196.7,42.52 196.74,42.18 196.74,41.76 L196.74,41.08 C196.74,40.28 196.36,39.94 195.52,39.94 L193.62,39.94 L193.62,41.06 L194.98,41.06 C195.26,41.06 195.42,41.2 195.42,41.5 L195.42,48.88 L193.86,48.88 L193.86,50 Z M206.78,44.98 C206.78,48.08 208.44,50.24 211.14,50.24 C213.82,50.24 214.68,48.1 214.68,48.1 L214.72,48.1 C214.72,48.1 214.64,48.32 214.64,48.72 L214.64,48.9 C214.64,49.62 214.98,50 215.84,50 L217.5,50 L217.5,48.88 L216.38,48.88 C216.1,48.88 215.94,48.74 215.94,48.44 L215.94,35.94 L212.78,35.94 L212.78,37.06 L214.58,37.06 L214.58,40.88 C214.58,41.32 214.64,41.66 214.64,41.66 L214.6,41.66 C214.6,41.66 213.72,39.7 211.32,39.7 C208.64,39.7 206.78,41.78 206.78,44.98 L206.78,44.98 Z M208.18,44.98 C208.18,42.42 209.64,40.94 211.44,40.94 C213.58,40.94 214.62,42.92 214.62,44.98 C214.62,47.82 213.04,49.02 211.36,49.02 C209.48,49.02 208.18,47.44 208.18,44.98 L208.18,44.98 Z M218.94,47.24 C218.94,49.3 220.66,50.24 222.3,50.24 C224.88,50.24 225.74,47.94 225.74,47.94 L225.78,47.94 C225.78,47.94 225.72,48.24 225.72,48.72 L225.72,48.9 C225.72,49.62 226.06,50 226.92,50 L228.56,50 L228.56,48.88 L227.46,48.88 C227.18,48.88 227.02,48.74 227.02,48.44 L227.02,43.48 C227.02,41 225.76,39.7 223.32,39.7 C221.04,39.7 219.68,40.84 219.68,40.84 L220.32,41.86 C220.32,41.86 221.54,40.88 223.24,40.88 C224.64,40.88 225.66,41.54 225.66,43.42 L225.66,43.84 L225,43.84 C223.3,43.84 218.94,43.98 218.94,47.24 L218.94,47.24 Z M220.34,47.1 C220.34,44.78 224.26,44.86 225.08,44.86 L225.66,44.86 L225.66,45.34 C225.66,47.1 224.52,49.12 222.5,49.12 C221.1,49.12 220.34,48.14 220.34,47.1 L220.34,47.1 Z M230.06,52.52 L229.54,53.6 C229.54,53.6 230.3,54.2 231.44,54.2 C232.84,54.2 233.94,53.3 234.52,51.86 L238.8,41.06 L240.12,41.06 L240.12,39.94 L235.96,39.94 L235.96,41.06 L237.42,41.06 L234.78,47.92 C234.64,48.3 234.58,48.64 234.58,48.64 L234.52,48.64 C234.52,48.64 234.48,48.3 234.36,47.92 L231.72,41.06 L233.18,41.06 L233.18,39.94 L228.96,39.94 L228.96,41.06 L230.28,41.06 L233.88,50.06 L233.32,51.4 C232.94,52.28 232.3,53 231.4,53 C230.64,53 230.06,52.52 230.06,52.52 L230.06,52.52 Z M243.08,46.32 L244.42,46.32 L244.42,45.46 C244.42,42.82 248,42.54 248,39.22 C248,37.14 246.3,35.68 244,35.68 C242.04,35.68 240.78,36.82 240.78,36.82 L241.54,37.82 C241.54,37.82 242.6,36.98 243.96,36.98 C245.5,36.98 246.58,38 246.58,39.28 C246.58,41.8 243.08,42.24 243.08,45.42 L243.08,46.32 Z M242.96,50 L244.54,50 L244.54,48.42 L242.96,48.42 L242.96,50 Z" id="How-was-your-day?" fill="#2C2C2C" sketch:type="MSShapeGroup"></path>
        </g>
    </g>
</svg>