<?xml version="1.0" encoding="UTF-8" standalone="no"?>
<svg width="252px" height="52px" viewBox="0 0 252 52" version="1.1" xmlns="http://www.w3.org/2000/svg" xmlns:xlink="http://www.w3.org/1999/xlink" xmlns:sketch="http://www.bohemiancoding.com/sketch/ns">
    <!-- Generator: Sketch 3.2.2 (9983) - http://www.bohemiancoding.com/sketch -->
    <title>project-width-snitch</title>
    <desc>Created with Sketch.</desc>
    <defs>
        <linearGradient x1="3%" y1="50%" x2="97%" y2="50%" id="linearGradient-1">
            <stop stop-color="#999999" offset="0%"></stop>
            <stop stop-color="#000000" offset="10.9027486%"></stop>
            <stop stop-color="#000000" offset="89.6583646%"></stop>
            <stop stop-color="#999999" offset="100%"></stop>
        </linearGradient>
    </defs>
    <g id="Page-1" stroke="none" stroke-width="1" fill="none" fill-rule="evenodd" sketch:type="MSPage">
        <g id="project-width-snitch" sketch:type="MSLayerGroup" transform="translate(0.000000, -0.500000)">
            <g id="Icon" transform="translate(0.000000, 0.500000)" sketch:type="MSShapeGroup">
                <rect id="area" fill-opacity="0.796932445" fill="#B6E685" x="0" y="0" width="52" height="52" rx="5"></rect>
                <path d="M0.65272279,25.0976727 L0.286080541,25.4607895 L0.662375653,25.8140877 L4.19635624,29.1320925 L4.89102241,28.4063692 L1.35704182,25.0883644 L1.36669469,25.8047795 L4.8514278,22.3535534 L4.13745591,21.6464466 L0.65272279,25.0976727 Z" id="arrow" fill="#979797"></path>
                <path d="M44.4439473,25 C22.4744241,25 22.4744241,25 7.01437545,25 C4.1664603,25 4.1664603,25 2.23394615,25 C0.80998825,25 0.80998825,25 0.504854368,25 L0.504854369,26 C0.809988251,26 0.809988251,26 2.23394615,26 C4.1664603,26 4.1664603,26 7.01437545,26 C22.4744241,26 22.4744241,26 44.4439472,26 L50.9902913,26 L50.9902913,25 L44.4439473,25 Z" id="Line" fill="url(#linearGradient-1)"></path>
                <path d="M50.8424228,25.6715582 L51.2090651,25.3084413 L50.83277,24.9551431 L47.2987894,21.6371383 L46.6041232,22.3628617 L50.1381038,25.6808664 L50.1284509,24.9644514 L46.6437178,28.4156775 L47.3576897,29.1227842 L50.8424228,25.6715582 Z" id="arrow" fill="#979797"></path>
                <path d="M51,30.5 L51,31 L52.0097087,31 L52.0097088,30.5 L52.0097092,20.5 L52.0097092,20 L51.0000005,20 L51.0000005,20.5 L51,30.5 Z" id="start" fill="#979797"></path>
                <rect id="Rectangle-65" fill="#FFFFFF" x="13.1262136" y="23" width="25.2427184" height="5"></rect>
                <path d="M2.20678911e-08,30.5 L0,31.5 L1.00970896,31.5 L1.00970898,30.5 L1.0097092,20.5 L1.00970922,19.5 L2.64814693e-07,19.5 L2.42746802e-07,20.5 L2.20678911e-08,30.5 Z" id="end" fill="#979797"></path>
                <g id="mask" transform="translate(7.000000, 19.000000)" fill="#000000">
                    <path d="M33.9619004,10.4215029 C34.6891644,9.89628967 35.347157,9.33656112 35.9292414,8.77477196 C36.2870371,8.42945139 36.5484577,8.1503148 36.7043671,7.96941149 L37.9100222,6.57047677 L36.7729784,5.11522624 C36.6235832,4.92402212 36.3743404,4.63484135 36.0301665,4.27976573 C35.473779,3.7057547 34.8343726,3.134685 34.114514,2.59955967 C31.9958627,1.02460598 29.6105406,0.0600471766 27.0000002,0.060046968 C24.3894593,0.0600467615 22.004137,1.02460568 19.8854855,2.59955978 C19.165627,3.13468512 18.5262206,3.70575483 17.9698332,4.27976587 C17.6256594,4.6348415 17.3764166,4.92402227 17.2270215,5.1152264 L16.0899779,6.5704769 L17.2956329,7.96941149 C17.4515423,8.1503148 17.7129629,8.42945139 18.0707586,8.77477196 C18.652843,9.33656112 19.3108356,9.89628967 20.0380996,10.4215029 C22.2023444,11.9844703 24.5352599,12.9443476 27,12.9443476 C29.4647401,12.9443476 31.7976556,11.9844703 33.9619004,10.4215029 Z M22.6726983,6.77336781 C22.1296377,6.38118196 21.6321432,5.95798292 21.1957907,5.53684449 C20.9425242,5.2924085 20.7743575,5.11284554 20.7043671,5.03163483 L20.7729785,7.88581992 C20.8282197,7.81511928 20.974011,7.64596672 21.2010302,7.41175664 C21.5966313,7.00362482 22.0568953,6.59255167 22.5701503,6.21101035 C23.9746806,5.16691655 25.4754494,4.56004685 26.9999998,4.56004697 C28.5245503,4.56004709 30.0253191,5.16691681 31.4298495,6.21101045 C31.9431046,6.59255179 32.4033686,7.00362495 32.7989698,7.41175678 C33.0259891,7.64596687 33.1717804,7.81511943 33.2270216,7.88582007 L33.2956329,5.03163483 C33.2256425,5.11284554 33.0574758,5.2924085 32.8042093,5.53684449 C32.3678568,5.95798292 31.8703623,6.38118196 31.3273017,6.77336781 C29.8620472,7.83154064 28.3726622,8.44434756 27,8.44434756 C25.6273378,8.44434756 24.1379528,7.83154064 22.6726983,6.77336781 Z" id="eye"></path>
                    <path d="M17.9619004,10.4215029 C18.6891644,9.89628967 19.347157,9.33656112 19.9292414,8.77477196 C20.2870371,8.42945139 20.5484577,8.1503148 20.7043671,7.96941149 L21.9100222,6.57047677 L20.7729784,5.11522624 C20.6235832,4.92402212 20.3743404,4.63484135 20.0301665,4.27976573 C19.473779,3.7057547 18.8343726,3.134685 18.114514,2.59955967 C15.9958627,1.02460598 13.6105406,0.0600471766 11.0000002,0.060046968 C8.38945934,0.0600467615 6.00413698,1.02460568 3.88548552,2.59955978 C3.16562702,3.13468512 2.52622065,3.70575483 1.96983325,4.27976587 C1.62565937,4.6348415 1.37641665,4.92402227 1.22702146,5.1152264 L0.0899779205,6.5704769 L1.29563294,7.96941149 C1.45154229,8.1503148 1.7129629,8.42945139 2.07075857,8.77477196 C2.652843,9.33656112 3.31083562,9.89628967 4.03809965,10.4215029 C6.20234437,11.9844703 8.53525985,12.9443476 11,12.9443476 C13.4647401,12.9443476 15.7976556,11.9844703 17.9619004,10.4215029 Z M6.67269834,6.77336781 C6.12963766,6.38118196 5.63214322,5.95798292 5.19579068,5.53684449 C4.94252416,5.2924085 4.77435754,5.11284554 4.70436706,5.03163483 L4.77297854,7.88581992 C4.82821968,7.81511928 4.97401099,7.64596672 5.20103021,7.41175664 C5.59663132,7.00362482 6.05689525,6.59255167 6.57015026,6.21101035 C7.97468063,5.16691655 9.47544936,4.56004685 10.9999998,4.56004697 C12.5245503,4.56004709 14.0253191,5.16691681 15.4298495,6.21101045 C15.9431046,6.59255179 16.4033686,7.00362495 16.7989698,7.41175678 C17.0259891,7.64596687 17.1717804,7.81511943 17.2270216,7.88582007 L17.2956329,5.03163483 C17.2256425,5.11284554 17.0574758,5.2924085 16.8042093,5.53684449 C16.3678568,5.95798292 15.8703623,6.38118196 15.3273017,6.77336781 C13.8620472,7.83154064 12.3726622,8.44434756 11,8.44434756 C9.62733781,8.44434756 8.13795278,7.83154064 6.67269834,6.77336781 Z" id="eye"></path>
                </g>
                <path d="M15,38.5739645 L15,38.0543303 C15.4804324,38.0066342 15.8154982,37.9269326 16.0052075,37.8152232 C16.1949167,37.7035139 16.3365805,37.4393064 16.4302033,37.0225928 L16.9549807,37.0225928 L16.9549807,42.3921463 L16.2454225,42.3921463 L16.2454225,38.5739645 L15,38.5739645 Z M22.0179741,37.8622916 C22.2544947,38.3066187 22.3727532,38.9153628 22.3727532,39.6885422 C22.3727532,40.4215565 22.2655815,41.0277903 22.0512347,41.507262 C21.7408014,42.1950904 21.2332753,42.5389995 20.528641,42.5389995 C19.892992,42.5389995 19.4199579,42.2578475 19.1095246,41.6955352 C18.8508302,41.2261049 18.721485,40.5960233 18.721485,39.8052717 C18.721485,39.1927529 18.7990921,38.6668482 18.9543088,38.2275417 C19.245032,37.4091765 19.771036,37 20.5323366,37 C21.2172608,37 21.7124684,37.2874276 22.0179741,37.8622916 L22.0179741,37.8622916 Z M21.3490677,41.4545455 C21.5535595,41.1432654 21.6558038,40.5633896 21.6558038,39.7149005 C21.6558038,39.1023817 21.5818922,38.598442 21.4340669,38.2030662 C21.2862415,37.8076903 20.9992182,37.6100054 20.5729884,37.6100054 C20.1812512,37.6100054 19.8948438,37.7976492 19.7137578,38.1729424 C19.5326717,38.5482357 19.44213,39.101126 19.44213,39.8316299 C19.44213,40.3813906 19.5000274,40.8232008 19.615824,41.1570737 C19.7932144,41.6666692 20.0962518,41.9214632 20.5249454,41.9214632 C20.8698713,41.9214632 21.1445759,41.7658255 21.3490677,41.4545455 L21.3490677,41.4545455 Z M26.2272804,37.8622916 C26.4638009,38.3066187 26.5820595,38.9153628 26.5820595,39.6885422 C26.5820595,40.4215565 26.4748877,41.0277903 26.2605409,41.507262 C25.9501076,42.1950904 25.4425815,42.5389995 24.7379473,42.5389995 C24.1022982,42.5389995 23.6292641,42.2578475 23.3188308,41.6955352 C23.0601365,41.2261049 22.9307912,40.5960233 22.9307912,39.8052717 C22.9307912,39.1927529 23.0083984,38.6668482 23.163615,38.2275417 C23.4543382,37.4091765 23.9803422,37 24.7416429,37 C25.4265671,37 25.9217746,37.2874276 26.2272804,37.8622916 L26.2272804,37.8622916 Z M25.5583739,41.4545455 C25.7628657,41.1432654 25.86511,40.5633896 25.86511,39.7149005 C25.86511,39.1023817 25.7911985,38.598442 25.6433731,38.2030662 C25.4955477,37.8076903 25.2085244,37.6100054 24.7822946,37.6100054 C24.3905574,37.6100054 24.1041501,37.7976492 23.923064,38.1729424 C23.7419779,38.5482357 23.6514363,39.101126 23.6514363,39.8316299 C23.6514363,40.3813906 23.7093337,40.8232008 23.8251302,41.1570737 C24.0025206,41.6666692 24.3055581,41.9214632 24.7342516,41.9214632 C25.0791775,41.9214632 25.3538822,41.7658255 25.5583739,41.4545455 L25.5583739,41.4545455 Z M31.9388544,41.5392684 C32.144578,41.2744294 32.2474383,40.8784319 32.2474383,40.3512641 C32.2474383,40.0299428 32.2018595,39.7538114 32.1107005,39.5228618 C31.9382376,39.0785346 31.6228815,38.8563744 31.1646229,38.8563744 C30.7039005,38.8563744 30.3885444,39.0910861 30.2185453,39.5605164 C30.1273863,39.8115487 30.0818075,40.1303549 30.0818075,40.5169446 C30.0818075,40.8282246 30.1273863,41.0930597 30.2185453,41.3114578 C30.3910082,41.7281714 30.7063642,41.936525 31.1646229,41.936525 C31.4750561,41.936525 31.7331307,41.8041075 31.9388544,41.5392684 L31.9388544,41.5392684 Z M29.442466,38.3781603 L30.0891987,38.3781603 L30.0891987,38.9128564 C30.2222416,38.7296028 30.367601,38.5877717 30.5252814,38.4873588 C30.7494832,38.3367394 31.0131011,38.2614309 31.3161431,38.2614309 C31.7645467,38.2614309 32.1451913,38.4365233 32.4580884,38.7867133 C32.7709854,39.1369033 32.9274315,39.6370776 32.9274315,40.2872512 C32.9274315,41.1658642 32.7020012,41.7934354 32.2511339,42.1699839 C31.9653382,42.4084645 31.6327361,42.5277031 31.2533177,42.5277031 C30.9552032,42.5277031 30.7051357,42.4611805 30.5031077,42.3281334 C30.3848474,42.2528237 30.2530384,42.123544 30.1076768,41.9402905 L30.1076768,44 L29.442466,44 L29.442466,38.3781603 Z M33.326558,38.359333 L34.1876365,38.359333 L35.0967579,39.7789134 L36.0169662,38.359333 L36.8263061,38.3781603 L35.4921888,40.3249059 L36.8854359,42.3921463 L36.0354443,42.3921463 L35.0524105,40.8784293 L34.0989417,42.3921463 L33.2563413,42.3921463 L34.6495884,40.3249059 L33.326558,38.359333 Z" id="100-px" fill="#000000"></path>
            </g>
            <g id="Width-Snitch-2" transform="translate(63.000000, 3.000000)" fill="#BCBCBC" sketch:type="MSShapeGroup">
                <path d="M60.2360426,3.58022727 C62.0080851,3.58022727 63.4027979,4.155 64.1567872,5.30590909 L66.4562872,2.58340909 C65.2123723,1.20272727 63.5153936,0.3975 60.9149681,0.3975 C51.4529043,0.3975 45.5731277,17.3468182 41.2381915,39.8959091 C41.2381915,39.8959091 40.7851277,35.9461364 40.7851277,29.1197727 C40.7851277,22.9840909 41.1624574,14.5472727 42.5571702,4.57704545 L39.7302128,3.92522727 C35.9984681,10.9043182 32.3042553,27.9313636 30.230617,38.7838636 C29.9290213,37.5565909 29.8914894,35.8309091 29.8914894,33.7602273 C29.8914894,31.8047727 29.9290213,29.58 29.9290213,27.2788636 C29.9290213,22.8695455 29.7031596,18.0756818 28.4592447,14.0495455 C26.6872021,8.37340909 22.3529362,4.57704545 15.3411702,4.57704545 C6.25643617,4.57704545 0.225191489,10.7515909 0.225191489,19.7243182 C0.225191489,26.8193182 4.74845745,31.3827273 11.043766,31.3827273 C16.5475532,31.3827273 20.8449574,28.2381818 22.0506702,21.7186364 L18.5454574,20.8752273 C17.7164043,26.1668182 14.8512447,29.0815909 10.9311702,29.0815909 C7.38708511,29.0815909 3.8061383,26.2056818 3.8061383,19.9929545 C3.8061383,12.4384091 8.25434043,6.72477273 15.1153085,6.72477273 C24.8400957,6.72477273 26.1972766,17.3856818 26.1972766,26.5125 C26.1972766,28.2763636 26.1597447,30.0020455 26.1597447,31.7277273 C26.1597447,35.6386364 26.3105426,39.5120455 27.4036596,43.4625 L30.3814149,44.1525 C33.0957766,31.6506818 35.9984681,18.1138636 38.7496915,10.9431818 C38.7496915,10.9431818 37.129117,23.4825 37.129117,33.99 C37.129117,37.7863636 37.3549787,41.3529545 37.9206383,43.9220455 L41.6905851,44.4204545 C46.8163723,20.8370455 51.830234,3.58022727 60.2360426,3.58022727" id="Fill-1"></path>
                <path d="M52.1358511,13.0902273 C52.1358511,14.1259091 52.7015106,15.0463636 53.9078936,15.0463636 C55.566,15.0463636 56.5465213,13.4359091 56.5465213,12.0552273 C56.5465213,10.9813636 56.0183936,10.0609091 54.7744787,10.0609091 C53.1157021,10.0609091 52.1358511,11.7095455 52.1358511,13.0902273" id="Fill-2"></path>
                <path d="M90.0967021,25.5920455 C88.4385957,30.0020455 87.1946809,32.1490909 86.2141596,32.1490909 C85.8750319,32.1490909 85.4601702,31.9575 85.4601702,30.8454545 C85.4601702,27.7009091 87.9104681,23.1375 87.9104681,19.5715909 C87.9104681,17.7306818 87.043883,16.8484091 85.724234,16.8484091 C84.1036596,16.8484091 82.5581489,18.0375 81.314234,19.9547727 C81.4643617,19.2259091 81.6151596,18.5359091 81.7284255,17.8452273 C84.0654574,14.9311364 87.3079468,9.67704545 87.3079468,6.57136364 C87.3079468,5.11431818 86.5914894,4.155 84.7068511,4.155 C83.5755319,4.155 82.255883,4.88386364 81.5400957,6.53318182 C80.1118723,9.82772727 78.5878085,18.0327273 77.3237872,25.6745455 C76.1971596,28.6118182 74.7454787,32.1490909 73.7368085,32.1490909 C73.246883,32.1490909 72.9828191,31.3056818 72.9828191,29.6952273 C72.9828191,28.2763636 73.1711489,26.2820455 73.5484787,23.6365909 C74.0008723,22.0636364 74.3775319,20.5684091 74.7166596,19.1113636 C75.3955851,19.1113636 76.1120426,19.1113636 76.2628404,19.0725 L76.6012979,17.2704545 C76.2628404,17.3086364 75.7347128,17.3277273 75.1315213,17.3277273 C75.7722447,14.2602273 76.1495745,11.5909091 76.3379043,8.18181818 L73.6617447,8.18181818 C72.7944894,12.2727273 72.3045638,14.6434091 71.8146383,17.2895455 C71.023117,17.2895455 70.3817234,17.2609091 70.1183298,17.2609091 L69.854266,19.0677273 C70.0050638,19.1065909 70.6457872,19.1086364 71.5130426,19.1086364 C71.0030106,21.4097727 70.6538298,23.6659091 70.4487447,25.7079545 C69.2597872,28.8259091 68.1458936,30.96 67.2900319,30.96 C67.0259681,30.96 66.9127021,30.6531818 66.9127021,29.8479545 C66.9127021,28.5825 67.2142979,26.265 67.9307553,22.1618182 C69.5513298,15.7956818 70.9085106,7.5 71.0593085,4.77272727 L68.0815532,4.77272727 L65.4422553,19.5538636 C65.1788617,17.8281818 64.3873404,16.9356818 62.9926277,16.9356818 C60.3674043,16.9356818 58.1282234,21.1984091 57.1195532,25.6172727 C57.1175426,25.6172727 57.1135213,25.6043182 57.1115106,25.6043182 C55.4534043,30.0143182 54.2088191,32.1552273 53.2289681,32.1552273 C52.8898404,32.1552273 52.4749787,31.8484091 52.4749787,30.7363636 C52.4749787,27.5918182 53.5680957,23.1818182 54.8877447,17.0454545 L51.6834574,17.0454545 C51.042734,19.7727273 49.3839574,26.0168182 49.3839574,30.2734091 C49.3839574,32.9188636 50.062883,34.8927273 52.0983191,34.8927273 C54.1619043,34.8927273 55.4353085,32.9338636 56.5478617,30.3143182 C56.561266,33.0395455 57.4104255,35.1265909 59.2414468,35.1265909 C61.3901489,35.1265909 62.3297872,33.1084091 63.6702128,30.7684091 L63.6702128,31.1911364 C63.6702128,33.8365909 64.2546383,34.9486364 65.4610213,34.9486364 C66.8604255,34.9486364 68.4830106,33.1977273 70.2838723,29.2984091 C70.2825319,29.4034091 70.254383,29.5159091 70.254383,29.6181818 C70.254383,32.8779545 70.9212447,34.9486364 72.5800213,34.9486364 C73.9754043,34.9486364 74.9492234,34.0752273 75.9444894,32.1927273 C75.8888617,32.6952273 75.8506596,33.2175 75.8506596,33.7295455 C75.8506596,34.0745455 75.8479787,34.0909091 75.8861809,34.7727273 L78.939,34.7727273 C80.3337128,23.1818182 82.3691489,19.6172727 83.9903936,19.6172727 C84.4045851,19.6172727 84.5935851,19.9588636 84.5935851,20.3802273 C84.5935851,23.1415909 82.1432872,27.3961364 82.1432872,31.5375 C82.1432872,33.8775 83.3872021,34.95 84.7068511,34.95 C87.7978723,34.95 89.4935106,30.5011364 91.1522872,26.1293182 C91.1522872,25.8995455 90.323234,25.5920455 90.0967021,25.5920455 L90.0967021,25.5920455 Z M84.8951809,6.64840909 C85.0835106,6.64840909 85.2343085,6.84 85.2343085,7.185 C85.2343085,9.14045455 83.5004681,12.5536364 82.444883,14.6243182 C83.8020638,8.25818182 84.2919894,6.64840909 84.8951809,6.64840909 L84.8951809,6.64840909 Z M60.467266,31.8811364 C59.9391383,31.8811364 59.7132766,31.0759091 59.7132766,29.8868182 C59.7132766,26.4354545 61.560383,19.6479545 63.1809574,19.6479545 C64.0100106,19.6479545 64.3498085,20.6447727 64.3498085,22.0636364 C64.3498085,25.6302273 62.2011064,31.8811364 60.467266,31.8811364 L60.467266,31.8811364 Z" id="Fill-3"></path>
                <path d="M134.202064,17.8840909 C137.594681,13.6656818 139.479319,9.02522727 139.479319,4.88386364 C139.479319,2.81318182 138.537,0.780681818 136.124234,0.780681818 C132.769819,0.780681818 130.395255,4.57704545 130.395255,15.2761364 C130.395255,16.5034091 130.432117,17.8452273 130.508521,19.3029545 C129.188872,20.5295455 127.680894,21.6804545 126.059649,22.7154545 C125.645457,17.3086364 122.679766,12.5918182 116.42266,12.5918182 C108.205181,12.5918182 103.882979,20.07 103.882979,27.7009091 L103.882979,28.1993182 C101.87234,28.1229545 99.8744362,27.8925 97.8014681,27.4711364 L97.0783085,30.5004545 C99.5661383,30.9218182 101.956787,31.1522727 104.293819,31.1522727 C105.46267,37.7863636 109.956447,43.6540909 118.06066,43.6540909 C128.879234,43.6540909 134.34884,33.4145455 134.34884,22.0254545 C134.34884,21.5270455 134.313319,21.0286364 134.313319,20.5295455 L134.202064,17.8840909 L134.202064,17.8840909 Z M107.28766,27.4711364 C107.28766,20.7981818 110.625319,14.2793182 116.58083,14.2793182 C121.406362,14.2793182 123.989362,18.5740909 123.989362,23.2527273 L123.989362,23.9809091 C119.297872,26.4743182 113.603074,28.0459091 107.421032,28.2381818 C107.421032,27.9695455 107.28766,27.7009091 107.28766,27.4711364 L107.28766,27.4711364 Z M118.860223,41.6597727 C112.300851,41.6597727 108.682372,36.7131818 107.626787,31.0759091 C113.582968,30.6538636 118.897755,29.0052273 123.421021,26.5888636 C122.705234,29.6181818 120.933191,32.4177273 118.106234,34.1052273 L119.990872,37.1345455 C123.571819,35.1020455 125.795585,30.0784091 126.059649,25.0936364 C127.719096,24.0197727 129.225734,22.8306818 130.621117,21.6040909 C130.621117,22.1025 130.658649,22.6009091 130.658649,23.0611364 C130.658649,33.8754545 126.247979,41.6597727 118.860223,41.6597727 L118.860223,41.6597727 Z M133.825404,8.79545455 C133.825404,4.96022727 134.31533,2.92772727 136.199968,2.92772727 C137.104085,2.92772727 137.557149,3.81 137.557149,4.84568182 C137.557149,8.45045455 136.275032,12.0170455 134.051266,15.2379545 C133.900468,12.7070455 133.825404,10.5593182 133.825404,8.79545455 L133.825404,8.79545455 Z" id="Fill-4"></path>
                <path d="M153.694532,15.0463636 C155.353309,15.0463636 156.33316,13.4359091 156.33316,12.0552273 C156.33316,10.9813636 155.805702,10.0609091 154.561787,10.0609091 C152.903011,10.0609091 151.92316,11.7095455 151.92316,13.0902273 C151.92316,14.1259091 152.488149,15.0463636 153.694532,15.0463636" id="Fill-5"></path>
                <path d="M187.471245,25.5920455 C185.812468,30.0020455 184.568553,32.1490909 183.588702,32.1490909 C183.248904,32.1490909 182.834713,31.9575 182.834713,30.8454545 C182.834713,27.7009091 185.28434,23.1375 185.28434,19.5715909 C185.28434,17.7306818 184.417755,16.8484091 183.098106,16.8484091 C181.476862,16.8484091 179.932021,18.0375 178.687436,19.9547727 C178.838904,19.2259091 178.989032,18.5359091 179.102298,17.8452273 C181.44,14.9311364 184.681819,9.67704545 184.681819,6.57136364 C184.681819,5.11431818 183.964691,4.155 182.080723,4.155 C180.949404,4.155 179.629755,4.88386364 178.913968,6.53318182 C177.487085,9.82636364 175.963691,18.0245455 174.69967,25.6629545 C173.046926,29.8322727 171.024894,31.8811364 169.225372,31.8811364 C167.303202,31.8811364 166.549213,29.8868182 166.549213,27.4711364 C166.549213,23.8281818 168.245521,19.2640909 170.205894,19.2640909 C170.733351,19.2640909 170.959213,19.8013636 170.959213,20.6065909 C170.959213,21.7568182 170.469957,23.4443182 169.715968,24.7479545 L172.128064,26.0522727 C172.882053,24.4029545 173.371979,22.5238636 173.371979,20.8752273 C173.371979,18.6511364 172.505394,16.8872727 170.356691,16.8872727 C166.913809,16.8872727 164.520479,21.1711364 163.779894,25.5947727 C163.773862,25.5940909 163.764479,25.5920455 163.759787,25.5920455 C162.628468,28.545 161.158691,32.1490909 160.140638,32.1490909 C159.650713,32.1490909 159.386649,31.3056818 159.386649,29.6952273 C159.386649,28.2763636 159.575649,26.2820455 159.952309,23.6365909 C160.404702,22.0636364 160.781362,20.5684091 161.12116,19.1113636 C161.799415,19.1113636 162.515202,19.1113636 162.66667,19.0725 L163.005798,17.2704545 C162.66667,17.3086364 162.139213,17.3277273 161.535351,17.3277273 C162.176074,14.2602273 162.553404,11.5909091 162.741734,8.18181818 L160.065574,8.18181818 C159.198319,12.2727273 158.709064,14.6434091 158.218468,17.2895455 C157.426947,17.2895455 156.786223,17.2609091 156.52216,17.2609091 L156.258096,19.0677273 C156.408894,19.1065909 157.049617,19.1086364 157.916872,19.1086364 C157.40684,21.4104545 157.056989,23.6679545 156.852574,25.71 C155.217255,30.0375 153.987415,32.1490909 153.016277,32.1490909 C152.677149,32.1490909 152.262287,31.845 152.262287,30.7329545 C152.262287,27.5884091 153.355404,23.1818182 154.674383,17.0454545 L151.470766,17.0454545 C151.037809,19.0909091 150.143074,22.4059091 149.606234,25.7181818 C147.993702,29.9631818 146.777266,32.0931818 145.81484,32.0931818 C145.476383,32.0931818 145.060851,31.9295455 145.060851,30.8175 C145.060851,27.6729545 147.511819,23.1238636 147.511819,19.5572727 C147.511819,17.7163636 146.644564,16.8415909 145.325585,16.8415909 C143.742543,16.8415909 142.234564,17.8834091 141.028181,19.7236364 L141.442372,17.0454545 L138.200553,17.0454545 C137.74816,20.4545455 137.107436,23.9536364 136.353447,28.2865909 C135.298532,31.1631818 134.958734,34.7727273 134.958734,34.7727273 L138.238755,34.7727273 L139.746734,26.8268182 C140.989979,21.42 142.648755,19.6131818 143.591074,19.6131818 C144.005936,19.6131818 144.194266,19.9568182 144.194266,20.3788636 C144.194266,23.1395455 141.743968,27.3954545 141.743968,31.5368182 C141.743968,33.8761364 142.988553,34.9493182 144.307532,34.9493182 C146.451543,34.9493182 147.92467,32.8070455 149.179309,30.0361364 C149.177298,30.1520455 149.171266,30.2720455 149.171266,30.3859091 C149.171266,33.0320455 149.946702,34.9486364 151.982138,34.9486364 C154.234053,34.9486364 155.489362,32.5847727 156.829787,29.6127273 L156.829787,29.6181818 C156.829787,32.8779545 157.411532,34.9486364 159.069638,34.9486364 C161.021968,34.9486364 162.113074,33.2379545 163.620383,29.4415909 C163.842894,32.6222727 165.116968,35.1409091 167.779723,35.1409091 C170.129489,35.1409091 172.0845,33.0831818 173.540202,30.7663636 C173.365947,31.6834091 173.227883,32.7156818 173.227883,33.7295455 C173.227883,34.0745455 173.221851,34.0909091 173.260053,34.7727273 L176.312872,34.7727273 C177.707585,23.1818182 179.743021,19.6172727 181.363596,19.6172727 C181.779128,19.6172727 181.967457,19.9588636 181.967457,20.3802273 C181.967457,23.1415909 179.51716,27.3961364 179.51716,31.5375 C179.51716,33.8775 180.761074,34.95 182.080723,34.95 C185.171074,34.95 186.867383,30.5011364 188.52616,26.1293182 C188.52616,25.8995455 187.697106,25.5920455 187.471245,25.5920455 L187.471245,25.5920455 Z M182.269053,6.64840909 C182.457383,6.64840909 182.608181,6.84 182.608181,7.185 C182.608181,9.14045455 180.87434,12.5536364 179.818755,14.6243182 C181.175936,8.25818182 181.665862,6.64840909 182.269053,6.64840909 L182.269053,6.64840909 Z" id="Fill-6"></path>
            </g>
            <g id="Width-Snitch" transform="translate(62.000000, 1.000000)" fill="#000000" sketch:type="MSShapeGroup">
                <path d="M60.2360426,3.58022727 C62.0080851,3.58022727 63.4027979,4.155 64.1567872,5.30590909 L66.4562872,2.58340909 C65.2123723,1.20272727 63.5153936,0.3975 60.9149681,0.3975 C51.4529043,0.3975 45.5731277,17.3468182 41.2381915,39.8959091 C41.2381915,39.8959091 40.7851277,35.9461364 40.7851277,29.1197727 C40.7851277,22.9840909 41.1624574,14.5472727 42.5571702,4.57704545 L39.7302128,3.92522727 C35.9984681,10.9043182 32.3042553,27.9313636 30.230617,38.7838636 C29.9290213,37.5565909 29.8914894,35.8309091 29.8914894,33.7602273 C29.8914894,31.8047727 29.9290213,29.58 29.9290213,27.2788636 C29.9290213,22.8695455 29.7031596,18.0756818 28.4592447,14.0495455 C26.6872021,8.37340909 22.3529362,4.57704545 15.3411702,4.57704545 C6.25643617,4.57704545 0.225191489,10.7515909 0.225191489,19.7243182 C0.225191489,26.8193182 4.74845745,31.3827273 11.043766,31.3827273 C16.5475532,31.3827273 20.8449574,28.2381818 22.0506702,21.7186364 L18.5454574,20.8752273 C17.7164043,26.1668182 14.8512447,29.0815909 10.9311702,29.0815909 C7.38708511,29.0815909 3.8061383,26.2056818 3.8061383,19.9929545 C3.8061383,12.4384091 8.25434043,6.72477273 15.1153085,6.72477273 C24.8400957,6.72477273 26.1972766,17.3856818 26.1972766,26.5125 C26.1972766,28.2763636 26.1597447,30.0020455 26.1597447,31.7277273 C26.1597447,35.6386364 26.3105426,39.5120455 27.4036596,43.4625 L30.3814149,44.1525 C33.0957766,31.6506818 35.9984681,18.1138636 38.7496915,10.9431818 C38.7496915,10.9431818 37.129117,23.4825 37.129117,33.99 C37.129117,37.7863636 37.3549787,41.3529545 37.9206383,43.9220455 L41.6905851,44.4204545 C46.8163723,20.8370455 51.830234,3.58022727 60.2360426,3.58022727" id="Fill-1"></path>
                <path d="M52.1358511,13.0902273 C52.1358511,14.1259091 52.7015106,15.0463636 53.9078936,15.0463636 C55.566,15.0463636 56.5465213,13.4359091 56.5465213,12.0552273 C56.5465213,10.9813636 56.0183936,10.0609091 54.7744787,10.0609091 C53.1157021,10.0609091 52.1358511,11.7095455 52.1358511,13.0902273" id="Fill-2"></path>
                <path d="M90.0967021,25.5920455 C88.4385957,30.0020455 87.1946809,32.1490909 86.2141596,32.1490909 C85.8750319,32.1490909 85.4601702,31.9575 85.4601702,30.8454545 C85.4601702,27.7009091 87.9104681,23.1375 87.9104681,19.5715909 C87.9104681,17.7306818 87.043883,16.8484091 85.724234,16.8484091 C84.1036596,16.8484091 82.5581489,18.0375 81.314234,19.9547727 C81.4643617,19.2259091 81.6151596,18.5359091 81.7284255,17.8452273 C84.0654574,14.9311364 87.3079468,9.67704545 87.3079468,6.57136364 C87.3079468,5.11431818 86.5914894,4.155 84.7068511,4.155 C83.5755319,4.155 82.255883,4.88386364 81.5400957,6.53318182 C80.1118723,9.82772727 78.5878085,18.0327273 77.3237872,25.6745455 C76.1971596,28.6118182 74.7454787,32.1490909 73.7368085,32.1490909 C73.246883,32.1490909 72.9828191,31.3056818 72.9828191,29.6952273 C72.9828191,28.2763636 73.1711489,26.2820455 73.5484787,23.6365909 C74.0008723,22.0636364 74.3775319,20.5684091 74.7166596,19.1113636 C75.3955851,19.1113636 76.1120426,19.1113636 76.2628404,19.0725 L76.6012979,17.2704545 C76.2628404,17.3086364 75.7347128,17.3277273 75.1315213,17.3277273 C75.7722447,14.2602273 76.1495745,11.5909091 76.3379043,8.18181818 L73.6617447,8.18181818 C72.7944894,12.2727273 72.3045638,14.6434091 71.8146383,17.2895455 C71.023117,17.2895455 70.3817234,17.2609091 70.1183298,17.2609091 L69.854266,19.0677273 C70.0050638,19.1065909 70.6457872,19.1086364 71.5130426,19.1086364 C71.0030106,21.4097727 70.6538298,23.6659091 70.4487447,25.7079545 C69.2597872,28.8259091 68.1458936,30.96 67.2900319,30.96 C67.0259681,30.96 66.9127021,30.6531818 66.9127021,29.8479545 C66.9127021,28.5825 67.2142979,26.265 67.9307553,22.1618182 C69.5513298,15.7956818 70.9085106,7.5 71.0593085,4.77272727 L68.0815532,4.77272727 L65.4422553,19.5538636 C65.1788617,17.8281818 64.3873404,16.9356818 62.9926277,16.9356818 C60.3674043,16.9356818 58.1282234,21.1984091 57.1195532,25.6172727 C57.1175426,25.6172727 57.1135213,25.6043182 57.1115106,25.6043182 C55.4534043,30.0143182 54.2088191,32.1552273 53.2289681,32.1552273 C52.8898404,32.1552273 52.4749787,31.8484091 52.4749787,30.7363636 C52.4749787,27.5918182 53.5680957,23.1818182 54.8877447,17.0454545 L51.6834574,17.0454545 C51.042734,19.7727273 49.3839574,26.0168182 49.3839574,30.2734091 C49.3839574,32.9188636 50.062883,34.8927273 52.0983191,34.8927273 C54.1619043,34.8927273 55.4353085,32.9338636 56.5478617,30.3143182 C56.561266,33.0395455 57.4104255,35.1265909 59.2414468,35.1265909 C61.3901489,35.1265909 62.3297872,33.1084091 63.6702128,30.7684091 L63.6702128,31.1911364 C63.6702128,33.8365909 64.2546383,34.9486364 65.4610213,34.9486364 C66.8604255,34.9486364 68.4830106,33.1977273 70.2838723,29.2984091 C70.2825319,29.4034091 70.254383,29.5159091 70.254383,29.6181818 C70.254383,32.8779545 70.9212447,34.9486364 72.5800213,34.9486364 C73.9754043,34.9486364 74.9492234,34.0752273 75.9444894,32.1927273 C75.8888617,32.6952273 75.8506596,33.2175 75.8506596,33.7295455 C75.8506596,34.0745455 75.8479787,34.0909091 75.8861809,34.7727273 L78.939,34.7727273 C80.3337128,23.1818182 82.3691489,19.6172727 83.9903936,19.6172727 C84.4045851,19.6172727 84.5935851,19.9588636 84.5935851,20.3802273 C84.5935851,23.1415909 82.1432872,27.3961364 82.1432872,31.5375 C82.1432872,33.8775 83.3872021,34.95 84.7068511,34.95 C87.7978723,34.95 89.4935106,30.5011364 91.1522872,26.1293182 C91.1522872,25.8995455 90.323234,25.5920455 90.0967021,25.5920455 L90.0967021,25.5920455 Z M84.8951809,6.64840909 C85.0835106,6.64840909 85.2343085,6.84 85.2343085,7.185 C85.2343085,9.14045455 83.5004681,12.5536364 82.444883,14.6243182 C83.8020638,8.25818182 84.2919894,6.64840909 84.8951809,6.64840909 L84.8951809,6.64840909 Z M60.467266,31.8811364 C59.9391383,31.8811364 59.7132766,31.0759091 59.7132766,29.8868182 C59.7132766,26.4354545 61.560383,19.6479545 63.1809574,19.6479545 C64.0100106,19.6479545 64.3498085,20.6447727 64.3498085,22.0636364 C64.3498085,25.6302273 62.2011064,31.8811364 60.467266,31.8811364 L60.467266,31.8811364 Z" id="Fill-3"></path>
                <path d="M134.202064,17.8840909 C137.594681,13.6656818 139.479319,9.02522727 139.479319,4.88386364 C139.479319,2.81318182 138.537,0.780681818 136.124234,0.780681818 C132.769819,0.780681818 130.395255,4.57704545 130.395255,15.2761364 C130.395255,16.5034091 130.432117,17.8452273 130.508521,19.3029545 C129.188872,20.5295455 127.680894,21.6804545 126.059649,22.7154545 C125.645457,17.3086364 122.679766,12.5918182 116.42266,12.5918182 C108.205181,12.5918182 103.882979,20.07 103.882979,27.7009091 L103.882979,28.1993182 C101.87234,28.1229545 99.8744362,27.8925 97.8014681,27.4711364 L97.0783085,30.5004545 C99.5661383,30.9218182 101.956787,31.1522727 104.293819,31.1522727 C105.46267,37.7863636 109.956447,43.6540909 118.06066,43.6540909 C128.879234,43.6540909 134.34884,33.4145455 134.34884,22.0254545 C134.34884,21.5270455 134.313319,21.0286364 134.313319,20.5295455 L134.202064,17.8840909 L134.202064,17.8840909 Z M107.28766,27.4711364 C107.28766,20.7981818 110.625319,14.2793182 116.58083,14.2793182 C121.406362,14.2793182 123.989362,18.5740909 123.989362,23.2527273 L123.989362,23.9809091 C119.297872,26.4743182 113.603074,28.0459091 107.421032,28.2381818 C107.421032,27.9695455 107.28766,27.7009091 107.28766,27.4711364 L107.28766,27.4711364 Z M118.860223,41.6597727 C112.300851,41.6597727 108.682372,36.7131818 107.626787,31.0759091 C113.582968,30.6538636 118.897755,29.0052273 123.421021,26.5888636 C122.705234,29.6181818 120.933191,32.4177273 118.106234,34.1052273 L119.990872,37.1345455 C123.571819,35.1020455 125.795585,30.0784091 126.059649,25.0936364 C127.719096,24.0197727 129.225734,22.8306818 130.621117,21.6040909 C130.621117,22.1025 130.658649,22.6009091 130.658649,23.0611364 C130.658649,33.8754545 126.247979,41.6597727 118.860223,41.6597727 L118.860223,41.6597727 Z M133.825404,8.79545455 C133.825404,4.96022727 134.31533,2.92772727 136.199968,2.92772727 C137.104085,2.92772727 137.557149,3.81 137.557149,4.84568182 C137.557149,8.45045455 136.275032,12.0170455 134.051266,15.2379545 C133.900468,12.7070455 133.825404,10.5593182 133.825404,8.79545455 L133.825404,8.79545455 Z" id="Fill-4"></path>
                <path d="M153.694532,15.0463636 C155.353309,15.0463636 156.33316,13.4359091 156.33316,12.0552273 C156.33316,10.9813636 155.805702,10.0609091 154.561787,10.0609091 C152.903011,10.0609091 151.92316,11.7095455 151.92316,13.0902273 C151.92316,14.1259091 152.488149,15.0463636 153.694532,15.0463636" id="Fill-5"></path>
                <path d="M187.471245,25.5920455 C185.812468,30.0020455 184.568553,32.1490909 183.588702,32.1490909 C183.248904,32.1490909 182.834713,31.9575 182.834713,30.8454545 C182.834713,27.7009091 185.28434,23.1375 185.28434,19.5715909 C185.28434,17.7306818 184.417755,16.8484091 183.098106,16.8484091 C181.476862,16.8484091 179.932021,18.0375 178.687436,19.9547727 C178.838904,19.2259091 178.989032,18.5359091 179.102298,17.8452273 C181.44,14.9311364 184.681819,9.67704545 184.681819,6.57136364 C184.681819,5.11431818 183.964691,4.155 182.080723,4.155 C180.949404,4.155 179.629755,4.88386364 178.913968,6.53318182 C177.487085,9.82636364 175.963691,18.0245455 174.69967,25.6629545 C173.046926,29.8322727 171.024894,31.8811364 169.225372,31.8811364 C167.303202,31.8811364 166.549213,29.8868182 166.549213,27.4711364 C166.549213,23.8281818 168.245521,19.2640909 170.205894,19.2640909 C170.733351,19.2640909 170.959213,19.8013636 170.959213,20.6065909 C170.959213,21.7568182 170.469957,23.4443182 169.715968,24.7479545 L172.128064,26.0522727 C172.882053,24.4029545 173.371979,22.5238636 173.371979,20.8752273 C173.371979,18.6511364 172.505394,16.8872727 170.356691,16.8872727 C166.913809,16.8872727 164.520479,21.1711364 163.779894,25.5947727 C163.773862,25.5940909 163.764479,25.5920455 163.759787,25.5920455 C162.628468,28.545 161.158691,32.1490909 160.140638,32.1490909 C159.650713,32.1490909 159.386649,31.3056818 159.386649,29.6952273 C159.386649,28.2763636 159.575649,26.2820455 159.952309,23.6365909 C160.404702,22.0636364 160.781362,20.5684091 161.12116,19.1113636 C161.799415,19.1113636 162.515202,19.1113636 162.66667,19.0725 L163.005798,17.2704545 C162.66667,17.3086364 162.139213,17.3277273 161.535351,17.3277273 C162.176074,14.2602273 162.553404,11.5909091 162.741734,8.18181818 L160.065574,8.18181818 C159.198319,12.2727273 158.709064,14.6434091 158.218468,17.2895455 C157.426947,17.2895455 156.786223,17.2609091 156.52216,17.2609091 L156.258096,19.0677273 C156.408894,19.1065909 157.049617,19.1086364 157.916872,19.1086364 C157.40684,21.4104545 157.056989,23.6679545 156.852574,25.71 C155.217255,30.0375 153.987415,32.1490909 153.016277,32.1490909 C152.677149,32.1490909 152.262287,31.845 152.262287,30.7329545 C152.262287,27.5884091 153.355404,23.1818182 154.674383,17.0454545 L151.470766,17.0454545 C151.037809,19.0909091 150.143074,22.4059091 149.606234,25.7181818 C147.993702,29.9631818 146.777266,32.0931818 145.81484,32.0931818 C145.476383,32.0931818 145.060851,31.9295455 145.060851,30.8175 C145.060851,27.6729545 147.511819,23.1238636 147.511819,19.5572727 C147.511819,17.7163636 146.644564,16.8415909 145.325585,16.8415909 C143.742543,16.8415909 142.234564,17.8834091 141.028181,19.7236364 L141.442372,17.0454545 L138.200553,17.0454545 C137.74816,20.4545455 137.107436,23.9536364 136.353447,28.2865909 C135.298532,31.1631818 134.958734,34.7727273 134.958734,34.7727273 L138.238755,34.7727273 L139.746734,26.8268182 C140.989979,21.42 142.648755,19.6131818 143.591074,19.6131818 C144.005936,19.6131818 144.194266,19.9568182 144.194266,20.3788636 C144.194266,23.1395455 141.743968,27.3954545 141.743968,31.5368182 C141.743968,33.8761364 142.988553,34.9493182 144.307532,34.9493182 C146.451543,34.9493182 147.92467,32.8070455 149.179309,30.0361364 C149.177298,30.1520455 149.171266,30.2720455 149.171266,30.3859091 C149.171266,33.0320455 149.946702,34.9486364 151.982138,34.9486364 C154.234053,34.9486364 155.489362,32.5847727 156.829787,29.6127273 L156.829787,29.6181818 C156.829787,32.8779545 157.411532,34.9486364 159.069638,34.9486364 C161.021968,34.9486364 162.113074,33.2379545 163.620383,29.4415909 C163.842894,32.6222727 165.116968,35.1409091 167.779723,35.1409091 C170.129489,35.1409091 172.0845,33.0831818 173.540202,30.7663636 C173.365947,31.6834091 173.227883,32.7156818 173.227883,33.7295455 C173.227883,34.0745455 173.221851,34.0909091 173.260053,34.7727273 L176.312872,34.7727273 C177.707585,23.1818182 179.743021,19.6172727 181.363596,19.6172727 C181.779128,19.6172727 181.967457,19.9588636 181.967457,20.3802273 C181.967457,23.1415909 179.51716,27.3961364 179.51716,31.5375 C179.51716,33.8775 180.761074,34.95 182.080723,34.95 C185.171074,34.95 186.867383,30.5011364 188.52616,26.1293182 C188.52616,25.8995455 187.697106,25.5920455 187.471245,25.5920455 L187.471245,25.5920455 Z M182.269053,6.64840909 C182.457383,6.64840909 182.608181,6.84 182.608181,7.185 C182.608181,9.14045455 180.87434,12.5536364 179.818755,14.6243182 C181.175936,8.25818182 181.665862,6.64840909 182.269053,6.64840909 L182.269053,6.64840909 Z" id="Fill-6"></path>
            </g>
        </g>
    </g>
</svg>