<?xml version="1.0" encoding="UTF-8"?>
<svg width="270px" height="69px" viewBox="0 0 270 69" version="1.1" xmlns="http://www.w3.org/2000/svg" xmlns:xlink="http://www.w3.org/1999/xlink">
    <!-- Generator: Sketch 46.2 (44496) - http://www.bohemiancoding.com/sketch -->
    <title>project-asteroids</title>
    <desc>Created with Sketch.</desc>
    <defs>
        <linearGradient x1="50%" y1="2.60283801%" x2="50%" y2="100%" id="linearGradient-1">
            <stop stop-color="#75AF9E" offset="0%"></stop>
            <stop stop-color="#084E62" offset="100%"></stop>
        </linearGradient>
        <linearGradient x1="84.1954592%" y1="14.3193354%" x2="0%" y2="100%" id="linearGradient-2">
            <stop stop-color="#FAFBEC" stop-opacity="0" offset="0%"></stop>
            <stop stop-color="#F4F5D5" offset="100%"></stop>
        </linearGradient>
        <linearGradient x1="0%" y1="50%" x2="21.0715565%" y2="50%" id="linearGradient-3">
            <stop stop-color="#75AF9E" offset="0%"></stop>
            <stop stop-color="#94C5B4" stop-opacity="0" offset="100%"></stop>
        </linearGradient>
        <linearGradient x1="0%" y1="100%" x2="100%" y2="0%" id="linearGradient-4">
            <stop stop-color="#FFFFFF" stop-opacity="0.5" offset="0%"></stop>
            <stop stop-color="#000000" stop-opacity="0.5" offset="100%"></stop>
        </linearGradient>
        <ellipse id="path-5" cx="52.516129" cy="51.8662053" rx="1.68548387" ry="1.68742791"></ellipse>
        <linearGradient x1="71.9753994%" y1="27.5582555%" x2="0%" y2="100%" id="linearGradient-6">
            <stop stop-color="#FAFBEC" stop-opacity="0" offset="0%"></stop>
            <stop stop-color="#F4F5D5" offset="100%"></stop>
        </linearGradient>
        <linearGradient x1="2.84179142%" y1="50%" x2="38.4541505%" y2="50%" id="linearGradient-7">
            <stop stop-color="#75AF9E" offset="0%"></stop>
            <stop stop-color="#94C5B4" stop-opacity="0" offset="100%"></stop>
        </linearGradient>
        <ellipse id="path-8" cx="24.5725806" cy="33.2156863" rx="4.16935484" ry="4.17416378"></ellipse>
        <linearGradient x1="62.8744828%" y1="36.3116837%" x2="0%" y2="100%" id="linearGradient-9">
            <stop stop-color="#F9FAE7" stop-opacity="0.216601429" offset="0%"></stop>
            <stop stop-color="#F4F5D5" offset="100%"></stop>
        </linearGradient>
        <linearGradient x1="2.84179142%" y1="50%" x2="58.9980798%" y2="50%" id="linearGradient-10">
            <stop stop-color="#75AF9E" offset="0%"></stop>
            <stop stop-color="#94C5B4" stop-opacity="0" offset="100%"></stop>
        </linearGradient>
        <ellipse id="path-11" cx="24.9274194" cy="52.0438293" rx="8.33870968" ry="8.34832757"></ellipse>
    </defs>
    <g id="Page-1" stroke="none" stroke-width="1" fill="none" fill-rule="evenodd">
        <g id="project-asteroids">
            <g id="Group" transform="translate(203.000000, -9.000000)">
                <ellipse id="background--round" fill="url(#linearGradient-1)" cx="33.266129" cy="43.6955017" rx="33.266129" ry="33.3044983"></ellipse>
                <path d="M54.515768,53.4295114 L70.7024823,37.242797 L67.1234112,33.6637259 L50.7487433,50.0383938 L50.7581257,50.0477761 C50.309202,50.5045106 50.0322581,51.1309756 50.0322581,51.8221557 C50.0322581,53.2198699 51.1647788,54.3529412 52.561814,54.3529412 C53.3487908,54.3529412 54.0518296,53.9933853 54.515768,53.4295114 Z" id="asteroid-3__tail" fill="url(#linearGradient-2)"></path>
                <rect id="asteroid-3__halo" fill="url(#linearGradient-3)" opacity="0.5" transform="translate(61.120968, 43.162630) rotate(-45.000000) translate(-61.120968, -43.162630) " x="48.8790323" y="41.4752018" width="24.483871" height="3.37485582"></rect>
                <g id="asteroid-3">
                    <use fill="#FFFFFF" xlink:href="#path-5"></use>
                    <use fill="url(#linearGradient-4)" xlink:href="#path-5"></use>
                    <use fill="#F56A40" style="mix-blend-mode: multiply;" xlink:href="#path-5"></use>
                </g>
                <path d="M52.4102667,50.4452134 C51.5743599,50.5209857 50.9193548,51.2261516 50.9193548,52.0848647 C50.9193548,52.9941422 51.6537697,53.7312572 52.5597163,53.7312572 C52.945664,53.7312572 53.3004806,53.5974784 53.5806452,53.3736016 C53.5459481,53.3060487 53.4834348,53.2608593 53.4120823,53.2608593 L52.7571815,53.2608593 C52.6474186,53.2608593 52.5597163,53.1555572 52.5597163,53.0256604 C52.5597163,52.8960279 52.6481179,52.7904615 52.7571669,52.7904615 L52.8215669,52.7904615 C52.9304596,52.7904615 53.0190175,52.6851593 53.0190175,52.5552625 C53.0190175,52.4256301 52.9308469,52.3200636 52.8220831,52.3200636 L51.7724338,52.3200636 C51.663625,52.3200636 51.5754994,52.2147615 51.5754994,52.0848647 C51.5754994,51.9552322 51.6639011,51.8496657 51.77295,51.8496657 L51.83735,51.8496657 C51.9462427,51.8496657 52.0348006,51.7443636 52.0348006,51.6144668 C52.0348006,51.4848343 51.9466219,51.3792679 51.837848,51.3792679 L51.7068376,51.3792679 C51.597744,51.3792679 51.509885,51.2739657 51.509885,51.1440689 C51.509885,51.0144365 51.5982931,50.90887 51.7073502,50.90887 L52.362251,50.90887 C52.4720139,50.90887 52.5597163,50.8035679 52.5597163,50.6736711 C52.5597163,50.5633244 52.4960553,50.4704156 52.4102667,50.4452134 Z" id="asteroid-3__flames" fill="#F56A40" transform="translate(52.250000, 52.088235) rotate(-45.000000) translate(-52.250000, -52.088235) "></path>
                <path d="M20.1979995,28.8377844 C19.0643366,29.9701713 18.3629032,31.5360901 18.3629032,33.2660264 C18.3629032,36.7207396 21.1602751,39.5213379 24.6110082,39.5213379 C26.4430324,39.5213379 28.0908976,38.73195 29.2337652,37.4743825 L55.4486442,11.2595036 L46.6022978,2.41315713 L20.187835,28.8276199 L20.1979995,28.8377844 Z" id="asteroid-2__tail" fill="url(#linearGradient-6)"></path>
                <rect id="asteroid-2__halo" fill="url(#linearGradient-7)" opacity="0.5" transform="translate(37.879032, 19.982699) rotate(-45.000000) translate(-37.879032, -19.982699) " x="19.1612903" y="15.8085352" width="37.4354839" height="8.34832757"></rect>
                <g id="asteroid-2">
                    <use fill="#FFFFFF" xlink:href="#path-8"></use>
                    <use fill="url(#linearGradient-4)" xlink:href="#path-8"></use>
                    <use fill="#F56A40" style="mix-blend-mode: multiply;" xlink:href="#path-8"></use>
                </g>
                <path d="M27.3230105,30.4710237 C26.6304962,29.9631833 25.7755378,29.6632065 24.8504006,29.6632065 C22.5412728,29.6632065 20.6693548,31.5320432 20.6693548,33.8373702 C20.6693548,36.1426972 22.5412728,38.011534 24.8504006,38.011534 C25.3548865,38.011534 25.8385039,37.9223322 26.2862916,37.7588652 C26.3305267,37.6752846 26.3555771,37.5799875 26.3555771,37.4788397 L26.3555771,37.4756424 C26.3555771,37.1445582 26.0871803,36.8761615 25.7560961,36.8761615 L22.9412541,36.8761615 C22.6101699,36.8761615 22.3417731,36.6077647 22.3417731,36.2766805 L22.3417731,36.2734833 C22.3417731,35.9423991 22.6101699,35.6740023 22.9412541,35.6740023 L22.9412541,35.6740023 L23.4147105,35.6740023 C23.7457947,35.6740023 24.0141914,35.4056055 24.0141914,35.0745213 L24.0141914,35.0713241 C24.0141914,34.7402399 23.7457947,34.4718431 23.4147105,34.4718431 L23.4095312,34.4718431 L23.4095312,34.4718431 C23.078447,34.4718431 22.8100503,34.2034464 22.8100503,33.8723622 L22.8100503,33.8691649 L22.8100503,33.8691649 C22.8100503,33.5380807 23.078447,33.269684 23.4095312,33.269684 L25.7560961,33.269684 L25.7560961,33.269684 C26.0871803,33.269684 26.3555771,33.0012872 26.3555771,32.670203 L26.3555771,32.6670058 C26.3555771,32.3359216 26.0871803,32.0675248 25.7560961,32.0675248 L25.4833299,32.0675248 C25.1522457,32.0675248 24.883849,31.799128 24.883849,31.4680438 L24.883849,31.4648466 L24.883849,31.4648466 C24.883849,31.1337624 25.1522457,30.8653656 25.4833299,30.8653656 L26.7595471,30.8653656 C27.0185755,30.8653656 27.2392334,30.7010816 27.3230105,30.4710237 Z" id="asterois-2__flames" fill="#F56A40" transform="translate(23.995968, 33.837370) rotate(-45.000000) translate(-23.995968, -33.837370) "></path>
                <path d="M16.1511798,43.2585103 C13.8998989,45.5176092 12.5080645,48.6347226 12.5080645,52.0771233 C12.5080645,58.9747165 18.0961091,64.5663206 24.9893114,64.5663206 C28.7429529,64.5663206 32.1095805,62.9082618 34.397631,60.2841478 L77.0056218,17.676157 L59.3432296,0.013764816 L16.124832,43.2321624 L16.1511798,43.2585103 Z" id="asteroid-1__tail" fill="url(#linearGradient-9)"></path>
                <rect id="asyeroid-1__halo" fill="url(#linearGradient-10)" opacity="0.5" transform="translate(45.995968, 30.906574) rotate(-45.000000) translate(-45.995968, -30.906574) " x="16.1451613" y="22.5582468" width="59.7016129" height="16.6966551"></rect>
                <g id="asteroid-1">
                    <use fill="#FFFFFF" xlink:href="#path-11"></use>
                    <use fill="url(#linearGradient-4)" xlink:href="#path-11"></use>
                    <use fill="#F56A40" style="mix-blend-mode: multiply;" xlink:href="#path-11"></use>
                </g>
                <path d="M24.9972289,62.2572088 C20.7322745,61.884461 17.3870968,58.3162006 17.3870968,53.96936 C17.3870968,49.374354 21.1251368,45.6493656 25.7362429,45.6493656 C26.3625106,45.6493656 26.9726735,45.718078 27.5595538,45.84835 C27.7916148,46.0176625 27.9404175,46.2796962 27.9404175,46.5738095 C27.9404175,47.0844779 27.4916757,47.4982533 26.9381246,47.4982533 L24.1336021,47.4982533 C23.57942,47.4982533 23.1313093,47.9121409 23.1313093,48.4226971 C23.1313093,48.9333656 23.5797172,49.3471409 24.1328563,49.3471409 L24.7346959,49.3471409 C25.2876978,49.3471409 25.7362429,49.7610285 25.7362429,50.2715847 C25.7362429,50.7822532 25.2874248,51.1960286 24.7337796,51.1960286 L22.5975297,51.1960286 C22.0441521,51.1960286 21.5950664,51.6099162 21.5950664,52.1204724 C21.5950664,52.6311409 22.0433488,53.0449162 22.5963332,53.0449162 L27.7406687,53.0449162 C28.293514,53.0449162 28.7419355,53.4588038 28.7419355,53.96936 C28.7419355,54.4800285 28.2932487,54.8938039 27.7397656,54.8938039 L20.5934412,54.8938039 C20.040376,54.8938039 19.5912713,55.3076915 19.5912713,55.8182477 C19.5912713,56.3289162 20.0397904,56.7426915 20.5930667,56.7426915 L21.6619618,56.7426915 C22.2153472,56.7426915 22.6637571,57.1565791 22.6637571,57.6671353 C22.6637571,58.1778038 22.2154165,58.5915792 21.6623603,58.5915792 L21.9285316,58.5915792 C21.375487,58.5915792 20.9271347,59.0054668 20.9271347,59.516023 C20.9271347,60.0266915 21.3758765,60.4404668 21.9294275,60.4404668 L24.7339501,60.4404668 C25.2881322,60.4404668 25.7362429,60.8543544 25.7362429,61.3649106 C25.7362429,61.79162 25.4230447,62.1506775 24.9972289,62.2572088 Z" id="asteroid-1__flames" fill="#F56A40" transform="translate(23.064516, 53.953287) rotate(-45.000000) translate(-23.064516, -53.953287) "></path>
            </g>
            <g id="Group-2" transform="translate(0.000000, 5.000000)" font-family="MuseoSansRounded-500, Museo Sans Rounded" font-weight="normal">
                <text id="Asteroids" font-size="47.3684211" fill="#084E62">
                    <tspan x="1.00714286" y="45">Asteroids</tspan>
                </text>
                <text id="by-Space-Nomads" font-size="9.47368421" fill="#75AF9E">
                    <tspan x="118.861579" y="57.6315789">by Space Nomads</tspan>
                </text>
            </g>
        </g>
    </g>
</svg>