<?xml version="1.0" encoding="UTF-8" standalone="no"?>
<svg width="260px" height="69px" viewBox="0 0 260 69" version="1.1" xmlns="http://www.w3.org/2000/svg" xmlns:xlink="http://www.w3.org/1999/xlink" xmlns:sketch="http://www.bohemiancoding.com/sketch/ns">
    <!-- Generator: Sketch 3.2.2 (9983) - http://www.bohemiancoding.com/sketch -->
    <title>project-humanstxt</title>
    <desc>Created with Sketch.</desc>
    <defs></defs>
    <g id="Page-1" stroke="none" stroke-width="1" fill="none" fill-rule="evenodd" sketch:type="MSPage">
        <g id="project-humanstxt" sketch:type="MSLayerGroup">
            <path d="M17.3743709,64.8712125 L18.8190066,64.8712125 L21.3243046,56.329875 C21.4413907,55.9107 21.5429801,55.5130875 21.6264901,55.136175 C21.7108609,54.7592625 21.7556291,54.5583 21.7590728,54.532425 L21.7943709,54.532425 C21.7978146,54.5591625 21.8382781,54.763575 21.9157616,55.1439375 C21.993245,55.5268875 22.0862252,55.9270875 22.194702,56.347125 L24.4744371,64.8712125 L25.9182119,64.8712125 L28.7377483,54.0796125 C28.7807947,53.9174625 28.8548344,53.8131 28.9615894,53.763075 C29.0674834,53.7139125 29.2078146,53.6897625 29.3817219,53.6958 L29.5728477,53.6958 L29.5728477,52.6168125 L29.0330464,52.6168125 C28.6043046,52.6047375 28.2745695,52.6668375 28.0455629,52.8013875 C27.8165563,52.9359375 27.6529801,53.211075 27.5539735,53.625075 L25.4309272,62.0836125 C25.3508609,62.4130875 25.2854305,62.708925 25.2329139,62.97285 C25.1821192,63.236775 25.1545695,63.3765 25.1528477,63.392025 L25.1175497,63.392025 C25.1166887,63.3765 25.0925828,63.236775 25.0435099,62.97285 C24.9944371,62.708925 24.9272848,62.4130875 24.8394702,62.0836125 L22.3858278,52.6685625 L21.1848344,52.6685625 L18.4884106,62.0836125 C18.3988742,62.4130875 18.3213907,62.708925 18.2576821,62.97285 C18.1931126,63.236775 18.1595364,63.3765 18.1578146,63.392025 L18.1225166,63.392025 C18.1207947,63.3765 18.0966887,63.236775 18.0510596,62.97285 C18.0037086,62.708925 17.9408609,62.4130875 17.8616556,62.0836125 L15.7386093,53.625075 C15.6396026,53.211075 15.4760265,52.9359375 15.2470199,52.8013875 C15.0171523,52.6668375 14.6882781,52.6047375 14.2595364,52.6168125 L13.7188742,52.6168125 L13.7188742,53.6958 L13.9289404,53.6958 C14.0950993,53.6897625 14.2319868,53.7139125 14.3413245,53.763075 C14.4515232,53.8131 14.5290066,53.9174625 14.572053,54.0796125 L17.3743709,64.8712125" id="Fill-1" fill="#5D5D5D" sketch:type="MSShapeGroup"></path>
            <path d="M37.3754305,57.9211875 C37.0999338,57.313125 36.6901325,56.8258125 36.1451656,56.4583875 C35.6019205,56.091825 34.9260927,55.9038 34.118543,55.8943125 C33.3239073,55.8977625 32.6033113,56.0823375 31.9541722,56.4480375 C31.3050331,56.8137375 30.786755,57.3381375 30.3993377,58.0229625 C30.0119205,58.7095125 29.8121854,59.5323375 29.8035762,60.49575 C29.8319868,61.8697125 30.2710596,62.9719875 31.1190728,63.802575 C31.9662252,64.6323 33.0535762,65.058375 34.379404,65.0808 C35.0449007,65.065275 35.62,64.9574625 36.104702,64.7565 C36.5902649,64.554675 36.9656291,64.35285 37.2299338,64.15275 C37.4950993,63.950925 37.629404,63.8431125 37.6328477,63.8275875 L37.0594702,62.9374875 C37.0568874,62.950425 36.9484106,63.0444375 36.7340397,63.2178 C36.5196689,63.392025 36.2166225,63.5653875 35.8249007,63.73875 C35.4323179,63.912975 34.9682781,64.006125 34.4319205,64.019925 C33.5003974,64.0121625 32.712649,63.7077 32.0678146,63.105675 C31.4238411,62.5027875 31.0794702,61.6446 31.0364238,60.53025 L37.7542384,60.53025 C37.7559603,60.518175 37.7611258,60.445725 37.771457,60.3129 C37.7817881,60.1792125 37.7878146,60.0550125 37.7886755,59.938575 C37.7886755,59.202 37.6509272,58.5301125 37.3754305,57.9211875 M31.0889404,59.5909875 C31.2533775,58.7077875 31.6115232,58.0359 32.1633775,57.5779125 C32.7160927,57.119925 33.3609272,56.888775 34.1004636,56.8861875 C34.7633775,56.885325 35.3272848,57.109575 35.7939073,57.558075 C36.2613907,58.0057125 36.5196689,58.6845 36.5730464,59.5909875 L31.0889404,59.5909875" id="Fill-2" fill="#5D5D5D" sketch:type="MSShapeGroup"></path>
            <path d="M54.3692715,63.7930875 C54.2056954,63.7965375 54.0756954,63.774975 53.9766887,63.7258125 C53.879404,63.674925 53.8019205,63.5697 53.7425166,63.4084125 L49.7409272,52.6168125 L48.4357616,52.6168125 L44.4333113,63.4084125 C44.3730464,63.5697 44.2929801,63.674925 44.1922517,63.7258125 C44.0906623,63.774975 43.9623841,63.7965375 43.8065563,63.7930875 L43.5809934,63.7930875 L43.5809934,64.8712125 L44.1552318,64.8712125 C44.5745033,64.8815625 44.8827152,64.8177375 45.0772848,64.6797375 C45.2709934,64.5426 45.4388742,64.27005 45.5817881,63.86295 L46.6605298,60.9658125 L51.515298,60.9658125 L52.5768212,63.86295 C52.7188742,64.27005 52.8901987,64.5426 53.0907947,64.6797375 C53.2888079,64.8177375 53.5996026,64.8815625 54.020596,64.8712125 L54.5776159,64.8712125 L54.5776159,63.7930875 L54.3692715,63.7930875 L54.3692715,63.7930875 Z M46.9911258,59.9049375 L48.5924503,55.5268875 C48.6630464,55.3250625 48.7353642,55.1034 48.8059603,54.860175 C48.8774172,54.615225 48.938543,54.40305 48.985894,54.2227875 C49.0349669,54.042525 49.0599338,53.94765 49.0616556,53.9398875 L49.0960927,53.9398875 C49.0986755,53.94765 49.1245033,54.042525 49.1718543,54.2227875 C49.2209272,54.40305 49.2811921,54.615225 49.3509272,54.860175 C49.423245,55.1034 49.4955629,55.3250625 49.5661589,55.5268875 L51.184702,59.9049375 L46.9911258,59.9049375 L46.9911258,59.9049375 Z" id="Fill-3" fill="#5D5D5D" sketch:type="MSShapeGroup"></path>
            <path d="M56.3390728,64.8712125 L57.5202649,64.8712125 L57.5202649,61.1754 C57.519404,60.894225 57.5383444,60.6096 57.5770861,60.3206625 C57.6149669,60.031725 57.6778146,59.7479625 57.7639073,59.4667875 C57.9593377,58.8078375 58.2761589,58.268775 58.7143709,57.8496 C59.1517219,57.430425 59.682053,57.213075 60.3045033,57.199275 C60.4215894,57.201 60.5223179,57.2070375 60.6066887,57.216525 C60.6910596,57.2277375 60.7358278,57.2329125 60.7401325,57.2355 L60.7401325,56.0694 C60.7358278,56.0668125 60.6876159,56.0581875 60.5963576,56.0426625 C60.5050993,56.0271375 60.3957616,56.0185125 60.2700662,56.0167875 C59.5787417,56.03145 58.9976159,56.2548375 58.5275497,56.68695 C58.0566225,57.119925 57.7148344,57.67365 57.5021854,58.3507125 L57.4677483,58.3507125 C57.4694702,58.3464 57.4746358,58.28085 57.4858278,58.15665 C57.495298,58.0315875 57.5013245,57.8763375 57.5021854,57.6883125 L57.5021854,57.0949125 C57.5047682,56.74905 57.4178146,56.4972 57.2464901,56.3376375 C57.0743046,56.1806625 56.8065563,56.1013125 56.444106,56.1039 L55.2250331,56.1039 L55.2250331,57.130275 L55.9559603,57.130275 C56.0790728,57.130275 56.1729139,57.1639125 56.2383444,57.230325 C56.3046358,57.2967375 56.3382119,57.39075 56.3390728,57.5140875 L56.3390728,64.8712125" id="Fill-4" fill="#5D5D5D" sketch:type="MSShapeGroup"></path>
            <path d="M69.0971523,57.9211875 C68.8216556,57.313125 68.4118543,56.8258125 67.8677483,56.4583875 C67.3236424,56.091825 66.6469536,55.9038 65.8402649,55.8943125 C65.0464901,55.8977625 64.3250331,56.0823375 63.675894,56.4480375 C63.0284768,56.8137375 62.5093377,57.3381375 62.1219205,58.0229625 C61.7336424,58.7095125 61.5356291,59.5323375 61.525298,60.49575 C61.5545695,61.8697125 61.9919205,62.9719875 62.8407947,63.802575 C63.6888079,64.6323 64.7761589,65.058375 66.1011258,65.0808 C66.7666225,65.065275 67.3417219,64.9574625 67.8264238,64.7565 C68.3128477,64.554675 68.687351,64.35285 68.9525166,64.15275 C69.2176821,63.950925 69.3519868,63.8431125 69.3545695,63.8275875 L68.782053,62.9374875 C68.7794702,62.950425 68.6709934,63.0444375 68.4566225,63.2178 C68.2422517,63.392025 67.9392053,63.5653875 67.5457616,63.73875 C67.1557616,63.912975 66.69,64.006125 66.1536424,64.019925 C65.2229801,64.0121625 64.4343709,63.7077 63.7912583,63.105675 C63.1455629,62.5027875 62.802053,61.6446 62.7581457,60.53025 L69.4759603,60.53025 C69.4776821,60.518175 69.4837086,60.445725 69.4931788,60.3129 C69.5043709,60.1792125 69.5095364,60.0550125 69.5112583,59.938575 C69.5103974,59.202 69.372649,58.5301125 69.0971523,57.9211875 M62.8106623,59.5909875 C62.9759603,58.7077875 63.334106,58.0359 63.8859603,57.5779125 C64.4386755,57.119925 65.0835099,56.888775 65.8230464,56.8861875 C66.4850993,56.885325 67.0498675,57.109575 67.5156291,57.558075 C67.9822517,58.0057125 68.2422517,58.6845 68.2956291,59.5909875 L62.8106623,59.5909875" id="Fill-5" fill="#5D5D5D" sketch:type="MSShapeGroup"></path>
            <path d="M83.696755,53.6138625 C83.0037086,52.96095 82.1023179,52.6288875 80.9925828,52.61595 L75.8244371,52.61595 L75.8244371,53.6949375 L76.9556954,53.6949375 L76.9556954,64.872075 L78.1721854,64.872075 L78.1721854,60.059325 L80.9925828,60.059325 C82.1023179,60.045525 83.0037086,59.707425 83.696755,59.0433 C84.3898013,58.3783125 84.7470861,57.4675125 84.7677483,56.3117625 C84.7470861,55.1655 84.3898013,54.2659125 83.696755,53.6138625 M82.7841722,58.27395 C82.3054967,58.737975 81.6563576,58.9734375 80.836755,58.9812 L78.1721854,58.9812 L78.1721854,53.6949375 L80.8539735,53.6949375 C81.6658278,53.700975 82.3098013,53.9295375 82.785894,54.38235 C83.2628477,54.8343 83.507351,55.477725 83.5176821,56.3117625 C83.507351,57.1552875 83.2628477,57.8090625 82.7841722,58.27395" id="Fill-6" fill="#5D5D5D" sketch:type="MSShapeGroup"></path>
            <path d="M93.1161589,57.9211875 C92.8406623,57.313125 92.4317219,56.8258125 91.886755,56.4583875 C91.342649,56.091825 90.6668212,55.9038 89.8584106,55.8943125 C89.0654967,55.8977625 88.3449007,56.0823375 87.6957616,56.4480375 C87.0466225,56.8137375 86.5283444,57.3381375 86.1400662,58.0229625 C85.752649,58.7095125 85.5537748,59.5323375 85.5443046,60.49575 C85.5727152,61.8697125 86.0109272,62.9719875 86.8598013,63.802575 C87.7078146,64.6323 88.7943046,65.058375 90.1209934,65.0808 C90.7864901,65.065275 91.3615894,64.9574625 91.8454305,64.7565 C92.3309934,64.554675 92.7063576,64.35285 92.9715232,64.15275 C93.2358278,63.950925 93.3709934,63.8431125 93.3735762,63.8275875 L92.7993377,62.9374875 C92.7976159,62.950425 92.6891391,63.0444375 92.4756291,63.2178 C92.2612583,63.392025 91.9582119,63.5653875 91.5656291,63.73875 C91.1739073,63.912975 90.7098675,64.006125 90.172649,64.019925 C89.2411258,64.0121625 88.4542384,63.7077 87.809404,63.105675 C87.1654305,62.5027875 86.8210596,61.6446 86.7780132,60.53025 L93.4958278,60.53025 C93.4975497,60.518175 93.5027152,60.445725 93.5130464,60.3129 C93.5225166,60.1792125 93.529404,60.0550125 93.5302649,59.938575 C93.5302649,59.202 93.3916556,58.5301125 93.1161589,57.9211875 M86.8296689,59.5909875 C86.9949669,58.7077875 87.3531126,58.0359 87.9049669,57.5779125 C88.4576821,57.119925 89.1025166,56.888775 89.8411921,56.8861875 C90.504106,56.885325 91.0688742,57.109575 91.5346358,57.558075 C92.0012583,58.0057125 92.2612583,58.6845 92.3146358,59.5909875 L86.8296689,59.5909875" id="Fill-7" fill="#5D5D5D" sketch:type="MSShapeGroup"></path>
            <path d="M103.689205,58.1092125 C103.278543,57.426975 102.724967,56.8905 102.029338,56.495475 C101.333709,56.1039 100.55543,55.9012125 99.6919205,55.895175 C98.835298,55.9012125 98.0604636,56.1039 97.3674172,56.495475 C96.6743709,56.8905 96.1225166,57.426975 95.7118543,58.1092125 C95.302053,58.79145 95.0911258,59.5702875 95.0807947,60.444 C95.0911258,61.335825 95.302053,62.1301875 95.7127152,62.8245 C96.1242384,63.5188125 96.6778146,64.0665 97.3725828,64.468425 C98.0682119,64.868625 98.8464901,65.072175 99.7091391,65.0808 C100.566623,65.072175 101.341457,64.868625 102.034503,64.468425 C102.72755,64.0665 103.279404,63.5188125 103.690066,62.8245 C104.100728,62.1301875 104.310795,61.335825 104.321126,60.444 C104.310795,59.5702875 104.100728,58.79145 103.689205,58.1092125 M102.10596,62.997 C101.46457,63.657675 100.66649,63.9975 99.7091391,64.019925 C98.7449007,63.9975 97.9416556,63.657675 97.298543,62.997 C96.6554305,62.336325 96.3213907,61.4859 96.2981457,60.444 C96.3213907,59.4297 96.6554305,58.6017 97.298543,57.96345 C97.9416556,57.323475 98.7449007,56.9931375 99.7091391,56.9733 C100.66649,56.9931375 101.46457,57.323475 102.10596,57.96345 C102.74649,58.6017 103.079669,59.4297 103.104636,60.444 C103.079669,61.4859 102.74649,62.336325 102.10596,62.997" id="Fill-8" fill="#5D5D5D" sketch:type="MSShapeGroup"></path>
            <path d="M113.483113,57.1742625 C112.811589,56.3428125 111.882649,55.915875 110.696291,55.895175 C109.929205,55.915875 109.325695,56.064225 108.885762,56.3410875 C108.444106,56.61795 108.13245,56.8948125 107.949934,57.171675 C107.766556,57.447675 107.678742,57.5968875 107.683907,57.61845 L107.648609,57.61845 C107.650331,57.6158625 107.653775,57.5606625 107.657219,57.45285 C107.662384,57.3459 107.666689,57.202725 107.666689,57.0259125 C107.670132,56.7205875 107.589205,56.4911625 107.425629,56.3359125 C107.262053,56.181525 106.994305,56.1039 106.624106,56.1039 L105.423113,56.1039 L105.423113,57.1294125 L106.154901,57.1294125 C106.276291,57.130275 106.371854,57.164775 106.436424,57.2311875 C106.502715,57.295875 106.536291,57.3916125 106.537152,57.5140875 L106.537152,68.3583 L107.718344,68.3583 L107.718344,64.1932875 C107.716623,63.963 107.710596,63.778425 107.701126,63.6395625 C107.690795,63.5007 107.685629,63.429975 107.683907,63.426525 L107.718344,63.426525 C107.71404,63.447225 107.804437,63.5895375 107.987815,63.8551875 C108.170331,64.1208375 108.473377,64.3864875 108.895232,64.651275 C109.317086,64.9177875 109.880993,65.0601 110.591258,65.0808 C111.744901,65.0626875 112.679007,64.6461 113.39702,63.82845 C114.115033,63.0116625 114.485232,61.9007625 114.505033,60.49575 C114.493841,59.1148875 114.152914,58.0074375 113.483113,57.1742625 M112.460331,63.10395 C111.928278,63.7171875 111.264503,64.0276875 110.469007,64.037175 C109.85947,64.0259625 109.34894,63.8517375 108.934834,63.5153625 C108.520728,63.1772625 108.209934,62.7425625 107.999868,62.2095375 C107.790662,61.677375 107.683907,61.111575 107.683907,60.5138625 C107.710596,59.2753125 108.001589,58.3731375 108.554305,57.8082 C109.107881,57.2432625 109.763046,56.964675 110.521523,56.9733 C111.353179,56.9862375 112.019536,57.3045 112.519735,57.930675 C113.019934,58.5559875 113.27649,59.410725 113.290265,60.49575 C113.269603,61.62045 112.993245,62.48985 112.460331,63.10395" id="Fill-9" fill="#5D5D5D" sketch:type="MSShapeGroup"></path>
            <path d="M116.610861,63.8103375 C116.608278,64.1812125 116.691788,64.4520375 116.86053,64.62195 C117.029272,64.791 117.299603,64.8738 117.670662,64.8712125 L118.906093,64.8712125 L118.906093,63.843975 L118.174305,63.843975 C118.052914,63.843975 117.958212,63.8137875 117.891921,63.7516875 C117.82649,63.688725 117.792914,63.5912625 117.792053,63.4618875 L117.792053,53.6776875 C117.793775,53.3068125 117.711987,53.0359875 117.542384,52.8669375 C117.372781,52.697025 117.103311,52.614225 116.732252,52.6168125 L115.496821,52.6168125 L115.496821,53.642325 L116.227748,53.642325 C116.35,53.64405 116.444702,53.6776875 116.510993,53.7432375 C116.577285,53.8087875 116.61,53.9036625 116.610861,54.027 L116.610861,63.8103375" id="Fill-10" fill="#5D5D5D" sketch:type="MSShapeGroup"></path>
            <path d="M127.661722,57.9211875 C127.387086,57.313125 126.976424,56.8258125 126.432318,56.4583875 C125.888212,56.091825 125.212384,55.9038 124.404834,55.8943125 C123.611921,55.8977625 122.890464,56.0823375 122.241325,56.4480375 C121.592185,56.8137375 121.073907,57.3381375 120.685629,58.0229625 C120.299073,58.7095125 120.098477,59.5323375 120.089868,60.49575 C120.118278,61.8697125 120.55649,62.9719875 121.405364,63.802575 C122.253377,64.6323 123.340728,65.058375 124.666556,65.0808 C125.331192,65.065275 125.906291,64.9574625 126.390993,64.7565 C126.877417,64.554675 127.251921,64.35285 127.517086,64.15275 C127.782252,63.950925 127.916556,63.8431125 127.919139,63.8275875 L127.345762,62.9374875 C127.343179,62.950425 127.235563,63.0444375 127.021192,63.2178 C126.806821,63.392025 126.503775,63.5653875 126.111192,63.73875 C125.71947,63.912975 125.25457,64.006125 124.718212,64.019925 C123.785828,64.0121625 122.99894,63.7077 122.355828,63.105675 C121.710132,62.5027875 121.366623,61.6446 121.322715,60.53025 L128.041391,60.53025 C128.042252,60.518175 128.048278,60.445725 128.058609,60.3129 C128.06894,60.1792125 128.074106,60.0550125 128.075828,59.938575 C128.074967,59.202 127.937219,58.5301125 127.661722,57.9211875 M121.375232,59.5909875 C121.54053,58.7077875 121.897815,58.0359 122.449669,57.5779125 C123.003245,57.119925 123.648079,56.888775 124.387616,56.8861875 C125.048808,56.885325 125.613576,57.109575 126.08106,57.558075 C126.546821,58.0057125 126.806821,58.6845 126.859338,59.5909875 L121.375232,59.5909875" id="Fill-11" fill="#5D5D5D" sketch:type="MSShapeGroup"></path>
            <path d="M130.321987,63.443775 L129.33106,66.562575 L130.321987,66.562575 L131.591854,63.443775 L130.321987,63.443775" id="Fill-12" fill="#5D5D5D" sketch:type="MSShapeGroup"></path>
            <path d="M138.139205,64.8712125 L139.426291,64.8712125 C139.797351,64.8738 140.067682,64.791 140.237285,64.62195 C140.405166,64.4520375 140.488675,64.1812125 140.486093,63.8103375 L140.486093,56.136675 C140.481788,55.7890875 140.46457,55.4440875 140.434437,55.1008125 C140.403444,54.7592625 140.386225,54.57555 140.382781,54.5505375 L140.417219,54.5505375 C140.421523,54.5583 140.476623,54.6523125 140.582517,54.829125 C140.68755,55.0068 140.81755,55.2181125 140.971656,55.4622 C141.124901,55.7062875 141.277285,55.9305375 141.427086,56.136675 L147.676556,64.8712125 L148.788013,64.8712125 L148.788013,54.0796125 C148.788874,53.94765 148.82245,53.852775 148.887881,53.78895 C148.954172,53.7259875 149.048874,53.6949375 149.171987,53.6958 L149.918411,53.6958 L149.918411,52.6168125 L148.632185,52.6168125 C148.260265,52.614225 147.990795,52.697025 147.822053,52.8669375 C147.651589,53.0359875 147.56894,53.3068125 147.572384,53.6776875 L147.572384,61.35135 C147.575828,61.7006625 147.589603,62.04825 147.61543,62.3958375 C147.641258,62.7425625 147.655033,62.9288625 147.659338,62.9556 L147.62404,62.9556 C147.609404,62.9271375 147.495762,62.7356625 147.284834,62.3829 C147.073907,62.0284125 146.856954,61.6851375 146.632252,61.35135 L140.382781,52.6168125 L139.270464,52.6168125 L139.270464,63.409275 C139.269603,63.5395125 139.236887,63.6361125 139.170596,63.699075 C139.104305,63.7620375 139.009603,63.7930875 138.887351,63.7930875 L138.139205,63.7930875 L138.139205,64.8712125" id="Fill-13" fill="#5D5D5D" sketch:type="MSShapeGroup"></path>
            <path d="M159.889669,58.1092125 C159.478146,57.426975 158.92457,56.8905 158.229801,56.495475 C157.533311,56.1039 156.755033,55.9012125 155.892384,55.895175 C155.034901,55.9012125 154.260927,56.1039 153.56702,56.495475 C152.873974,56.8905 152.321258,57.426975 151.912318,58.1092125 C151.501656,58.79145 151.290728,59.5702875 151.280397,60.444 C151.290728,61.335825 151.501656,62.1301875 151.913179,62.8245 C152.323841,63.5188125 152.877417,64.0665 153.572185,64.468425 C154.267815,64.868625 155.046954,65.072175 155.908742,65.0808 C156.766225,65.072175 157.541921,64.868625 158.234106,64.468425 C158.927152,64.0665 159.479007,63.5188125 159.889669,62.8245 C160.29947,62.1301875 160.510397,61.335825 160.520728,60.444 C160.510397,59.5702875 160.29947,58.79145 159.889669,58.1092125 M158.305563,62.997 C157.664172,63.657675 156.866093,63.9975 155.908742,64.019925 C154.945364,63.9975 154.141258,63.657675 153.498146,62.997 C152.855033,62.336325 152.521854,61.4859 152.496887,60.444 C152.521854,59.4297 152.855033,58.6017 153.498146,57.96345 C154.141258,57.323475 154.945364,56.9931375 155.908742,56.9733 C156.866093,56.9931375 157.664172,57.323475 158.305563,57.96345 C158.946954,58.6017 159.279272,59.4297 159.304238,60.444 C159.279272,61.4859 158.946954,62.336325 158.305563,62.997" id="Fill-14" fill="#5D5D5D" sketch:type="MSShapeGroup"></path>
            <path d="M162.840927,61.68255 C162.860728,62.6451 163.048411,63.35925 163.405695,63.82845 C163.76298,64.29765 164.177947,64.602975 164.647152,64.7470125 C165.117219,64.89105 165.528742,64.954875 165.885166,64.941075 C166.035828,64.93935 166.156358,64.934175 166.247616,64.923825 C166.339735,64.913475 166.387947,64.9074375 166.389669,64.906575 L166.389669,63.843975 C166.387947,63.8465625 166.351788,63.8517375 166.280331,63.86295 C166.209735,63.8724375 166.11245,63.878475 165.989338,63.8793375 C165.756887,63.8896875 165.489139,63.8413875 165.185232,63.7361625 C164.882185,63.630075 164.615298,63.4101375 164.386291,63.07635 C164.156424,62.7425625 164.035033,62.2371375 164.02298,61.560075 L164.02298,57.0949125 L166.214901,57.0949125 L166.214901,56.1039 L164.02298,56.1039 L164.02298,53.680275 L162.859007,53.680275 L162.859007,56.1039 L161.691589,56.1039 L161.691589,57.0949125 L162.840927,57.0949125 L162.840927,61.68255" id="Fill-15" fill="#5D5D5D" sketch:type="MSShapeGroup"></path>
            <path d="M172.162185,64.8712125 L173.327881,64.8712125 C173.696358,64.8738 173.95894,64.791 174.119934,64.62195 C174.278344,64.4520375 174.368742,64.1812125 174.389404,63.8103375 L174.963642,56.3652375 C174.98,56.13495 174.992914,55.88655 174.999801,55.6183125 C175.006689,55.3509375 175.011854,55.1215125 175.013576,54.92745 C175.015298,54.732525 175.015298,54.6316125 175.015298,54.622125 L175.050596,54.622125 C175.053179,54.632475 175.088477,54.7368375 175.154768,54.9378 C175.222781,55.1387625 175.30543,55.374225 175.403576,55.6416 C175.501722,55.9107 175.599007,56.1522 175.69457,56.3652375 L178.58298,62.5873125 L179.679801,62.5873125 L182.58457,56.3652375 C182.685298,56.147025 182.784305,55.9063875 182.879007,55.643325 C182.973709,55.381125 183.052914,55.1525625 183.11404,54.9593625 C183.176887,54.767025 183.209603,54.6661125 183.212185,54.656625 L183.246623,54.656625 C183.245762,54.66525 183.246623,54.7644375 183.248344,54.9524625 C183.250066,55.1404875 183.25351,55.3656 183.261258,55.6278 C183.269007,55.89 183.28106,56.1358125 183.298278,56.3652375 L183.872517,63.8103375 C183.893179,64.1812125 183.983576,64.4520375 184.141987,64.62195 C184.302119,64.791 184.565563,64.8738 184.93404,64.8712125 L186.116954,64.8712125 L186.116954,63.7930875 L185.455762,63.7930875 C185.334371,63.7930875 185.243113,63.761175 185.180265,63.699075 C185.116556,63.6361125 185.082119,63.5395125 185.072649,63.4084125 L184.21947,52.6168125 L182.984901,52.6168125 L179.747815,59.7479625 C179.601457,60.0826125 179.468874,60.4026 179.348344,60.7062 C179.227815,61.011525 179.164967,61.1745375 179.157219,61.1952375 L179.122781,61.1952375 C179.115033,61.1745375 179.051325,61.011525 178.929073,60.7062 C178.80596,60.4026 178.667351,60.0826125 178.513245,59.7479625 L175.276159,52.6168125 L174.041589,52.6168125 L173.188411,63.4084125 C173.179801,63.5395125 173.144503,63.6361125 173.080795,63.699075 C173.018808,63.761175 172.926689,63.7930875 172.805298,63.7930875 L172.162185,63.7930875 L172.162185,64.8712125" id="Fill-16" fill="#5D5D5D" sketch:type="MSShapeGroup"></path>
            <path d="M194.60053,63.8448375 C194.478278,63.8448375 194.383576,63.8137875 194.317285,63.7516875 C194.251854,63.688725 194.218278,63.5912625 194.218278,63.461025 L194.218278,59.258925 C194.226026,58.6249875 194.134768,58.054875 193.943642,57.54945 C193.751656,57.0431625 193.408146,56.643825 192.907947,56.3479875 C192.410331,56.05215 191.70351,55.9012125 190.789205,55.8943125 C190.513709,55.89 190.15298,55.92795 189.709603,56.0073 C189.266225,56.0875125 188.865033,56.2341375 188.506026,56.4489 C188.147881,56.6636625 187.957616,56.9733 187.937815,57.375225 L187.937815,58.21185 L189.065629,58.21185 L189.065629,57.6538125 C189.078543,57.4416375 189.193907,57.2794875 189.410861,57.168225 C189.629536,57.0561 189.870596,56.9810625 190.135762,56.9413875 C190.402649,56.9017125 190.613576,56.8836 190.772848,56.8861875 C191.567483,56.8741125 192.145166,57.057825 192.505894,57.437325 C192.864901,57.816825 193.042252,58.4593875 193.036225,59.36415 L193.036225,59.469375 L192.548079,59.469375 C192.153775,59.46075 191.661325,59.48145 191.071589,59.5306125 C190.481854,59.5789125 189.892119,59.697075 189.300662,59.8851 C188.709205,60.0722625 188.213311,60.373275 187.81298,60.7846875 C187.411788,61.197825 187.204305,61.763625 187.188808,62.484675 C187.197417,63.0651375 187.346358,63.5481375 187.634768,63.9328125 C187.922318,64.316625 188.290795,64.6047 188.74106,64.79445 C189.192185,64.985925 189.665695,65.0808 190.163311,65.0808 C190.889934,65.0575125 191.468477,64.8936375 191.895497,64.5883125 C192.324238,64.2847125 192.629868,63.9793875 192.811523,63.674925 C192.994901,63.3696 193.080993,63.2048625 193.071523,63.1824375 L193.10596,63.1824375 C193.105099,63.185025 193.102517,63.2445375 193.09649,63.360975 C193.091325,63.47655 193.088742,63.6326625 193.087881,63.8275875 C193.084437,64.1829375 193.165364,64.446 193.329801,64.616775 C193.493377,64.7884125 193.760265,64.8729375 194.131325,64.872075 L195.331457,64.872075 L195.331457,63.8448375 L194.60053,63.8448375 L194.60053,63.8448375 Z M193.036225,60.8088375 C193.033642,61.3263375 192.926026,61.83435 192.712517,62.3302875 C192.499007,62.8253625 192.192517,63.2359125 191.792185,63.5636625 C191.392715,63.89055 190.913179,64.0596 190.354437,64.0725375 C189.701854,64.0535625 189.213709,63.8802 188.89,63.5498625 C188.56543,63.2203875 188.403576,62.84175 188.404437,62.41395 C188.430265,61.7688 188.684238,61.3039125 189.16894,61.018425 C189.652781,60.7329375 190.213245,60.556125 190.84947,60.490575 C191.486556,60.4233 192.047881,60.3965625 192.531722,60.4086375 L193.036225,60.4086375 L193.036225,60.8088375 L193.036225,60.8088375 Z" id="Fill-17" fill="#5D5D5D" sketch:type="MSShapeGroup"></path>
            <path d="M196.399868,60.49575 C196.428278,61.877475 196.867351,62.9823375 197.717086,63.809475 C198.567682,64.63575 199.659338,65.0592375 200.993775,65.0808 C201.742781,65.0626875 202.371258,64.93935 202.880066,64.7107875 C203.388013,64.4813625 203.771987,64.2528 204.031126,64.0225125 C204.290265,63.7948125 204.418543,63.671475 204.420265,63.6533625 L203.864106,62.7632625 C203.862384,62.7787875 203.752185,62.8857375 203.530927,63.084975 C203.311391,63.28335 202.993709,63.481725 202.573576,63.6801 C202.154305,63.8793375 201.644636,63.9862875 201.046291,64.0018125 C200.094967,63.9914625 199.292583,63.67665 198.638278,63.0599625 C197.983974,62.443275 197.643046,61.587675 197.615497,60.49575 C197.639603,59.4184875 197.970199,58.562025 198.608146,57.9280875 C199.246093,57.2950125 200.046755,56.96985 201.010993,56.95605 C201.265828,56.95605 201.547351,56.9948625 201.855563,57.07335 C202.162914,57.1518375 202.430662,57.271725 202.655364,57.4312875 C202.884371,57.59085 203.001457,57.792675 203.012649,58.037625 L203.012649,58.5421875 L204.124967,58.5421875 L204.124967,57.758175 C204.104305,57.2794875 203.908013,56.9043 203.537815,56.6326125 C203.166755,56.3600625 202.741457,56.1685875 202.259338,56.0564625 C201.778079,55.9443375 201.362252,55.8908625 201.010993,55.895175 C199.675695,55.9184625 198.580596,56.3497125 197.726556,57.1880625 C196.869934,58.027275 196.429139,59.1304125 196.399868,60.49575" id="Fill-18" fill="#5D5D5D" sketch:type="MSShapeGroup"></path>
            <path d="M206.301391,64.8712125 L207.482583,64.8712125 L207.482583,60.6717 C207.480861,60.4603875 207.491192,60.2568375 207.512715,60.0601875 C207.533377,59.862675 207.570397,59.6772375 207.622053,59.50215 C207.837285,58.75695 208.230728,58.158375 208.801523,57.7055625 C209.373179,57.25275 210.036093,57.019875 210.791126,57.0086625 C211.617616,57.0310875 212.148808,57.2907 212.388146,57.7900875 C212.626623,58.2903375 212.732517,58.8958125 212.705828,59.6065125 L212.705828,63.8103375 C212.703245,64.1812125 212.786755,64.4520375 212.955497,64.62195 C213.125099,64.791 213.39457,64.8738 213.764768,64.8712125 L215.000199,64.8712125 L215.000199,63.843975 L214.270132,63.843975 C214.147881,63.843975 214.052318,63.8137875 213.986026,63.7516875 C213.920596,63.688725 213.88702,63.5912625 213.88702,63.4618875 L213.88702,59.293425 C213.899934,58.20495 213.682119,57.368325 213.233576,56.78355 C212.783311,56.19705 212.02053,55.90035 210.946954,55.8943125 C210.290927,55.9063875 209.724437,56.0323125 209.249205,56.27295 C208.771391,56.5135875 208.386556,56.8008 208.090397,57.13545 C207.795099,57.4692375 207.592781,57.782325 207.482583,58.072125 L207.447285,58.072125 C207.449007,58.0678125 207.454172,57.9988125 207.464503,57.8642625 C207.475695,57.7314375 207.480861,57.561525 207.482583,57.3571125 L207.482583,53.642325 C207.485166,53.2887 207.401656,53.0273625 207.233775,52.862625 C207.063311,52.697025 206.79298,52.614225 206.423642,52.6168125 L205.187351,52.6168125 L205.187351,53.642325 L205.918278,53.642325 C206.041391,53.64405 206.134371,53.6776875 206.200662,53.7432375 C206.266954,53.8087875 206.30053,53.9036625 206.301391,54.027 L206.301391,64.8712125" id="Fill-19" fill="#5D5D5D" sketch:type="MSShapeGroup"></path>
            <path d="M216.920066,52.6168125 L218.067682,52.6168125 L218.067682,54.1141125 L216.920066,54.1141125 L216.920066,52.6168125 Z" id="Fill-20" fill="#5D5D5D" sketch:type="MSShapeGroup"></path>
            <path d="M216.955364,63.8103375 C216.952781,64.1812125 217.03543,64.4520375 217.205894,64.62195 C217.373775,64.791 217.644967,64.8738 218.015166,64.8712125 L219.250596,64.8712125 L219.250596,63.843975 L218.519669,63.843975 C218.396556,63.843975 218.303576,63.8137875 218.237285,63.7516875 C218.171854,63.688725 218.137417,63.5912625 218.137417,63.4618875 L218.137417,57.164775 C218.138278,56.7930375 218.05649,56.523075 217.886026,56.354025 C217.718146,56.1841125 217.448675,56.1013125 217.078477,56.1039 L215.841325,56.1039 L215.841325,57.130275 L216.572252,57.130275 C216.696225,57.130275 216.789205,57.1639125 216.856358,57.230325 C216.920066,57.2967375 216.954503,57.39075 216.955364,57.5140875 L216.955364,63.8103375" id="Fill-21" fill="#5D5D5D" sketch:type="MSShapeGroup"></path>
            <path d="M221.229007,64.8712125 L222.410199,64.8712125 L222.410199,60.6717 C222.410199,60.46125 222.42053,60.2568375 222.442053,60.0576 C222.462715,59.859225 222.498013,59.66775 222.55053,59.4849 C222.764901,58.748325 223.158344,58.1540625 223.732583,57.7038375 C224.30596,57.25275 224.97404,57.019875 225.736821,57.0086625 C226.554702,57.0310875 227.081589,57.2907 227.318344,57.7900875 C227.55596,58.2903375 227.660993,58.8958125 227.633444,59.6065125 L227.633444,63.8103375 C227.632583,64.1812125 227.714371,64.4520375 227.883113,64.62195 C228.053576,64.791 228.323907,64.8738 228.693245,64.8712125 L229.930397,64.8712125 L229.930397,63.843975 L229.19947,63.843975 C229.075497,63.843975 228.980795,63.8137875 228.915364,63.7516875 C228.849073,63.688725 228.816358,63.5912625 228.815497,63.4618875 L228.815497,59.293425 C228.82755,58.20495 228.610596,57.368325 228.161192,56.78355 C227.712649,56.19705 226.949007,55.90035 225.876291,55.8943125 C225.192715,55.90725 224.609868,56.0392125 224.12947,56.2902 C223.649073,56.5411875 223.26596,56.8353 222.980132,57.17685 C222.693444,57.516675 222.497152,57.827175 222.39298,58.106625 L222.358543,58.106625 C222.359404,58.103175 222.366291,58.041075 222.375762,57.923775 C222.386093,57.8056125 222.392119,57.6572625 222.39298,57.4795875 L222.39298,57.0776625 C222.394702,56.7481875 222.310331,56.5032375 222.138146,56.3428125 C221.964238,56.18325 221.69649,56.1030375 221.33404,56.1039 L220.116689,56.1039 L220.116689,57.130275 L220.846755,57.130275 C220.969007,57.130275 221.062848,57.1639125 221.13,57.230325 C221.19457,57.2967375 221.229007,57.39075 221.229007,57.5140875 L221.229007,64.8712125" id="Fill-22" fill="#5D5D5D" sketch:type="MSShapeGroup"></path>
            <path d="M238.580993,57.9211875 C238.303775,57.313125 237.894834,56.8258125 237.351589,56.4583875 C236.806623,56.091825 236.129934,55.9038 235.324106,55.8943125 C234.52947,55.8977625 233.809735,56.0823375 233.159735,56.4480375 C232.511457,56.8137375 231.991457,57.3381375 231.604901,58.0229625 C231.217483,58.7095125 231.017748,59.5323375 231.009139,60.49575 C231.03755,61.8697125 231.474901,62.9719875 232.323775,63.802575 C233.172649,64.6323 234.258278,65.058375 235.584967,65.0808 C236.249603,65.065275 236.823841,64.9574625 237.310265,64.7565 C237.795828,64.554675 238.172053,64.35285 238.435497,64.15275 C238.699801,63.950925 238.835828,63.8431125 238.838411,63.8275875 L238.264172,62.9374875 C238.261589,62.950425 238.153113,63.0444375 237.938742,63.2178 C237.725232,63.392025 237.421325,63.5653875 237.029603,63.73875 C236.637881,63.912975 236.173841,64.006125 235.638344,64.019925 C234.705099,64.0121625 233.919073,63.7077 233.274238,63.105675 C232.629404,62.5027875 232.285033,61.6446 232.242848,60.53025 L238.959801,60.53025 C238.961523,60.518175 238.96755,60.445725 238.97702,60.3129 C238.987351,60.1792125 238.992517,60.0550125 238.995099,59.938575 C238.995099,59.202 238.85649,58.5301125 238.580993,57.9211875 M232.292781,59.5909875 C232.45894,58.7077875 232.817947,58.0359 233.36894,57.5779125 C233.920795,57.119925 234.567351,56.888775 235.306026,56.8861875 C235.96894,56.885325 236.532848,57.109575 236.998609,57.558075 C237.466093,58.0057125 237.725232,58.6845 237.778609,59.5909875 L232.292781,59.5909875" id="Fill-23" fill="#5D5D5D" sketch:type="MSShapeGroup"></path>
            <path d="M240.354503,63.5481375 C240.354503,63.5671125 240.475894,63.699075 240.716954,63.94575 C240.961457,64.1915625 241.330795,64.437375 241.829272,64.68405 C242.325166,64.9298625 242.951921,65.061825 243.712119,65.0808 C244.600596,65.0695875 245.32894,64.8436125 245.89543,64.4020125 C246.461921,63.95955 246.755497,63.3670125 246.774437,62.6244 C246.748609,61.9111125 246.492053,61.363425 246.008212,60.980475 C245.521788,60.597525 244.959603,60.2896125 244.319073,60.055875 C243.681126,59.8221375 243.119801,59.572875 242.632517,59.3080875 C242.146954,59.0433 241.89298,58.6715625 241.866291,58.1946 C241.870596,57.7668 242.044503,57.447675 242.38457,57.237225 C242.725497,57.0259125 243.201589,56.9206875 243.817152,56.9206875 C244.13053,56.9181 244.455099,56.985375 244.79,57.1242375 C245.12404,57.2622375 245.304834,57.4908 245.331523,57.8107875 L245.331523,58.2291 L246.443841,58.2291 L246.443841,57.4795875 C246.427483,57.0707625 246.263046,56.7499125 245.951391,56.5187625 C245.638874,56.2876125 245.276424,56.1246 244.865762,56.029725 C244.455099,55.936575 244.095232,55.8908625 243.781854,55.8943125 C242.883046,55.8943125 242.14351,56.0901 241.564106,56.4842625 C240.987285,56.8775625 240.686821,57.4709625 240.66702,58.2644625 C240.693709,58.95705 240.948543,59.4926625 241.434106,59.8721625 C241.92053,60.252525 242.481854,60.5621625 243.121523,60.8019375 C243.761192,61.039125 244.322517,61.2935625 244.808079,61.560075 C245.295364,61.82745 245.550199,62.19315 245.576026,62.6589 C245.558808,63.1212 245.372848,63.46965 245.017285,63.702525 C244.662583,63.937125 244.233841,64.054425 243.730199,64.054425 C243.154238,64.0380375 242.666093,63.923325 242.26404,63.7102875 C241.863709,63.4981125 241.557219,63.2859375 241.348874,63.0729 C241.139669,62.8598625 241.033775,62.74515 241.032053,62.7287625 L240.354503,63.5481375" id="Fill-24" fill="#5D5D5D" sketch:type="MSShapeGroup"></path>
            <path d="M42.9835099,28.8618375 C42.049404,28.2787875 40.8088079,28.4892375 39.8471523,29.2879125 L39.8471523,28.0114125 C39.886755,26.0000625 39.5363576,24.396675 38.7942384,23.199525 C38.0512583,22.0032375 36.6789404,21.39 34.6755629,21.360675 C32.5129139,21.395175 30.6610596,22.0291125 29.12,23.26335 C27.5798013,24.496725 26.4950331,26.1234 25.8639735,28.1407875 C25.6754305,28.7799 25.5419868,29.450925 25.4653642,30.154725 C25.3878808,30.8576625 25.3508609,31.593375 25.3534437,32.3618625 L25.3534437,46.380075 L41.2065563,46.5913875 C41.0808609,46.500825 40.9646358,46.4016375 40.8578808,46.2946875 C40.1751656,45.6029625 39.8376821,44.496375 39.8471523,42.9740625 L39.8471523,34.574175 C41.0550331,35.077875 42.6236424,34.44135 43.4983444,33.0328875 C44.4505298,31.500225 44.2206623,29.6329125 42.9835099,28.8618375 M30.7264901,24.1853625 C31.9412583,24.1853625 32.925298,25.1712 32.925298,26.3881875 C32.925298,27.605175 31.9412583,28.5910125 30.7264901,28.5910125 C29.5125828,28.5910125 28.5276821,27.605175 28.5276821,26.3881875 C28.5276821,25.1712 29.5125828,24.1853625 30.7264901,24.1853625 M31.2671523,39.7776375 C26.6491391,40.5314625 27.6917219,31.0155 27.6917219,31.0155 C27.6917219,31.0155 29.1019205,32.721525 31.4470861,32.7706875 C34.2218543,32.828475 38.0030464,31.231125 38.0030464,31.231125 C38.0030464,31.231125 35.8860265,39.024675 31.2671523,39.7776375 M36.2312583,29.39745 C35.017351,29.39745 34.0315894,28.4116125 34.0315894,27.1954875 C34.0315894,25.9785 35.017351,24.9918 36.2312583,24.9918 C37.4460265,24.9918 38.4300662,25.9785 38.4300662,27.1954875 C38.4300662,28.4116125 37.4460265,29.39745 36.2312583,29.39745" id="Fill-25" fill="#E64B07" sketch:type="MSShapeGroup"></path>
            <path d="M23.2355629,2.2864875 L38.9913907,0.1612875 C42.9602649,-0.3751875 46.610596,2.413275 47.1452318,6.3894 L51.4610596,38.4744 C51.5523179,39.1583625 51.5471523,39.8328375 51.4541722,40.4831625 L49.2837748,40.4831625 C48.8335099,40.480575 48.4882781,40.3589625 48.2463576,40.1166 C48.0044371,39.8742375 47.8821854,39.5275125 47.8787417,39.0772875 L47.8787417,26.349375 C47.8606623,22.057575 46.8783444,18.9137625 44.9300662,16.91535 C42.982649,14.9169375 40.182053,13.9302375 36.5265563,13.9526625 C33.6992715,14.025975 31.3248344,14.709075 29.4075497,16.00455 C27.489404,17.2991625 26.1377483,18.76455 25.3534437,20.4033 L25.2251656,20.4033 C25.2311921,20.3895 25.2518543,20.1298875 25.2888742,19.628775 C25.325894,19.1268 25.3482781,18.469575 25.3534437,17.6571 L25.3534437,6.211725 C25.3594702,4.7497875 25.0133775,3.6682125 24.3082781,2.9713125 C24.0190066,2.6832375 23.6608609,2.454675 23.2355629,2.2864875" id="Fill-26" fill="#E64B07" sketch:type="MSShapeGroup"></path>
            <path d="M7.14483444,4.459125 L13.3004636,3.627675 L13.3004636,8.830275 L15.8531126,8.830275 C16.3025166,8.8294125 16.6477483,8.9432625 16.8905298,9.175275 C17.1324503,9.4047 17.2538411,9.7591875 17.2564238,10.2387375 L17.2564238,46.273125 L13.3968874,46.221375 C9.42801325,46.75785 5.77768212,43.9676625 5.2413245,39.9924 L0.926357616,12.6295875 C0.391721854,8.6526 3.17509934,4.9947375 7.14483444,4.459125" id="Fill-27" fill="#E64B07" sketch:type="MSShapeGroup"></path>
            <path d="M206.943642,42.0356625 L210.790265,42.0356625 L210.790265,46.0393875 L206.943642,46.0393875 L206.943642,42.0356625 Z" id="Fill-28" fill="#7A7A7A" sketch:type="MSShapeGroup"></path>
            <path d="M259.321589,43.1388 C259.114967,43.168125 258.836887,43.1845125 258.482185,43.1879625 C257.813245,43.216425 257.042715,43.078425 256.172318,42.774825 C255.299338,42.471225 254.532252,41.83815 253.871921,40.87905 C253.211589,39.9173625 252.862914,38.4649125 252.827616,36.5191125 L252.827616,23.6833875 L259.133046,23.6833875 L259.133046,20.8319625 L252.827616,20.8319625 L252.827616,13.8646875 L249.482053,13.8646875 L249.482053,20.8319625 L244.935497,20.8319625 C243.694901,20.8026375 242.772848,20.974275 242.17106,21.3442875 C241.569272,21.716025 240.922715,22.46295 240.231391,23.5833375 L236.58106,29.19735 L236.049007,30.1935375 L235.68053,30.7006875 L235.405033,30.1935375 C235.232848,29.877 235.040861,29.5458 234.829934,29.19735 L231.228675,23.5833375 C230.535629,22.440525 229.885629,21.688425 229.272649,21.326175 C228.661391,20.96565 227.746225,20.80005 226.527152,20.8319625 L218.694437,20.8319625 L218.694437,13.8646875 L215.347152,13.8646875 L215.347152,20.8319625 L211.996424,20.8319625 L211.996424,23.6833875 L215.299801,23.6833875 L215.299801,36.8710125 C215.352318,39.63705 215.894702,41.69325 216.922649,43.0422 C217.950596,44.389425 219.138675,45.2700375 220.48947,45.68145 C221.841987,46.0945875 223.026623,46.2808875 224.047682,46.24035 C224.480728,46.2360375 224.830265,46.21965 225.092848,46.190325 L225.499205,46.04025 L228.677748,46.04025 L234.829934,36.6666 C235.062384,36.3000375 235.261258,35.9791875 235.424834,35.7014625 L235.780397,35.26245 L236.030927,35.719575 C236.190199,36.00765 236.371854,36.3224625 236.58106,36.6666 L242.734967,46.04025 L246.735695,46.04025 L237.931854,32.9069625 L243.384967,24.786525 C243.65702,24.3716625 243.986755,24.09825 244.371589,23.965425 C244.758146,23.8326 245.211854,23.772225 245.734437,23.7834375 L246.735695,23.6833875 L249.43298,23.6833875 L249.43298,36.8710125 C249.486358,39.63705 250.027881,41.69325 251.054967,43.0422 C252.082914,44.389425 253.272715,45.2700375 254.62351,45.68145 C255.973444,46.0945875 257.15894,46.2808875 258.181722,46.24035 C258.613907,46.2360375 258.963444,46.21965 259.227748,46.190325 L259.632384,46.1403 L259.632384,43.088775 L259.321589,43.1388 L259.321589,43.1388 Z M225.499205,44.8801875 L225.499205,43.088775 L225.185828,43.1388 C224.982649,43.168125 224.703709,43.1845125 224.348146,43.1879625 C223.680927,43.216425 222.910397,43.078425 222.038278,42.774825 C221.165298,42.471225 220.399073,41.83815 219.737881,40.87905 C219.07755,39.9173625 218.729735,38.4649125 218.694437,36.5191125 L218.694437,23.6833875 L224.67702,23.7834375 L225.725629,23.7834375 C226.223245,23.7748125 226.657152,23.84295 227.028212,23.9904375 C227.398411,24.137925 227.731589,24.4191 228.026887,24.83655 L233.48,32.9069625 L225.499205,44.8801875 L225.499205,44.8801875 Z" id="Fill-29" fill="#7A7A7A" sketch:type="MSShapeGroup"></path>
            <path d="M183.61596,42.2357625 L186.61543,38.0742 C186.629205,38.1199125 186.963245,38.445075 187.619272,39.0496875 C188.275298,39.652575 189.172384,40.2554625 190.313113,40.8592125 C191.45298,41.4629625 192.754702,41.7889875 194.220861,41.8347 C195.218675,41.8372875 196.038278,41.6320125 196.68053,41.2206 C197.322781,40.8091875 197.654238,40.1778375 197.675762,39.328275 C197.605166,38.4562875 196.904371,37.7197125 195.573377,37.11855 C194.241523,36.5173875 192.698742,35.8636125 190.945894,35.1598125 C189.193046,34.4542875 187.651126,33.50985 186.319272,32.3256375 C184.987417,31.141425 184.285762,29.5311375 184.216887,27.4939125 C184.297815,24.94695 185.284437,23.06325 187.178477,21.8454 C189.073377,20.6266875 191.386689,20.0212125 194.121854,20.0298375 C195.318543,20.0177625 196.603907,20.1687 197.977086,20.48265 C199.350265,20.794875 200.531457,21.3391125 201.519801,22.1145 C202.509007,22.8881625 203.027285,23.9628375 203.073775,25.3376625 L203.073775,27.9941625 L197.476026,27.9941625 L197.476026,26.74095 C197.429536,26.1397875 197.07053,25.6878375 196.399007,25.386825 C195.727483,25.0858125 195.017219,24.9357375 194.270795,24.9357375 C193.125762,24.938325 192.209735,25.1341125 191.522715,25.524825 C190.834834,25.9155375 190.481854,26.4882375 190.464636,27.2420625 C190.535232,28.208925 191.241192,28.985175 192.583377,29.5690875 C193.923841,30.154725 195.479536,30.77055 197.243576,31.417425 C199.010199,32.0643 200.563311,32.9613 201.905497,34.11015 C203.248543,35.260725 203.952781,36.882225 204.024238,38.976375 C203.963113,41.4060375 203.02298,43.3104375 201.205563,44.68785 C199.387285,46.0644 197.059338,46.766475 194.220861,46.7914875 C191.884305,46.7345625 189.93,46.3412625 188.357947,45.6098625 C186.785894,44.879325 185.60298,44.1470625 184.809205,43.4156625 C184.01457,42.6859875 183.616821,42.291825 183.61596,42.2357625" id="Fill-30" fill="#4E4E4E" sketch:type="MSShapeGroup"></path>
            <path d="M55.7949669,37.0711125 L55.7949669,27.1420125 C55.793245,26.766825 55.6968212,26.4891 55.5074172,26.3088375 C55.3162914,26.1277125 55.0468212,26.03715 54.694702,26.038875 L52.6930464,26.038875 L52.6930464,20.631 L58.7445033,20.631 C59.9119205,20.62755 60.7633775,20.898375 61.2997351,21.4452 C61.8360927,21.9911625 62.1003974,22.8381375 62.092649,23.986125 L62.092649,35.7670125 C62.0607947,37.344525 62.3259603,38.6029125 62.8872848,39.54045 C63.4503311,40.4797125 64.503245,40.960125 66.0486093,40.98255 C68.3619205,40.9092375 70.1311258,40.0407 71.3553642,38.3821125 C72.5796026,36.7218 73.1968874,34.7139 73.2072185,32.35755 L73.2072185,20.631 L79.5556954,20.631 L79.5556954,39.728475 C79.5574172,40.0829625 79.6538411,40.3537875 79.843245,40.5444 C80.032649,40.7350125 80.3038411,40.8298875 80.6568212,40.832475 L82.6576159,40.832475 L82.6576159,46.190325 L76.805894,46.190325 C75.7047682,46.1825625 74.8713907,45.9333 74.3066225,45.4390875 C73.7427152,44.94315 73.4594702,44.2428 73.4568874,43.3363125 L73.4568874,42.6351 C73.4594702,42.3237375 73.4672185,42.057225 73.4827152,41.832975 L73.5068212,41.4836625 C72.7905298,42.86625 71.7221192,44.0815125 70.2034437,45.1320375 C68.6847682,46.1825625 66.8156954,46.735425 64.5962252,46.7914875 C61.844702,46.821675 59.6958278,46.0721625 58.1504636,44.54295 C56.6068212,43.0146 55.8216556,40.5228375 55.7949669,37.0711125" id="Fill-31" fill="#4E4E4E" sketch:type="MSShapeGroup"></path>
            <path d="M85.5925166,46.190325 L85.5925166,27.1420125 C85.5890728,26.766825 85.4943709,26.4891 85.304106,26.307975 C85.1155629,26.12685 84.8435099,26.03715 84.4913907,26.038875 L82.4897351,26.038875 L82.4897351,20.631 L88.340596,20.631 C89.464106,20.6379 90.3043709,20.8871625 90.8596689,21.3822375 C91.414106,21.87645 91.6913245,22.5776625 91.6904636,23.4850125 L91.6904636,24.2353875 C91.6878808,24.5234625 91.6792715,24.7753125 91.6654967,24.9926625 L91.6396689,25.3376625 C92.3602649,24.020625 93.3856291,22.823475 94.8199338,21.74535 C96.2525166,20.6655 97.9795364,20.094525 100.000993,20.0298375 C101.928609,20.032425 103.513576,20.477475 104.758477,21.3632625 C106.003377,22.2481875 106.901325,23.5574625 107.452318,25.2876375 C108.252119,23.8627875 109.366159,22.6432125 110.893444,21.6246 C112.419868,20.608575 114.209735,20.0764125 116.262185,20.0298375 C118.930199,20.015175 120.984371,20.794875 122.425563,22.3706625 C123.867616,23.9473125 124.597682,26.4071625 124.613179,29.7502125 L124.613179,39.728475 C124.615762,40.0821 124.710464,40.3537875 124.900728,40.5444 C125.090993,40.7350125 125.361325,40.8298875 125.714305,40.832475 L127.666026,40.832475 L127.666026,46.190325 L121.663642,46.190325 C120.47298,46.1980875 119.606887,45.9307125 119.065364,45.3882 C118.52298,44.84655 118.256954,43.9780125 118.265563,42.785175 L118.265563,30.9534 C118.303444,29.4673125 118.089073,28.2511875 117.620728,27.305025 C117.152384,26.358 116.199338,25.8689625 114.759868,25.8379125 C113.168874,25.8810375 111.845629,26.45805 110.78755,27.5680875 C109.727748,28.678125 109.016623,30.0572625 108.65245,31.7055 C108.504371,32.2048875 108.400199,32.72325 108.339934,33.2605875 C108.278808,33.7970625 108.250397,34.36545 108.252119,34.9648875 L108.252119,46.190325 L101.903642,46.190325 L101.903642,30.9534 C101.950132,29.533725 101.755563,28.3357125 101.320795,27.36195 C100.886026,26.3864625 99.9286755,25.87845 98.4487417,25.8379125 C96.8405298,25.8810375 95.5129801,26.459775 94.4686755,27.574125 C93.4235099,28.6893375 92.6977483,30.0831375 92.2905298,31.7546625 C92.1639735,32.255775 92.0658278,32.77155 91.9960927,33.304575 C91.9263576,33.835875 91.8910596,34.3896 91.8901987,34.9648875 L91.8901987,46.190325 L85.5925166,46.190325" id="Fill-32" fill="#4E4E4E" sketch:type="MSShapeGroup"></path>
            <path d="M151.548146,40.832475 C151.195166,40.8298875 150.924834,40.7332875 150.73543,40.5444 C150.545166,40.3537875 150.448742,40.0812375 150.446159,39.728475 L150.446159,30.206475 C150.520199,27.2782875 149.748808,24.8667375 148.13457,22.9726875 C146.51947,21.077775 143.620728,20.0953875 139.442649,20.0298375 C138.491325,20.00655 137.28947,20.1074625 135.837086,20.336025 C134.384702,20.5628625 133.081258,21.053625 131.924172,21.8100375 C130.767086,22.5655875 130.154967,23.7247875 130.088675,25.2876375 L130.088675,27.99675 L135.986887,27.99675 L135.986887,26.642625 C136.056623,25.9569375 136.480199,25.4963625 137.257616,25.2617625 C138.035033,25.0288875 138.746159,24.91935 139.391854,24.9357375 C141.011258,24.9159 142.202781,25.2945375 142.965563,26.07165 C143.728344,26.8479 144.10543,28.14165 144.098543,29.9537625 L144.098543,30.1555875 L143.297881,30.1555875 C142.212252,30.137475 140.838212,30.2125125 139.175762,30.382425 C137.513311,30.551475 135.84053,30.9189 134.159139,31.482975 C132.476887,32.048775 131.064967,32.91645 129.922517,34.0868625 C128.778344,35.259 128.184305,36.837375 128.137815,38.824575 C128.215298,41.3931 129.096887,43.3604625 130.781722,44.7249375 C132.465695,46.090275 134.48543,46.77855 136.839205,46.7914875 C138.74702,46.735425 140.265695,46.345575 141.396954,45.6228 C142.527351,44.900025 143.338344,44.17725 143.829073,43.4536125 C144.320662,42.729975 144.56,42.3409875 144.647815,42.284925 L144.623709,42.5911125 C144.609073,42.79035 144.601325,43.056 144.598742,43.3863375 C144.58755,44.16 144.834636,44.8155 145.342583,45.3511125 C145.849669,45.8875875 146.684768,46.166175 147.847881,46.190325 L153.549801,46.190325 L153.549801,40.832475 L151.548146,40.832475 L151.548146,40.832475 Z M144.199272,35.112375 C144.189801,36.1741125 143.940132,37.2160125 143.450265,38.2372125 C142.958675,39.259275 142.279404,40.107975 141.409868,40.7833125 C140.540331,41.45865 139.534768,41.81055 138.391457,41.8347 C137.091457,41.8027875 136.123775,41.46555 135.486689,40.818675 C134.850464,40.1726625 134.533642,39.407625 134.535364,38.5235625 C134.580132,37.35315 135.075166,36.4777125 136.021325,35.8998375 C136.967483,35.3219625 138.09702,34.9416 139.409073,34.7596125 C140.721126,34.5767625 141.95053,34.4931 143.097285,34.51035 L144.199272,34.51035 L144.199272,35.112375 L144.199272,35.112375 Z" id="Fill-33" fill="#4E4E4E" sketch:type="MSShapeGroup"></path>
            <path d="M156.469205,46.190325 L156.469205,27.1420125 C156.466623,26.766825 156.37106,26.4891 156.181656,26.307975 C155.991391,26.12685 155.72106,26.03715 155.368079,26.038875 L153.367285,26.038875 L153.367285,20.631 L159.218146,20.631 C160.342517,20.6379 161.18106,20.8871625 161.737219,21.3822375 C162.290795,21.87645 162.568013,22.5776625 162.568013,23.4850125 L162.568013,24.2353875 C162.562848,24.5234625 162.54649,24.7753125 162.518079,24.9926625 L162.466424,25.3376625 C162.929603,24.593325 163.489205,23.8162125 164.246821,23.0037375 C165.004437,22.1929875 165.987616,21.5012625 167.196358,20.9268375 C168.402517,20.355 169.864371,20.05485 171.578477,20.0298375 C174.422119,20.011725 176.612318,20.78625 178.149073,22.35255 C179.685828,23.91885 180.462384,26.383875 180.479603,29.7502125 L180.479603,39.728475 C180.481325,40.0821 180.577748,40.3537875 180.768013,40.5444 C180.957417,40.7350125 181.228609,40.8298875 181.580728,40.832475 L183.582384,40.832475 L183.582384,46.190325 L177.530066,46.190325 C176.338543,46.1980875 175.473311,45.9307125 174.931788,45.3882 C174.390265,44.84655 174.123377,43.9780125 174.131987,42.785175 L174.131987,31.05345 C174.164702,29.4759375 173.897815,28.2184125 173.330464,27.2800125 C172.763113,26.3416125 171.695563,25.8612 170.126954,25.8379125 C168.407682,25.8637875 166.951854,26.3511 165.758609,27.2989875 C164.565364,28.2460125 163.73543,29.4975 163.268808,31.05345 C163.093179,31.5813 162.966623,32.12985 162.885695,32.7034125 C162.805629,33.2743875 162.766887,33.860025 162.766887,34.4629125 L162.766887,46.190325 L156.469205,46.190325" id="Fill-34" fill="#4E4E4E" sketch:type="MSShapeGroup"></path>
        </g>
    </g>
</svg>