<svg width="60" height="60" viewBox="0 0 60 60" fill="none" xmlns="http://www.w3.org/2000/svg">
<circle cx="30" cy="30" r="30" fill="#4488EE"/>
<circle cx="30" cy="30" r="30" fill="url(#paint0_radial_552:144)"/>
<path fill-rule="evenodd" clip-rule="evenodd" d="M18 22.4286C18 21.6396 18.6396 21 19.4286 21H40.8571C44.802 21 48 24.198 48 28.1429C48 32.0877 44.802 35.2857 40.8571 35.2857H39.4286V38.1429C39.4286 39.7208 38.1494 41 36.5714 41H20.8571C19.2792 41 18 39.7208 18 38.1429V22.4286ZM39.4286 32.4286V23.8571H40.8571C43.2241 23.8571 45.1429 25.7759 45.1429 28.1429C45.1429 30.5098 43.2241 32.4286 40.8571 32.4286H39.4286Z" fill="white"/>
<path d="M23.3317 26.3318C21.937 27.7266 21.937 29.9878 23.3317 31.3826L27.8774 35.9282C28.1599 36.2107 28.5312 36.3502 28.9014 36.3466C29.2719 36.3504 29.6437 36.211 29.9264 35.9283L34.3206 31.5341C35.7432 30.1115 35.7432 27.8049 34.3206 26.3824C32.898 24.9597 30.5914 24.9597 29.1688 26.3824L28.8009 26.7503L28.3825 26.3318C26.9878 24.9371 24.7265 24.9371 23.3317 26.3318Z" fill="#FF0000"/>
<defs>
<radialGradient id="paint0_radial_552:144" cx="0" cy="0" r="1" gradientUnits="userSpaceOnUse" gradientTransform="translate(29.6608 30.2762) rotate(90) scale(59.7238)">
<stop stop-color="#79C8F8"/>
<stop offset="1" stop-color="#006CCE"/>
</radialGradient>
</defs>
</svg>
