<svg width="45" height="32" viewBox="0 0 45 32" fill="none" xmlns="http://www.w3.org/2000/svg">
<path d="M7.79919 6.83282C7.44373 6.17657 6.84216 5.84845 5.99451 5.87579C5.20154 5.87579 4.02576 6.36798 4.02576 7.98126C4.02576 9.78595 5.42029 10.0867 6.04919 10.0867C7.1156 10.0867 7.66248 9.32111 7.82654 9.02032L6.97888 8.58282C6.81482 8.96564 6.54138 9.15704 6.15857 9.15704C5.50232 9.15704 5.22888 8.61017 5.22888 7.98126C5.22888 7.16095 5.55701 6.77814 6.15857 6.77814C6.21326 6.77814 6.65076 6.77814 6.89685 7.32501L7.79919 6.83282ZM11.7094 6.83282C11.3539 6.17657 10.7797 5.84845 9.93201 5.87579C9.11169 5.87579 7.93591 6.36798 7.93591 7.98126C7.93591 9.81329 9.33044 10.0867 9.95935 10.0867C11.1625 10.0867 11.682 9.10236 11.7367 9.02032L10.889 8.58282C10.725 8.96564 10.4515 9.15704 10.0687 9.15704C9.41248 9.15704 9.13904 8.61017 9.13904 7.98126C9.13904 7.16095 9.46716 6.77814 10.0687 6.77814C10.1234 6.77814 10.5609 6.77814 10.8344 7.32501L11.7094 6.83282ZM7.85388 1.20001C3.94373 1.20001 1.09998 4.34454 1.09998 7.98126C1.09998 11.7547 4.18982 14.7625 7.85388 14.7625C11.4086 14.7625 14.6625 12.0008 14.6625 7.98126C14.6625 4.20782 11.7367 1.20001 7.85388 1.20001ZM7.88123 13.5047C4.79138 13.5047 2.3031 10.9617 2.3031 7.98126C2.3031 5.08282 4.65466 2.40314 7.88123 2.40314C10.9437 2.40314 13.432 4.86407 13.432 7.98126C13.432 11.2899 10.6976 13.5047 7.88123 13.5047Z" fill="white"/>
<path d="M24.2484 6.31329C24.2484 6.17657 24.2211 6.09454 24.139 6.01251C24.0297 5.90314 23.9476 5.87579 23.8383 5.87579H21.0492C20.9125 5.87579 20.8031 5.90314 20.7211 6.01251C20.639 6.09454 20.6117 6.17657 20.6117 6.31329V9.07501H21.3773V12.3836H23.4828V9.07501H24.2484V6.31329ZM21.4867 4.56329C21.4867 5.1922 21.7875 5.52032 22.4164 5.52032C23.0453 5.52032 23.3734 5.1922 23.3734 4.56329C23.3734 3.93439 23.0453 3.60626 22.4164 3.60626C21.7875 3.60626 21.4867 3.93439 21.4867 4.56329ZM22.4164 1.20001C18.5062 1.20001 15.6625 4.37189 15.6625 7.98126C15.6625 11.782 18.7523 14.7625 22.4164 14.7625C25.9711 14.7625 29.225 12.0281 29.225 7.98126C29.225 4.23517 26.2992 1.20001 22.4164 1.20001ZM22.4437 2.43048C25.5336 2.43048 27.9945 4.89142 27.9945 7.98126C27.9945 11.3172 25.2601 13.532 22.4437 13.532C19.3539 13.532 16.8656 10.9891 16.8656 7.98126C16.8656 5.11017 19.2172 2.43048 22.4437 2.43048Z" fill="white"/>
<path d="M36.9789 1.20001C33.0687 1.20001 30.225 4.37189 30.225 7.98126C30.225 11.782 33.3148 14.7625 36.9789 14.7625C40.5336 14.7625 43.7875 12.0281 43.7875 7.98126C43.7875 4.23517 40.8617 1.20001 36.9789 1.20001ZM37.0062 2.43048C40.0961 2.43048 42.557 4.89142 42.557 7.98126C42.557 11.3172 39.8226 13.532 37.0062 13.532C33.9164 13.532 31.4281 10.9891 31.4281 7.98126C31.4281 5.11017 33.7797 2.43048 37.0062 2.43048ZM33.9711 7.02423H33.4515L34.7914 8.39142L36.1312 7.02423H35.639C35.7484 6.23126 36.2679 5.84845 37.1703 5.84845C37.3617 5.84845 38.7015 5.79376 38.7015 8.03595C38.7015 9.81329 37.7719 10.3055 37.1156 10.3055C36.1586 10.3055 35.6664 9.89532 35.639 9.07501H33.9164C34.2172 11.1805 35.8578 11.7274 36.9242 11.7274C39.3304 11.7274 40.4515 9.84064 40.4515 8.09064C40.4515 6.66876 39.6859 4.42657 36.9515 4.42657C36.1859 4.42657 34.3265 4.7547 33.9711 7.02423Z" fill="white"/>
<path d="M7.79919 22.8328C7.44373 22.1766 6.84216 21.8484 5.99451 21.8758C5.20154 21.8758 4.02576 22.368 4.02576 23.9813C4.02576 25.7859 5.42029 26.0867 6.04919 26.0867C7.1156 26.0867 7.66248 25.3211 7.82654 25.0203L6.97888 24.5828C6.81482 24.9656 6.54138 25.157 6.15857 25.157C5.50232 25.157 5.22888 24.6102 5.22888 23.9813C5.22888 23.1609 5.55701 22.7781 6.15857 22.7781C6.21326 22.7781 6.65076 22.7781 6.89685 23.325L7.79919 22.8328ZM11.7094 22.8328C11.3539 22.1766 10.7797 21.8484 9.93201 21.8758C9.11169 21.8758 7.93591 22.368 7.93591 23.9813C7.93591 25.8133 9.33044 26.0867 9.95935 26.0867C11.1625 26.0867 11.682 25.1024 11.7367 25.0203L10.889 24.5828C10.725 24.9656 10.4515 25.157 10.0687 25.157C9.41248 25.157 9.13904 24.6102 9.13904 23.9813C9.13904 23.1609 9.46716 22.7781 10.0687 22.7781C10.1234 22.7781 10.5609 22.7781 10.8344 23.325L11.7094 22.8328ZM7.85388 17.2C3.94373 17.2 1.09998 20.3445 1.09998 23.9813C1.09998 27.7547 4.18982 30.7625 7.85388 30.7625C11.4086 30.7625 14.6625 28.0008 14.6625 23.9813C14.6625 20.2078 11.7367 17.2 7.85388 17.2ZM7.88123 29.5047C4.79138 29.5047 2.3031 26.9617 2.3031 23.9813C2.3031 21.0828 4.65466 18.4031 7.88123 18.4031C10.9437 18.4031 13.432 20.8641 13.432 23.9813C13.432 27.2899 10.6976 29.5047 7.88123 29.5047Z" fill="#EAC102"/>
<path d="M24.2484 22.3133C24.2484 22.1766 24.2211 22.0945 24.139 22.0125C24.0297 21.9031 23.9476 21.8758 23.8383 21.8758H21.0492C20.9125 21.8758 20.8031 21.9031 20.7211 22.0125C20.639 22.0945 20.6117 22.1766 20.6117 22.3133V25.075H21.3773V28.3836H23.4828V25.075H24.2484V22.3133ZM21.4867 20.5633C21.4867 21.1922 21.7875 21.5203 22.4164 21.5203C23.0453 21.5203 23.3734 21.1922 23.3734 20.5633C23.3734 19.9344 23.0453 19.6063 22.4164 19.6063C21.7875 19.6063 21.4867 19.9344 21.4867 20.5633ZM22.4164 17.2C18.5062 17.2 15.6625 20.3719 15.6625 23.9813C15.6625 27.782 18.7523 30.7625 22.4164 30.7625C25.9711 30.7625 29.225 28.0281 29.225 23.9813C29.225 20.2352 26.2992 17.2 22.4164 17.2ZM22.4437 18.4305C25.5336 18.4305 27.9945 20.8914 27.9945 23.9813C27.9945 27.3172 25.2601 29.532 22.4437 29.532C19.3539 29.532 16.8656 26.9891 16.8656 23.9813C16.8656 21.1102 19.2172 18.4305 22.4437 18.4305Z" fill="#EAC102"/>
<path d="M36.9789 17.2C33.0687 17.2 30.225 20.3719 30.225 23.9813C30.225 27.782 33.3148 30.7625 36.9789 30.7625C40.5336 30.7625 43.7875 28.0281 43.7875 23.9813C43.7875 20.2352 40.8617 17.2 36.9789 17.2ZM37.0062 18.4305C40.0961 18.4305 42.557 20.8914 42.557 23.9813C42.557 27.3172 39.8226 29.532 37.0062 29.532C33.9164 29.532 31.4281 26.9891 31.4281 23.9813C31.4281 21.1102 33.7797 18.4305 37.0062 18.4305ZM33.9711 23.0242H33.4515L34.7914 24.3914L36.1312 23.0242H35.639C35.7484 22.2313 36.2679 21.8484 37.1703 21.8484C37.3617 21.8484 38.7015 21.7938 38.7015 24.0359C38.7015 25.8133 37.7719 26.3055 37.1156 26.3055C36.1586 26.3055 35.6664 25.8953 35.639 25.075H33.9164C34.2172 27.1805 35.8578 27.7274 36.9242 27.7274C39.3304 27.7274 40.4515 25.8406 40.4515 24.0906C40.4515 22.6688 39.6859 20.4266 36.9515 20.4266C36.1859 20.4266 34.3265 20.7547 33.9711 23.0242Z" fill="#EAC102"/>
</svg>
