<svg width="160" height="40" viewBox="0 0 160 40" fill="none" xmlns="http://www.w3.org/2000/svg">
<g clip-path="url(#clip0_702_16)">
<path d="M64.3617 10.2959C66.08 9.23265 67.3485 8.90098 68.1993 9.02448L68.3236 9.04781C68.3416 9.0521 68.3583 9.05654 68.3735 9.06106C68.5873 9.12447 68.7618 9.2797 68.8496 9.48465C69.3655 10.6883 69.4583 12.0254 69.1229 13.2802L69.0942 13.3753L69.1597 13.4542C69.9665 14.4712 70.4348 15.7188 70.4939 17.0204L70.5002 17.3001C70.5002 21.8923 68.445 24.0797 64.7027 24.8426L64.6022 24.8613L64.675 25.017L64.7669 25.2497C64.9367 25.7213 65.0188 26.2192 65.0114 26.682L65.0002 26.9101V29.7801C65.0002 30.1943 64.6645 30.5301 64.2502 30.5301C63.8706 30.5301 63.5568 30.248 63.5071 29.8819L63.5002 29.7801L63.5026 26.8513C63.5317 26.4806 63.4816 26.1079 63.3556 25.7581C63.2296 25.4082 63.0305 25.0891 62.7717 24.8221C62.3379 24.3746 62.6076 23.6238 63.2272 23.5547C67.1104 23.1219 69.0002 21.5328 69.0002 17.3003C69 16.0965 68.537 14.939 67.707 14.0672C67.5091 13.8594 67.4472 13.5568 67.5476 13.2879C67.8762 12.4072 67.9071 11.448 67.6437 10.5551L67.6322 10.5203L67.5574 10.5321C67.4801 10.5454 67.3945 10.5635 67.3004 10.5872L67.1527 10.6272C66.482 10.8202 65.6558 11.2209 64.6678 11.8831C64.4875 12.004 64.2636 12.0408 64.0541 11.984C61.8905 11.3976 59.61 11.3976 57.4464 11.984C57.2369 12.0408 57.013 12.004 56.8326 11.8831C55.8447 11.2209 55.0185 10.8202 54.3478 10.6272C54.1936 10.5828 54.059 10.5521 53.9431 10.5321L53.8672 10.5203L53.8567 10.5551C53.6173 11.3669 53.621 12.2333 53.8706 13.0458L53.9529 13.2879C54.0533 13.5568 53.9913 13.8594 53.7934 14.0673C52.9573 14.9455 52.4938 16.1135 52.5002 17.3301C52.5002 21.5239 54.3752 23.1005 58.2827 23.5858C58.8966 23.6621 59.1594 24.407 58.7292 24.8516C58.4734 25.116 58.2761 25.4312 58.1502 25.7768C58.0495 26.0532 57.9962 26.3442 57.9931 26.6643L58.0002 26.9101V29.7801C58.0002 30.1943 57.6645 30.5301 57.2502 30.5301C56.8705 30.5301 56.5567 30.248 56.5071 29.8819L56.5002 29.7801L56.5021 26.9627C56.4615 26.3858 56.5429 25.8067 56.7409 25.2632C56.7691 25.1856 56.7997 25.109 56.8325 25.0334L56.9042 24.8803L56.7851 24.8559C53.1195 24.0707 51.0915 21.9814 51.0032 17.634L51.0001 17.334C50.9927 15.9219 51.4681 14.5556 52.3382 13.4574L52.4052 13.3753L52.3776 13.2802C52.0661 12.115 52.1239 10.8789 52.5468 9.74453L52.6509 9.48463C52.7387 9.2797 52.9132 9.12447 53.127 9.06106L53.2349 9.03549C53.2557 9.03158 53.2778 9.02789 53.3012 9.02448C54.152 8.90098 55.4205 9.23265 57.1388 10.2959L57.3842 10.4513L57.4825 10.4273C59.631 9.91653 61.8695 9.91653 64.018 10.4273L64.1152 10.4513L64.3617 10.2959Z" fill="white"/>
<path fill-rule="evenodd" clip-rule="evenodd" d="M49.6648 24.3557C50.0353 24.1705 50.4858 24.3206 50.671 24.6911C51.3605 26.0701 52.2421 26.9126 53.2271 27.3245C54.2125 27.7367 55.3973 27.758 56.7688 27.3131C57.1628 27.1853 57.5858 27.4011 57.7136 27.7951C57.8414 28.1891 57.6256 28.6121 57.2316 28.7399C55.6031 29.2682 54.0379 29.2896 52.6483 28.7084C51.2582 28.127 50.1399 26.9829 49.3294 25.3619C49.1441 24.9914 49.2943 24.5409 49.6648 24.3557Z" fill="white"/>
<path fill-rule="evenodd" clip-rule="evenodd" d="M93.4 10.55C93.5416 10.3611 93.7639 10.25 94 10.25H108C108.414 10.25 108.75 10.5858 108.75 11V22C108.75 22.2226 108.651 22.4337 108.48 22.5762L102.48 27.5762C102.345 27.6885 102.175 27.75 102 27.75H99.3107L95.5303 31.5303C95.3158 31.7448 94.9932 31.809 94.713 31.6929C94.4327 31.5768 94.25 31.3033 94.25 31V27.75H91C90.5858 27.75 90.25 27.4142 90.25 27V15C90.25 14.8377 90.3026 14.6798 90.4 14.55L93.4 10.55ZM94.375 11.75L91.75 15.25V26.25H95C95.4142 26.25 95.75 26.5858 95.75 27V29.1893L98.4697 26.4697C98.6103 26.329 98.8011 26.25 99 26.25H101.728L107.25 21.6487V11.75H94.375Z" fill="white"/>
<path d="M100.5 14.75C100.5 14.3358 100.164 14 99.75 14C99.3358 14 99 14.3358 99 14.75V17.25C99 17.6642 99.3358 18 99.75 18C100.164 18 100.5 17.6642 100.5 17.25V14.75Z" fill="white"/>
<path d="M104.5 14.75C104.5 14.3358 104.164 14 103.75 14C103.336 14 103 14.3358 103 14.75V17.25C103 17.6642 103.336 18 103.75 18C104.164 18 104.5 17.6642 104.5 17.25V14.75Z" fill="white"/>
<path fill-rule="evenodd" clip-rule="evenodd" d="M95 11.25C95.4142 11.25 95.75 11.5858 95.75 12V21.25H108C108.414 21.25 108.75 21.5858 108.75 22C108.75 22.4142 108.414 22.75 108 22.75H95C94.5858 22.75 94.25 22.4142 94.25 22V12C94.25 11.5858 94.5858 11.25 95 11.25Z" fill="white"/>
<path fill-rule="evenodd" clip-rule="evenodd" d="M138.872 17.3488C138.64 17.2162 138.355 17.2171 138.124 17.3513C137.892 17.4855 137.75 17.7326 137.75 18V22C137.75 22.2674 137.892 22.5145 138.124 22.6487C138.355 22.7829 138.64 22.7838 138.872 22.6512L142.372 20.6512C142.606 20.5177 142.75 20.2691 142.75 20C142.75 19.7309 142.606 19.4823 142.372 19.3488L138.872 17.3488Z" fill="white"/>
<path d="M130 20.707V19.2919C130 16.3966 130 14.9489 130.905 14.0174C131.811 13.086 133.237 13.0456 136.088 12.965C137.439 12.9268 138.819 12.8994 140 12.8994C141.181 12.8994 142.561 12.9268 143.912 12.965C146.763 13.0456 148.189 13.086 149.094 14.0174C150 14.9489 150 16.3966 150 19.2919V20.707C150 23.6023 150 25.05 149.094 25.9814C148.189 26.9129 146.764 26.9532 143.912 27.0339C142.561 27.0721 141.181 27.0995 140 27.0995C138.819 27.0995 137.439 27.0721 136.088 27.0339C133.237 26.9532 131.811 26.9129 130.905 25.9814C130 25.05 130 23.6023 130 20.707Z" stroke="white" stroke-width="1.5"/>
<path fill-rule="evenodd" clip-rule="evenodd" d="M16.7366 26.156C16.9506 26.886 17.4476 27.236 18.0626 27.408C18.6696 27.578 19.3656 27.606 20.0466 27.631C21.7836 27.687 23.3296 27.193 23.3296 27.193C23.5516 27.121 23.7946 27.158 23.9866 27.291C24.1786 27.424 24.2976 27.64 24.3076 27.873L24.3856 29.846C24.3986 30.132 24.2476 30.4 23.9976 30.538C23.9976 30.538 22.5776 31.334 20.0406 31.477C18.6916 31.556 17.0146 31.445 15.0626 30.918C12.1976 30.143 10.8056 27.918 10.1736 25.095C9.59462 22.509 9.66262 19.41 9.66262 16.645C9.66262 11.568 12.9746 10.093 13.0236 10.072C14.5136 9.37601 17.2466 9.00201 19.9876 9.00001C22.7276 8.99801 25.4686 9.36801 26.9726 10.072C27.0246 10.094 30.3316 11.57 30.3326 16.642C30.3336 16.791 30.3576 19.895 29.9066 22.237C29.7656 22.968 29.2646 23.745 28.4796 24.417C27.4276 25.317 25.8606 26.049 24.1586 26.256C23.2896 26.362 20.3316 26.842 16.7366 26.156ZM28.8326 16.645C28.8326 12.647 26.3486 11.436 26.3486 11.436C26.3466 11.435 26.3446 11.434 26.3416 11.433C24.9776 10.793 22.4796 10.498 19.9886 10.5C17.4966 10.502 15.0056 10.799 13.6536 11.433C13.6516 11.434 13.6496 11.435 13.6476 11.436C13.6476 11.436 11.1626 12.647 11.1626 16.645C11.1626 19.302 11.0806 22.282 11.6366 24.767C12.1406 27.016 13.1716 28.853 15.4536 29.47C17.2186 29.946 18.7346 30.051 19.9546 29.98C21.3496 29.901 22.3456 29.599 22.8646 29.401L22.8506 28.858C22.1416 29.007 21.1026 29.166 19.9966 29.13H19.9946C17.7736 29.051 15.5306 28.731 15.1656 25.946C15.1336 25.697 15.1176 25.447 15.1186 25.195C15.1196 24.965 15.2256 24.748 15.4076 24.606C15.5896 24.464 15.8266 24.414 16.0496 24.47C19.8476 25.417 23 25.195 23.9766 25.011C25.3646 24.598 26.6466 24.011 27.5046 23.277C27.9916 22.86 28.3456 22.407 28.4336 21.953C28.8716 19.681 28.8326 16.653 28.8326 16.653C28.8326 16.65 28.8326 16.648 28.8326 16.645Z" fill="white"/>
<path d="M15.2625 17.3808C15.2625 16.2603 16.1704 15.3523 17.29 15.3523C18.4106 15.3523 19.3185 16.2603 19.3185 17.3808V19.0703C19.3185 19.4438 19.6212 19.7464 19.9947 19.7464C20.3682 19.7464 20.6708 19.4438 20.6708 19.0703V17.3808C20.6708 16.2603 21.5788 15.3523 22.6993 15.3523C23.8189 15.3523 24.7269 16.2603 24.7269 17.3808V21.3238C24.7269 21.6974 25.0295 22 25.403 22C25.7766 22 26.0792 21.6974 26.0792 21.3238V17.3808C26.0792 15.5132 24.566 14 22.6993 14C21.5931 14 20.6115 14.5306 19.9947 15.3514C19.3779 14.5306 18.3962 14 17.29 14C15.4234 14 13.9102 15.5132 13.9102 17.3808V21.3238C13.9102 21.6974 14.2128 22 14.5863 22C14.9598 22 15.2625 21.6974 15.2625 21.3238V17.3808Z" fill="white"/>
</g>
<defs>
<clipPath id="clip0_702_16">
<rect width="160" height="40" fill="white"/>
</clipPath>
</defs>
</svg>
