<svg width="120" height="80" viewBox="0 0 120 80" fill="none" xmlns="http://www.w3.org/2000/svg">
<g clip-path="url(#clip0)">
<path d="M14.7207 28.2852C14.7207 28.4023 14.5859 28.4961 14.416 28.4961C14.2227 28.5137 14.0879 28.4199 14.0879 28.2852C14.0879 28.168 14.2227 28.0742 14.3926 28.0742C14.5684 28.0566 14.7207 28.1504 14.7207 28.2852ZM12.8984 28.0215C12.8574 28.1387 12.9746 28.2734 13.1504 28.3086C13.3027 28.3672 13.4785 28.3086 13.5137 28.1914C13.5488 28.0742 13.4375 27.9395 13.2617 27.8867C13.1094 27.8457 12.9395 27.9043 12.8984 28.0215ZM15.4883 27.9219C15.3184 27.9629 15.2012 28.0742 15.2187 28.209C15.2363 28.3262 15.3887 28.4023 15.5645 28.3613C15.7344 28.3203 15.8516 28.209 15.834 28.0918C15.8164 27.9805 15.6582 27.9043 15.4883 27.9219ZM19.3438 5.46875C11.2168 5.46875 5 11.6387 5 19.7656C5 26.2637 9.08984 31.8242 14.9316 33.7813C15.6816 33.916 15.9453 33.4531 15.9453 33.0723C15.9453 32.709 15.9277 30.7051 15.9277 29.4746C15.9277 29.4746 11.8262 30.3535 10.9648 27.7285C10.9648 27.7285 10.2969 26.0234 9.33594 25.584C9.33594 25.584 7.99414 24.6641 9.42969 24.6816C9.42969 24.6816 10.8887 24.7988 11.6914 26.1934C12.9746 28.4551 15.125 27.8047 15.9629 27.418C16.0977 26.4805 16.4785 25.8301 16.9004 25.4434C13.625 25.0801 10.3203 24.6055 10.3203 18.9687C10.3203 17.3574 10.7656 16.5488 11.7031 15.5176C11.5508 15.1367 11.0527 13.5664 11.8555 11.5391C13.0801 11.1582 15.8984 13.1211 15.8984 13.1211C17.0703 12.793 18.3301 12.623 19.5781 12.623C20.8262 12.623 22.0859 12.793 23.2578 13.1211C23.2578 13.1211 26.0762 11.1523 27.3008 11.5391C28.1035 13.5723 27.6055 15.1367 27.4531 15.5176C28.3906 16.5547 28.9648 17.3633 28.9648 18.9687C28.9648 24.623 25.5137 25.0742 22.2383 25.4434C22.7773 25.9062 23.2344 26.7852 23.2344 28.1621C23.2344 30.1367 23.2168 32.5801 23.2168 33.0605C23.2168 33.4414 23.4863 33.9043 24.2305 33.7695C30.0898 31.8242 34.0625 26.2637 34.0625 19.7656C34.0625 11.6387 27.4707 5.46875 19.3438 5.46875ZM10.6953 25.6777C10.6191 25.7363 10.6367 25.8711 10.7363 25.9824C10.8301 26.0762 10.9648 26.1172 11.041 26.041C11.1172 25.9824 11.0996 25.8477 11 25.7363C10.9063 25.6426 10.7715 25.6016 10.6953 25.6777ZM10.0625 25.2031C10.0215 25.2793 10.0801 25.373 10.1973 25.4316C10.291 25.4902 10.4082 25.4727 10.4492 25.3906C10.4902 25.3145 10.4316 25.2207 10.3145 25.1621C10.1973 25.127 10.1035 25.1445 10.0625 25.2031ZM11.9609 27.2891C11.8672 27.3652 11.9023 27.541 12.0371 27.6523C12.1719 27.7871 12.3418 27.8047 12.418 27.7109C12.4941 27.6348 12.459 27.459 12.3418 27.3477C12.2129 27.2129 12.0371 27.1953 11.9609 27.2891ZM11.293 26.4277C11.1992 26.4863 11.1992 26.6387 11.293 26.7734C11.3867 26.9082 11.5449 26.9668 11.6211 26.9082C11.7148 26.832 11.7148 26.6797 11.6211 26.5449C11.5391 26.4102 11.3867 26.3516 11.293 26.4277Z" fill="#3D9AE3"/>
</g>
<g clip-path="url(#clip1)">
<path d="M14.7207 68.2852C14.7207 68.4023 14.5859 68.4961 14.416 68.4961C14.2227 68.5137 14.0879 68.4199 14.0879 68.2852C14.0879 68.168 14.2227 68.0742 14.3926 68.0742C14.5684 68.0566 14.7207 68.1504 14.7207 68.2852ZM12.8984 68.0215C12.8574 68.1387 12.9746 68.2734 13.1504 68.3086C13.3027 68.3672 13.4785 68.3086 13.5137 68.1914C13.5488 68.0742 13.4375 67.9395 13.2617 67.8867C13.1094 67.8457 12.9395 67.9043 12.8984 68.0215ZM15.4883 67.9219C15.3184 67.9629 15.2012 68.0742 15.2187 68.209C15.2363 68.3262 15.3887 68.4023 15.5645 68.3613C15.7344 68.3203 15.8516 68.209 15.834 68.0918C15.8164 67.9805 15.6582 67.9043 15.4883 67.9219ZM19.3438 45.4688C11.2168 45.4688 5 51.6387 5 59.7656C5 66.2637 9.08984 71.8242 14.9316 73.7813C15.6816 73.916 15.9453 73.4531 15.9453 73.0723C15.9453 72.709 15.9277 70.7051 15.9277 69.4746C15.9277 69.4746 11.8262 70.3535 10.9648 67.7285C10.9648 67.7285 10.2969 66.0234 9.33594 65.584C9.33594 65.584 7.99414 64.6641 9.42969 64.6816C9.42969 64.6816 10.8887 64.7988 11.6914 66.1934C12.9746 68.4551 15.125 67.8047 15.9629 67.418C16.0977 66.4805 16.4785 65.8301 16.9004 65.4434C13.625 65.0801 10.3203 64.6055 10.3203 58.9687C10.3203 57.3574 10.7656 56.5488 11.7031 55.5176C11.5508 55.1367 11.0527 53.5664 11.8555 51.5391C13.0801 51.1582 15.8984 53.1211 15.8984 53.1211C17.0703 52.793 18.3301 52.623 19.5781 52.623C20.8262 52.623 22.0859 52.793 23.2578 53.1211C23.2578 53.1211 26.0762 51.1523 27.3008 51.5391C28.1035 53.5723 27.6055 55.1367 27.4531 55.5176C28.3906 56.5547 28.9648 57.3633 28.9648 58.9687C28.9648 64.623 25.5137 65.0742 22.2383 65.4434C22.7773 65.9062 23.2344 66.7852 23.2344 68.1621C23.2344 70.1367 23.2168 72.5801 23.2168 73.0605C23.2168 73.4414 23.4863 73.9043 24.2305 73.7695C30.0898 71.8242 34.0625 66.2637 34.0625 59.7656C34.0625 51.6387 27.4707 45.4688 19.3438 45.4688ZM10.6953 65.6777C10.6191 65.7363 10.6367 65.8711 10.7363 65.9824C10.8301 66.0762 10.9648 66.1172 11.041 66.041C11.1172 65.9824 11.0996 65.8477 11 65.7363C10.9063 65.6426 10.7715 65.6016 10.6953 65.6777ZM10.0625 65.2031C10.0215 65.2793 10.0801 65.373 10.1973 65.4316C10.291 65.4902 10.4082 65.4727 10.4492 65.3906C10.4902 65.3145 10.4316 65.2207 10.3145 65.1621C10.1973 65.127 10.1035 65.1445 10.0625 65.2031ZM11.9609 67.2891C11.8672 67.3652 11.9023 67.541 12.0371 67.6523C12.1719 67.7871 12.3418 67.8047 12.418 67.7109C12.4941 67.6348 12.459 67.459 12.3418 67.3477C12.2129 67.2129 12.0371 67.1953 11.9609 67.2891ZM11.293 66.4277C11.1992 66.4863 11.1992 66.6387 11.293 66.7734C11.3867 66.9082 11.5449 66.9668 11.6211 66.9082C11.7148 66.832 11.7148 66.6797 11.6211 66.5449C11.5391 66.4102 11.3867 66.3516 11.293 66.4277Z" fill="#24292E"/>
</g>
<path d="M113.628 13.4627C113.301 12.2309 112.337 11.2608 111.113 10.9316C108.895 10.3333 100 10.3333 100 10.3333C100 10.3333 91.1052 10.3333 88.8869 10.9316C87.6631 11.2608 86.6993 12.2309 86.3721 13.4627C85.7778 15.6953 85.7778 20.3536 85.7778 20.3536C85.7778 20.3536 85.7778 25.0118 86.3721 27.2444C86.6993 28.4762 87.6631 29.4059 88.8869 29.7351C91.1052 30.3333 100 30.3333 100 30.3333C100 30.3333 108.895 30.3333 111.113 29.7351C112.337 29.4059 113.301 28.4762 113.628 27.2444C114.222 25.0118 114.222 20.3536 114.222 20.3536C114.222 20.3536 114.222 15.6953 113.628 13.4627V13.4627ZM97.0909 24.5829V16.1242L104.525 20.3537L97.0909 24.5829V24.5829Z" fill="#3D9AE3"/>
<path d="M113.628 53.4627C113.301 52.2309 112.337 51.2608 111.113 50.9316C108.895 50.3333 100 50.3333 100 50.3333C100 50.3333 91.1052 50.3333 88.8869 50.9316C87.6631 51.2608 86.6993 52.2309 86.3721 53.4627C85.7778 55.6953 85.7778 60.3536 85.7778 60.3536C85.7778 60.3536 85.7778 65.0118 86.3721 67.2444C86.6993 68.4762 87.6631 69.4059 88.8869 69.7351C91.1052 70.3333 100 70.3333 100 70.3333C100 70.3333 108.895 70.3333 111.113 69.7351C112.337 69.4059 113.301 68.4762 113.628 67.2444C114.222 65.0118 114.222 60.3536 114.222 60.3536C114.222 60.3536 114.222 55.6953 113.628 53.4627V53.4627ZM97.0909 64.5829V56.1242L104.525 60.3537L97.0909 64.5829V64.5829Z" fill="#FF0000"/>
<path d="M67.9201 11.0627H65.6566V17.4904H67.9201V11.0627ZM61.6992 11.0352H59.4357V17.4658H61.6992V11.0352ZM52.0799 5L46.4244 10.3566V29.6434H53.2113V35L58.8674 29.6434H63.3938L73.5756 20V5H52.0799ZM71.3127 18.9307L66.7881 23.215H62.2623L58.3014 26.965V23.215H53.2113V7.14336H71.3127V18.9307Z" fill="#3D9AE3"/>
<path d="M67.9201 51.0627H65.6566V57.4904H67.9201V51.0627ZM61.6992 51.0352H59.4357V57.4658H61.6992V51.0352ZM52.0799 45L46.4244 50.3566V69.6434H53.2113V75L58.8674 69.6434H63.3938L73.5756 60V45H52.0799ZM71.3127 58.9307L66.7881 63.215H62.2623L58.3014 66.965V63.215H53.2113V47.1434H71.3127V58.9307Z" fill="#A970FF"/>
<defs>
<clipPath id="clip0">
<rect width="29.0625" height="30" fill="white" transform="translate(5 5)"/>
</clipPath>
<clipPath id="clip1">
<rect width="29.0625" height="30" fill="white" transform="translate(5 45)"/>
</clipPath>
</defs>
</svg>
