<?xml version="1.0" encoding="UTF-8" standalone="no"?>
<!DOCTYPE svg PUBLIC "-//W3C//DTD SVG 1.1//EN" "http://www.w3.org/Graphics/SVG/1.1/DTD/svg11.dtd">
<svg width="100%" height="100%" viewBox="0 0 160 40" version="1.1" xmlns="http://www.w3.org/2000/svg" xmlns:xlink="http://www.w3.org/1999/xlink" xml:space="preserve" xmlns:serif="http://www.serif.com/" style="fill-rule:evenodd;clip-rule:evenodd;stroke-linejoin:round;stroke-miterlimit:2;">
    <g>
        <g id="codeberg" transform="matrix(1,0,0,1,48,9)">
            <path d="M3.921,17.517C3.868,17.578 3.804,17.632 3.73,17.675C3.373,17.883 2.913,17.762 2.705,17.404C1.78,15.816 1.25,13.97 1.25,12C1.25,6.063 6.063,1.25 12,1.25C17.937,1.25 22.75,6.063 22.75,12C22.75,13.963 22.224,15.802 21.306,17.386C21.299,17.399 21.291,17.411 21.284,17.423C20.139,19.379 18.394,20.94 16.302,21.855C16.302,21.855 16.301,21.855 16.3,21.855C16.269,21.869 16.237,21.881 16.204,21.89C15.844,21.992 15.462,21.811 15.313,21.468C15.299,21.437 15.287,21.405 15.278,21.372C15.278,21.371 11.657,8.546 11.657,8.546L3.921,17.517ZM20.485,15.69C20.977,14.56 21.25,13.312 21.25,12C21.25,6.891 17.109,2.75 12,2.75C6.891,2.75 2.75,6.891 2.75,12C2.75,13.311 3.023,14.56 3.515,15.691C3.515,15.691 11.432,6.511 11.432,6.51C11.456,6.483 11.482,6.456 11.51,6.432C11.824,6.162 12.298,6.197 12.568,6.51L20.485,15.69ZM16.477,20.097C17.784,19.372 18.897,18.341 19.719,17.099L13.641,10.051L16.477,20.097Z" style="fill:white;"/>
        </g>
        <path id="twitch" d="M108.48,22.576L102.48,27.576C102.345,27.689 102.175,27.75 102,27.75L99.311,27.75L95.53,31.53C95.316,31.745 94.993,31.809 94.713,31.693C94.433,31.577 94.25,31.303 94.25,31L94.25,27.75L91,27.75C90.586,27.75 90.25,27.414 90.25,27L90.25,15C90.25,14.838 90.303,14.68 90.4,14.55L93.4,10.55C93.542,10.361 93.764,10.25 94,10.25L108,10.25C108.414,10.25 108.75,10.586 108.75,11L108.75,22C108.75,22.227 108.648,22.436 108.48,22.576ZM107.25,21.25L107.25,11.75L95.707,11.75C95.735,11.828 95.75,11.912 95.75,12L95.75,21.25L107.25,21.25ZM94.255,11.909L91.75,15.25L91.75,26.25L95,26.25C95.414,26.25 95.75,26.586 95.75,27L95.75,29.189L98.47,26.47C98.61,26.329 98.801,26.25 99,26.25L101.728,26.25L105.929,22.75L95,22.75C94.586,22.75 94.25,22.414 94.25,22L94.25,12C94.25,11.969 94.252,11.939 94.255,11.909ZM104.5,14.75L104.5,17.25C104.5,17.664 104.164,18 103.75,18C103.336,18 103,17.664 103,17.25L103,14.75C103,14.336 103.336,14 103.75,14C104.164,14 104.5,14.336 104.5,14.75ZM100.5,14.75L100.5,17.25C100.5,17.664 100.164,18 99.75,18C99.336,18 99,17.664 99,17.25L99,14.75C99,14.336 99.336,14 99.75,14C100.164,14 100.5,14.336 100.5,14.75Z" style="fill:white;"/>
        <g id="veedeo" transform="matrix(1,0,0,1,128,8)">
            <path d="M4.07,4.742C4.35,4.437 4.824,4.416 5.13,4.695C5.435,4.975 5.456,5.45 5.176,5.755C3.669,7.4 2.75,9.593 2.75,12C2.75,17.109 6.891,21.25 12,21.25C14.346,21.25 16.488,20.377 18.118,18.938C18.429,18.664 18.903,18.693 19.177,19.004C19.451,19.314 19.421,19.788 19.111,20.062C17.216,21.735 14.726,22.75 12,22.75C6.063,22.75 1.25,17.937 1.25,12C1.25,9.202 2.319,6.654 4.07,4.742ZM21.999,15.953C21.847,16.338 21.411,16.527 21.026,16.375C20.641,16.223 20.452,15.786 20.605,15.402C21.021,14.349 21.25,13.201 21.25,12C21.25,6.891 17.109,2.75 12,2.75C10.861,2.75 9.77,2.956 8.763,3.332C8.375,3.477 7.942,3.28 7.797,2.892C7.653,2.504 7.85,2.072 8.237,1.927C9.409,1.489 10.676,1.25 12,1.25C17.937,1.25 22.75,6.063 22.75,12C22.75,13.396 22.484,14.73 21.999,15.953ZM11.317,7.977L15.693,10.894L15.941,11.108L16.127,11.373L16.244,11.674L16.285,12L16.244,12.326L16.127,12.627L15.941,12.892L15.693,13.106L11.317,16.023L10.993,16.181L10.644,16.245L10.291,16.215L9.952,16.089L9.66,15.877L9.439,15.6L9.299,15.274L9.25,14.917L9.25,9.083L9.299,8.726L9.439,8.4L9.66,8.123L9.952,7.911L10.291,7.785L10.644,7.755L10.993,7.819L11.317,7.977ZM10.75,14.599L14.648,12L10.75,9.401L10.75,14.599Z" style="fill:white;"/>
        </g>
        <path id="mastodon" d="M16.737,26.156C16.951,26.886 17.448,27.236 18.063,27.408C18.67,27.578 19.366,27.606 20.047,27.631C21.784,27.687 23.33,27.193 23.33,27.193C23.552,27.121 23.795,27.158 23.987,27.291C24.179,27.424 24.298,27.64 24.308,27.873L24.386,29.846C24.399,30.132 24.248,30.4 23.998,30.538C23.998,30.538 22.578,31.334 20.041,31.477C18.692,31.556 17.015,31.445 15.063,30.918C12.198,30.143 10.806,27.918 10.174,25.095C9.595,22.509 9.663,19.41 9.663,16.645C9.663,11.568 12.975,10.093 13.024,10.072C14.514,9.376 17.247,9.002 19.988,9C22.728,8.998 25.469,9.368 26.973,10.072C27.025,10.094 30.332,11.57 30.333,16.642C30.334,16.791 30.358,19.895 29.907,22.237C29.766,22.968 29.265,23.745 28.48,24.417C27.428,25.317 25.861,26.049 24.159,26.256C23.29,26.362 20.332,26.842 16.737,26.156ZM28.833,16.645C28.833,12.647 26.349,11.436 26.349,11.436C26.347,11.435 26.345,11.434 26.342,11.433C24.978,10.793 22.48,10.498 19.989,10.5C17.497,10.502 15.006,10.799 13.654,11.433L13.648,11.436C13.648,11.436 11.163,12.647 11.163,16.645C11.163,19.302 11.081,22.282 11.637,24.767C12.141,27.016 13.172,28.853 15.454,29.47C17.219,29.946 18.735,30.051 19.955,29.98C21.35,29.901 22.346,29.599 22.865,29.401L22.851,28.858C22.142,29.007 21.103,29.166 19.997,29.13L19.995,29.13C17.774,29.051 15.531,28.731 15.166,25.946C15.134,25.697 15.118,25.447 15.119,25.195C15.12,24.965 15.226,24.748 15.408,24.606C15.59,24.464 15.827,24.414 16.05,24.47C19.848,25.417 23,25.195 23.977,25.011C25.365,24.598 26.647,24.011 27.505,23.277C27.992,22.86 28.346,22.407 28.434,21.953C28.872,19.681 28.833,16.653 28.833,16.653L28.833,16.645ZM15.262,17.381L15.262,21.324C15.262,21.697 14.96,22 14.586,22C14.213,22 13.91,21.697 13.91,21.324L13.91,17.381C13.91,15.513 15.423,14 17.29,14C18.396,14 19.378,14.531 19.995,15.351C20.612,14.531 21.593,14 22.699,14C24.566,14 26.079,15.513 26.079,17.381L26.079,21.324C26.079,21.697 25.777,22 25.403,22C25.03,22 24.727,21.697 24.727,21.324L24.727,17.381C24.727,16.26 23.819,15.352 22.699,15.352C21.579,15.352 20.671,16.26 20.671,17.381L20.671,19.07C20.671,19.444 20.368,19.746 19.995,19.746C19.621,19.746 19.319,19.444 19.319,19.07L19.319,17.381C19.319,16.26 18.411,15.352 17.29,15.352C16.17,15.352 15.262,16.26 15.262,17.381Z" style="fill:white;"/>
    </g>
</svg>
