<?xml version="1.0" encoding="UTF-8"?>
<svg width="32px" height="32px" viewBox="0 0 32 32" version="1.1" xmlns="http://www.w3.org/2000/svg" xmlns:xlink="http://www.w3.org/1999/xlink">
    <title>sprite-contact</title>
    <g id="sprite-contact" stroke="none" stroke-width="1" fill="none" fill-rule="evenodd">
        <path d="M31.696875,5.9625 C31.81875,5.865625 32,5.95625 32,6.109375 L32,12.5 C32,13.328125 31.328125,14 30.5,14 L17.5,14 C16.671875,14 16,13.328125 16,12.5 L16,6.1125 C16,5.95625 16.178125,5.86875 16.303125,5.965625 C17.003125,6.509375 17.93125,7.2 21.11875,9.515625 C21.778125,9.996875 22.890625,11.009375 24,11.003125 C25.115625,11.0125 26.25,9.978125 26.884375,9.515625 C30.071875,7.2 30.996875,6.50625 31.696875,5.9625 Z M24,10 C24.725,10.0125 25.76875,9.0875 26.29375,8.70625 C30.440625,5.696875 30.75625,5.434375 31.7125,4.684375 C31.89375,4.54375 32,4.325 32,4.09375 L32,3.5 C32,2.671875 31.328125,2 30.5,2 L17.5,2 C16.671875,2 16,2.671875 16,3.5 L16,4.09375 C16,4.325 16.10625,4.540625 16.2875,4.684375 C17.24375,5.43125 17.559375,5.696875 21.70625,8.70625 C22.23125,9.0875 23.275,10.0125 24,10 Z" id="mail" fill="#FFFFFF" fill-rule="nonzero"></path>
        <path d="M14.3553125,4.241125 C14.3654687,4.38325 14.3654687,4.52540625 14.3654687,4.66753125 C14.3654687,9.00253125 11.066,13.9974688 5.03553125,13.9974688 C3.17765625,13.9974688 1.45178125,13.459375 0,12.5254063 C0.26396875,12.5558438 0.51775,12.566 0.791875,12.566 C2.32484375,12.566 3.73603125,12.04825 4.8629375,11.165 C3.4213125,11.1345313 2.2131875,10.190375 1.7969375,8.890875 C2,8.9213125 2.20303125,8.941625 2.41625,8.941625 C2.71065625,8.941625 3.00509375,8.901 3.2791875,8.82996875 C1.77665625,8.525375 0.64971875,7.20559375 0.64971875,5.6116875 L0.64971875,5.57109375 C1.08625,5.81475 1.59390625,5.96703125 2.1319375,5.9873125 C1.2486875,5.39846875 0.67003125,4.39340625 0.67003125,3.25634375 C0.67003125,2.64721875 0.8324375,2.08884375 1.11671875,1.60153125 C2.7309375,3.591375 5.15734375,4.89084375 7.878125,5.033 C7.827375,4.78934375 7.79690625,4.5355625 7.79690625,4.28175 C7.79690625,2.474625 9.25884375,1.0025625 11.0760938,1.0025625 C12.02025,1.0025625 12.8730313,1.3985 13.4720313,2.03809375 C14.213125,1.89596875 14.9237813,1.62184375 15.55325,1.24621875 C15.3095625,2.00765625 14.7918125,2.64725 14.111625,3.0533125 C14.7715313,2.98228125 15.411125,2.7995 15.9999375,2.54571875 C15.5533125,3.1954375 14.9949063,3.77409375 14.3553125,4.241125 Z" id="twitter" fill="#FFFFFF" fill-rule="nonzero"></path>
        <path d="M31.696875,21.9625 C31.81875,21.865625 32,21.95625 32,22.109375 L32,28.5 C32,29.328125 31.328125,30 30.5,30 L17.5,30 C16.671875,30 16,29.328125 16,28.5 L16,22.1125 C16,21.95625 16.178125,21.86875 16.303125,21.965625 C17.003125,22.509375 17.93125,23.2 21.11875,25.515625 C21.778125,25.996875 22.890625,27.009375 24,27.003125 C25.115625,27.0125 26.25,25.978125 26.884375,25.515625 C30.071875,23.2 30.996875,22.50625 31.696875,21.9625 Z M24,26 C24.725,26.0125 25.76875,25.0875 26.29375,24.70625 C30.440625,21.696875 30.75625,21.434375 31.7125,20.684375 C31.89375,20.54375 32,20.325 32,20.09375 L32,19.5 C32,18.671875 31.328125,18 30.5,18 L17.5,18 C16.671875,18 16,18.671875 16,19.5 L16,20.09375 C16,20.325 16.10625,20.540625 16.2875,20.684375 C17.24375,21.43125 17.559375,21.696875 21.70625,24.70625 C22.23125,25.0875 23.275,26.0125 24,26 Z" id="mail-copy" fill="#00AAEB" fill-rule="nonzero"></path>
        <path d="M14.3553125,20.241125 C14.3654687,20.38325 14.3654687,20.5254063 14.3654687,20.6675313 C14.3654687,25.0025313 11.066,29.9974688 5.03553125,29.9974688 C3.17765625,29.9974688 1.45178125,29.459375 -7.10542736e-15,28.5254063 C0.26396875,28.5558438 0.51775,28.566 0.791875,28.566 C2.32484375,28.566 3.73603125,28.04825 4.8629375,27.165 C3.4213125,27.1345313 2.2131875,26.190375 1.7969375,24.890875 C2,24.9213125 2.20303125,24.941625 2.41625,24.941625 C2.71065625,24.941625 3.00509375,24.901 3.2791875,24.8299688 C1.77665625,24.525375 0.64971875,23.2055938 0.64971875,21.6116875 L0.64971875,21.5710938 C1.08625,21.81475 1.59390625,21.9670313 2.1319375,21.9873125 C1.2486875,21.3984688 0.67003125,20.3934063 0.67003125,19.2563438 C0.67003125,18.6472188 0.8324375,18.0888438 1.11671875,17.6015313 C2.7309375,19.591375 5.15734375,20.8908438 7.878125,21.033 C7.827375,20.7893438 7.79690625,20.5355625 7.79690625,20.28175 C7.79690625,18.474625 9.25884375,17.0025625 11.0760937,17.0025625 C12.02025,17.0025625 12.8730312,17.3985 13.4720312,18.0380938 C14.213125,17.8959688 14.9237812,17.6218438 15.55325,17.2462188 C15.3095625,18.0076563 14.7918125,18.64725 14.111625,19.0533125 C14.7715312,18.9822813 15.411125,18.7995 15.9999375,18.5457188 C15.5533125,19.1954375 14.9949062,19.7740938 14.3553125,20.241125 Z" id="twitter-copy" fill="#00AAEB" fill-rule="nonzero"></path>
    </g>
</svg>