<?xml version="1.0" encoding="UTF-8" standalone="no"?>
<svg width="152px" height="154px" viewBox="0 0 152 154" version="1.1" xmlns="http://www.w3.org/2000/svg" xmlns:xlink="http://www.w3.org/1999/xlink" xmlns:sketch="http://www.bohemiancoding.com/sketch/ns">
    <!-- Generator: Sketch 3.4.4 (17249) - http://www.bohemiancoding.com/sketch -->
    <title>spacenomads-logo</title>
    <desc>Created with Sketch.</desc>
    <defs></defs>
    <g id="Page-1" stroke="none" stroke-width="1" fill="none" fill-rule="evenodd" sketch:type="MSPage">
        <g id="spacenomads-logo" sketch:type="MSArtboardGroup">
            <g id="logo" sketch:type="MSLayerGroup" transform="translate(1.000000, -1.000000)">
                <path d="M20.1597701,118.907069 C19.3603448,118.386379 18.9436782,117.586954 18.9436782,116.753046 C18.9436782,115.503046 19.916092,114.495575 21.2362069,114.495575 C21.791954,114.495575 22.3126437,114.669138 22.7304598,114.912816 C24.6741379,115.989253 26.0637931,116.440977 27.8017241,116.440977 C30.3017241,116.440977 31.6574713,115.295 31.6574713,113.661667 C31.6574713,112.272011 30.8235632,111.404195 28.0091954,111.022011 L26.7586207,110.849023 C21.9310345,110.188678 19.2908046,107.930632 19.2908046,103.762241 C19.2908046,99.4208621 22.5563218,96.5381034 27.662069,96.5381034 C30.2666667,96.5381034 32.8718391,97.2323563 34.2614943,98.1007471 C35.0954023,98.6220115 35.4770115,99.3162644 35.4770115,100.150172 C35.4770115,101.435805 34.5051724,102.373161 33.2545977,102.373161 C32.7683908,102.373161 32.2471264,102.234655 31.7614943,101.990977 C30.6143678,101.435805 29.1557471,101.017989 27.6971264,101.017989 C25.6126437,101.017989 24.5017241,102.061092 24.5017241,103.553621 C24.5017241,104.874885 25.4390805,105.777184 28.1833333,106.158793 L29.433908,106.332931 C34.3310345,107.027759 36.8666667,109.216264 36.8666667,113.488678 C36.8666667,117.761092 33.7408046,120.921437 27.5931034,120.921437 C24.258046,120.921437 21.7224138,119.878908 20.1597701,118.907069 Z M56.5264368,104.526897 C56.5264368,102.616552 55.2413793,101.33092 53.0885057,101.33092 L49.1977011,101.33092 C49.0591954,101.33092 48.9890805,101.401034 48.9890805,101.53954 L48.9890805,107.479195 C48.9890805,107.618276 49.0591954,107.687816 49.1977011,107.687816 L53.0885057,107.687816 C55.2413793,107.687816 56.5264368,106.437241 56.5264368,104.526897 Z M43.8833333,118.03954 L43.8833333,99.1774713 C43.8833333,97.8234483 44.7166667,96.92 46.1068966,96.92 L53.4005747,96.92 C58.5758621,96.92 61.6327586,100.011379 61.6327586,104.526897 C61.6327586,108.972874 58.5413793,112.09931 53.4005747,112.09931 L49.1977011,112.09931 C49.0591954,112.09931 48.9890805,112.168851 48.9890805,112.307356 L48.9890805,118.03954 C48.9890805,119.671724 47.9126437,120.748161 46.4545977,120.748161 C44.9603448,120.748161 43.8833333,119.671724 43.8833333,118.03954 Z M84.8017241,117.378218 L78.5137931,99.698908 C77.8545977,97.8236207 76.7781609,96.710977 74.9712644,96.710977 C73.1649425,96.710977 72.1229885,97.8236207 71.4632184,99.698908 L65.0718391,117.378218 C64.9678161,117.656379 64.8977011,118.004655 64.8977011,118.351207 C64.8977011,119.809828 66.0793103,120.747759 67.3637931,120.747759 C68.4764368,120.747759 69.3787356,120.087989 69.7614943,118.942011 L74.9017241,103.449483 L75.0057471,103.449483 L77.7304598,111.717299 L76.0798851,111.717299 C74.6787356,111.717299 73.7557471,112.640287 73.7557471,113.870172 C73.7557471,115.13569 74.6787356,116.058103 76.0798851,116.058103 L79.1614943,116.058103 L80.112069,118.942011 C80.4936782,120.087989 81.3971264,120.747759 82.5086207,120.747759 C83.7936782,120.747759 84.9747126,119.809828 84.9747126,118.351207 C84.9747126,118.004655 84.9051724,117.656379 84.8017241,117.378218 Z M90.2201149,108.729483 C90.2201149,105.117414 90.3942529,103.901897 90.8798851,102.338103 C92.1310345,98.4835057 95.187931,96.5381034 99.3212644,96.5381034 C102.863793,96.5381034 105.468966,98.1702874 106.65,100.289253 C106.927011,100.77546 107.101149,101.262241 107.101149,101.817414 C107.101149,103.172011 106.05977,104.110517 104.774138,104.110517 C103.905747,104.110517 103.21092,103.762241 102.516667,102.790402 C101.648276,101.609368 100.814368,101.053621 99.3212644,101.053621 C97.4109195,101.053621 96.2994253,102.060517 95.7775862,103.659368 C95.5005747,104.527184 95.395977,105.360517 95.395977,108.729483 C95.395977,112.099023 95.5005747,112.931782 95.7775862,113.800747 C96.2994253,115.398448 97.4109195,116.40592 99.3212644,116.40592 C100.814368,116.40592 101.648276,115.850747 102.516667,114.669138 C103.21092,113.696724 103.905747,113.349023 104.774138,113.349023 C106.05977,113.349023 107.101149,114.286954 107.101149,115.641552 C107.101149,116.197299 106.927011,116.684655 106.65,117.170287 C105.468966,119.288678 102.863793,120.921437 99.3212644,120.921437 C95.187931,120.921437 92.1310345,118.976034 90.8798851,115.120862 C90.3942529,113.557644 90.2201149,112.342126 90.2201149,108.729483 Z M114.291379,99.1777011 C114.291379,97.8236782 115.125287,96.9196552 116.513793,96.9196552 L127.976437,96.9196552 C129.400575,96.9196552 130.33908,97.8581609 130.33908,99.142069 C130.33908,100.393218 129.400575,101.331149 127.976437,101.331149 L119.605172,101.331149 C119.466092,101.331149 119.397126,101.40069 119.397126,101.539195 L119.397126,106.228851 C119.397126,106.367931 119.466092,106.437471 119.605172,106.437471 L126.309195,106.437471 C127.733908,106.437471 128.636782,107.340345 128.636782,108.625977 C128.636782,109.91046 127.733908,110.813908 126.309195,110.813908 L119.605172,110.813908 C119.466092,110.813908 119.397126,110.883448 119.397126,111.021954 L119.397126,115.92023 C119.397126,116.058736 119.466092,116.127701 119.605172,116.127701 L127.976437,116.127701 C129.400575,116.127701 130.33908,117.066207 130.33908,118.316782 C130.33908,119.601839 129.400575,120.539195 127.976437,120.539195 L116.513793,120.539195 C115.125287,120.539195 114.291379,119.636322 114.291379,118.281724 L114.291379,99.1777011 Z" id="SPACE" fill="#FFFFFF" sketch:type="MSShapeGroup"></path>
                <path d="M0,132.540517 C0,130.664655 1.11149425,129.483621 2.84770115,129.483621 C4.30689655,129.483621 5.27931034,130.352011 6.21724138,131.98477 L13.441954,144.871552 L13.5810345,144.871552 L13.5810345,131.950862 C13.5810345,130.387069 14.5183908,129.483621 15.9086207,129.483621 C17.2977011,129.483621 18.2350575,130.387069 18.2350575,131.950862 L18.2350575,150.46408 C18.2350575,152.339368 17.1235632,153.520402 15.3867816,153.520402 C13.9275862,153.520402 12.9557471,152.651437 12.0183908,151.019253 L4.79310345,138.168103 L4.65402299,138.168103 L4.65402299,151.05431 C4.65402299,152.617529 3.71551724,153.520402 2.32701149,153.520402 C0.937356322,153.520402 0,152.617529 0,151.05431 L0,132.540517 Z M38.5896552,146.608046 C38.8678161,145.73908 38.9712644,144.559195 38.9712644,141.501724 C38.9712644,138.445402 38.8678161,137.264368 38.5896552,136.395977 C38.0689655,134.798276 36.8183908,133.826437 34.8729885,133.826437 C32.9275862,133.826437 31.6775862,134.798276 31.1563218,136.395977 C30.8787356,137.264368 30.7741379,138.445402 30.7741379,141.501724 C30.7741379,144.559195 30.8787356,145.73908 31.1563218,146.608046 C31.6775862,148.205747 32.9275862,149.178736 34.8729885,149.178736 C36.8183908,149.178736 38.0689655,148.205747 38.5896552,146.608046 Z M26.2591954,147.962644 C25.7385057,146.295977 25.5988506,144.975862 25.5988506,141.501724 C25.5988506,138.028736 25.7385057,136.708621 26.2591954,135.041954 C27.5097701,131.22069 30.7402299,129.310345 34.8729885,129.310345 C39.0063218,129.310345 42.2373563,131.22069 43.4867816,135.041954 C44.0091954,136.708621 44.1471264,138.028736 44.1471264,141.501724 C44.1471264,144.975862 44.0091954,146.295977 43.4867816,147.962644 C42.2373563,151.783908 39.0063218,153.694253 34.8729885,153.694253 C30.7402299,153.694253 27.5097701,151.783908 26.2591954,147.962644 Z M51.5114943,132.540517 C51.5114943,130.664655 52.6229885,129.483621 54.3252874,129.483621 C55.854023,129.483621 56.6867816,130.317529 57.4862069,132.123276 L62.5224138,143.516954 L62.6609195,143.516954 L67.5936782,132.123276 C68.3574713,130.317529 69.191954,129.483621 70.7201149,129.483621 C72.4218391,129.483621 73.4982759,130.664655 73.4982759,132.540517 L73.4982759,151.05431 C73.4982759,152.617529 72.5609195,153.520402 71.1718391,153.520402 C69.7821839,153.520402 68.8442529,152.617529 68.8442529,151.05431 L68.8442529,139.661782 L68.6701149,139.661782 L65.0235632,148.137069 C64.2936782,149.803736 63.7034483,150.289943 62.5224138,150.289943 C61.3413793,150.289943 60.7511494,149.803736 60.0218391,148.137069 L56.3396552,139.661782 L56.166092,139.661782 L56.166092,151.05431 C56.166092,152.617529 55.1936782,153.520402 53.8735632,153.520402 C52.483908,153.520402 51.5114943,152.617529 51.5114943,151.05431 L51.5114943,132.540517 Z M100.278161,150.151207 L93.9913793,132.471322 C93.3310345,130.596034 92.2545977,129.48454 90.4482759,129.48454 C88.6425287,129.48454 87.6,130.596034 86.9402299,132.471322 L80.5494253,150.151207 C80.4448276,150.428793 80.3752874,150.777069 80.3752874,151.123621 C80.3752874,152.582241 81.5563218,153.520172 82.8413793,153.520172 C83.9528736,153.520172 84.8557471,152.860402 85.237931,151.714425 L90.3787356,136.223046 L90.4827586,136.223046 L93.2074713,144.489713 L91.5574713,144.489713 C90.1557471,144.489713 89.2327586,145.412701 89.2327586,146.643161 C89.2327586,147.908103 90.1557471,148.830517 91.5574713,148.830517 L94.6385057,148.830517 L95.5896552,151.714425 C95.9712644,152.860402 96.8741379,153.520172 97.9856322,153.520172 C99.2712644,153.520172 100.452299,152.582241 100.452299,151.123621 C100.452299,150.777069 100.382759,150.428793 100.278161,150.151207 Z M112.644828,148.761552 L115.006322,148.761552 C117.368391,148.761552 119.070115,147.962701 119.660345,146.087414 C119.904023,145.288563 120.078161,143.898908 120.078161,141.501782 C120.078161,139.10523 119.904023,137.716149 119.660345,136.917874 C119.070115,135.042011 117.368391,134.242586 115.006322,134.242586 L112.644828,134.242586 C112.505747,134.242586 112.436207,134.311552 112.436207,134.451782 L112.436207,148.553506 C112.436207,148.692586 112.505747,148.761552 112.644828,148.761552 Z M107.329885,131.950632 C107.329885,130.596034 108.163793,129.692011 109.553448,129.692011 L115.145977,129.692011 C120.182184,129.692011 123.308621,131.290862 124.558621,135.146034 C125.010345,136.500632 125.252874,138.133391 125.252874,141.501782 C125.252874,144.871322 125.010345,146.503506 124.558621,147.858678 C123.308621,151.714425 120.182184,153.311552 115.145977,153.311552 L109.553448,153.311552 C108.163793,153.311552 107.329885,152.443736 107.329885,151.089138 L107.329885,131.950632 Z M133.033333,151.679483 C132.233908,151.158793 131.817816,150.359368 131.817816,149.526034 C131.817816,148.274885 132.789655,147.267989 134.10977,147.267989 C134.666667,147.267989 135.186782,147.441552 135.604023,147.684655 C137.548851,148.761667 138.937356,149.213391 140.675287,149.213391 C143.175287,149.213391 144.531034,148.067414 144.531034,146.434655 C144.531034,145.044425 143.697126,144.176609 140.883333,143.795 L139.633333,143.621437 C134.804598,142.961092 132.164943,140.703046 132.164943,136.534655 C132.164943,132.193276 135.429885,129.310517 140.536207,129.310517 C143.141379,129.310517 145.746552,130.00477 147.136207,130.873736 C147.968966,131.393851 148.351724,132.089253 148.351724,132.922586 C148.351724,134.208218 147.378736,135.145575 146.128161,135.145575 C145.641954,135.145575 145.12069,135.006494 144.634483,134.763391 C143.48908,134.208218 142.02931,133.791552 140.57069,133.791552 C138.486782,133.791552 137.375287,134.833506 137.375287,136.326034 C137.375287,137.647299 138.313793,138.549598 141.056897,138.931782 L142.307471,139.105345 C147.204598,139.800172 149.74023,141.988678 149.74023,146.259943 C149.74023,150.532931 146.614368,153.694425 140.466667,153.694425 C137.132184,153.694425 134.597126,152.651322 133.033333,151.679483 Z" id="NOMADS" fill="#FFFFFF" sketch:type="MSShapeGroup"></path>
                <g id="Asteroid-Copy" transform="translate(87.061956, 44.292655) rotate(-30.000000) translate(-87.061956, -44.292655) translate(46.257358, 16.706448)" sketch:type="MSShapeGroup">
                    <path d="M52.1267644,12.4111344 C52.1267644,11.0402383 51.0154336,9.92890751 49.6445376,9.92890751 L46.4176426,9.92890751 L40.2120754,9.92890751 C38.8411794,9.92890751 37.7298486,8.81757669 37.7298486,7.44668064 C37.7298486,6.07578458 38.8411794,4.96445376 40.2120754,4.96445376 L50.6374283,4.96445376 L58.084109,4.96445376 C59.455005,4.96445376 60.5663358,3.85312293 60.5663358,2.48222688 C60.5663358,1.11133083 59.455005,0 58.084109,0 L27.3044957,0 C12.2246391,0 0,12.2246391 0,27.3044957 C0,42.3843522 12.2246391,54.6089913 27.3044957,54.6089913 L59.5734451,54.6089913 C60.9443411,54.6089913 62.055672,53.4976605 62.055672,52.1267644 C62.055672,50.7558684 60.9443411,49.6445376 59.5734451,49.6445376 L41.6745698,49.6445376 C40.3036737,49.6445376 39.1923429,48.5332067 39.1923429,47.1623107 C39.1923429,45.7914146 40.3036737,44.6800838 41.6745698,44.6800838 L62.5521173,44.6800838 C63.9230134,44.6800838 65.0343442,43.568753 65.0343442,42.1978569 C65.0343442,40.8269609 63.9230134,39.7156301 62.5521173,39.7156301 L54.857214,39.7156301 L46.1694199,39.7156301 C44.7985239,39.7156301 43.6871931,38.6042992 43.6871931,37.2334032 C43.6871931,35.8625071 44.7985239,34.7511763 46.1694199,34.7511763 L50.885651,34.7511763 L54.6089913,34.7511763 C55.9798874,34.7511763 57.0912182,33.6398455 57.0912182,32.2689494 C57.0912182,30.8980534 55.9798874,29.7867225 54.6089913,29.7867225 L48.4034241,29.7867225 L38.2262939,29.7867225 C36.8553979,29.7867225 35.744067,28.6753917 35.744067,27.3044957 C35.744067,25.9335996 36.8553979,24.8222688 38.2262939,24.8222688 L49.8927603,24.8222688 L57.5876636,24.8222688 C58.9585596,24.8222688 60.0698905,23.710938 60.0698905,22.3400419 C60.0698905,20.9691459 58.9585596,19.857815 57.5876636,19.857815 L45.6729746,19.857815 C44.3020785,19.857815 43.1907477,18.7464842 43.1907477,17.3755881 C43.1907477,16.0046921 44.3020785,14.8933613 45.6729746,14.8933613 L49.6445376,14.8933613 C51.0154336,14.8933613 52.1267644,13.7820304 52.1267644,12.4111344 Z M69.0059072,9.92890751 C70.3768033,9.92890751 71.4881341,11.0402383 71.4881341,12.4111344 C71.4881341,13.7820304 70.3768033,14.8933613 69.0059072,14.8933613 L59.5734451,14.8933613 C58.202549,14.8933613 57.0912182,13.7820304 57.0912182,12.4111344 C57.0912182,11.0402383 58.202549,9.92890751 59.5734451,9.92890751 L69.0059072,9.92890751 Z M78.9348147,14.8933613 C80.3057108,14.8933613 81.4170416,13.7820304 81.4170416,12.4111344 C81.4170416,11.0402383 80.3057108,9.92890751 78.9348147,9.92890751 C77.5639187,9.92890751 76.4525879,11.0402383 76.4525879,12.4111344 C76.4525879,13.7820304 77.5639187,14.8933613 78.9348147,14.8933613 Z M65.0343442,24.8222688 C66.4052403,24.8222688 67.5165711,23.710938 67.5165711,22.3400419 C67.5165711,20.9691459 66.4052403,19.857815 65.0343442,19.857815 C63.6634482,19.857815 62.5521173,20.9691459 62.5521173,22.3400419 C62.5521173,23.710938 63.6634482,24.8222688 65.0343442,24.8222688 Z" id="Oval-3" fill="#00AAEB"></path>
                    <path d="M33.2618402,47.1623107 C33.2618402,48.5332067 32.1505093,49.6445376 30.7796133,49.6445376 L27.3044957,49.6445376 C14.9664312,49.6445376 4.96445376,39.6425601 4.96445376,27.3044957 C4.96445376,14.9664312 14.9664312,4.96445376 27.3044957,4.96445376 C28.6753917,4.96445376 29.7867225,6.07578458 29.7867225,7.44668064 C29.7867225,8.81757669 28.6753917,9.92890751 27.3044957,9.92890751 L21.8435965,9.92890751 C20.4727005,9.92890751 19.3613697,11.0402383 19.3613697,12.4111344 C19.3613697,13.7820304 20.4727005,14.8933613 21.8435965,14.8933613 L28.5456091,14.8933613 L31.772504,14.8933613 C33.1434001,14.8933613 34.2547309,16.0046921 34.2547309,17.3755881 C34.2547309,18.7464842 33.1434001,19.857815 31.772504,19.857815 L29.5384999,19.857815 L24.3258234,19.857815 C22.9549274,19.857815 21.8435965,20.9691459 21.8435965,22.3400419 C21.8435965,23.710938 22.9549274,24.8222688 24.3258234,24.8222688 L25.318718,24.8222688 C26.6896102,24.8222688 27.800941,25.9335996 27.800941,27.3044957 C27.800941,28.6753917 26.6896102,29.7867225 25.3187142,29.7867225 L21.3471512,29.7867225 C19.9762551,29.7867225 18.8649243,30.8980534 18.8649243,32.2689494 C18.8649243,33.6398455 19.9762551,34.7511763 21.3471512,34.7511763 L29.0420545,34.7511763 L33.2618402,34.7511763 C34.6327362,34.7511763 35.744067,35.8625071 35.744067,37.2334032 C35.744067,38.6042992 34.6327362,39.7156301 33.2618402,39.7156301 L28.7938318,39.7156301 C27.4229357,39.7156301 26.3116049,40.8269609 26.3116049,42.1978569 C26.3116049,43.568753 27.4229357,44.6800838 28.7938318,44.6800838 L30.7796133,44.6800838 C32.1505093,44.6800838 33.2618402,45.7914146 33.2618402,47.1623107 Z" id="Oval-3" fill="#1D2B4D"></path>
                </g>
            </g>
        </g>
    </g>
</svg>