<svg width="143" height="36" viewBox="0 0 143 36" fill="none" xmlns="http://www.w3.org/2000/svg">
<rect width="143" height="36" rx="2" fill="#2689DB"/>
<path fill-rule="evenodd" clip-rule="evenodd" d="M6 12C6 11.4477 6.44772 11 7 11H22C24.7614 11 27 13.2386 27 16C27 18.7614 24.7614 21 22 21H21V23C21 24.1046 20.1046 25 19 25H8C6.89543 25 6 24.1046 6 23V12ZM21 19V13H22C23.6569 13 25 14.3431 25 16C25 17.6569 23.6569 19 22 19H21Z" fill="white"/>
<path d="M9.73223 14.7322C8.75592 15.7086 8.75592 17.2914 9.73223 18.2678L12.9142 21.4497C13.1119 21.6475 13.3719 21.7451 13.631 21.7426C13.8904 21.7453 14.1506 21.6477 14.3485 21.4498L17.4244 18.3738C18.4203 17.378 18.4203 15.7634 17.4244 14.7676C16.4286 13.7718 14.814 13.7718 13.8182 14.7676L13.5607 15.0251L13.2678 14.7322C12.2915 13.7559 10.7085 13.7559 9.73223 14.7322Z" fill="#FF0000"/>
<path d="M35.162 23V13.844H38.088C38.564 13.844 38.998 13.886 39.39 13.97C39.7913 14.0447 40.1367 14.1707 40.426 14.348C40.7247 14.516 40.9533 14.7447 41.112 15.034C41.28 15.3233 41.364 15.678 41.364 16.098C41.364 16.5367 41.252 16.9427 41.028 17.316C40.804 17.6893 40.4913 17.946 40.09 18.086V18.142C40.594 18.254 41.0093 18.492 41.336 18.856C41.672 19.2107 41.84 19.696 41.84 20.312C41.84 20.7693 41.7513 21.166 41.574 21.502C41.3967 21.838 41.1493 22.118 40.832 22.342C40.524 22.566 40.1553 22.734 39.726 22.846C39.2967 22.9487 38.83 23 38.326 23H35.162ZM36.786 17.624H37.948C38.592 17.624 39.054 17.5073 39.334 17.274C39.6233 17.0407 39.768 16.728 39.768 16.336C39.768 15.888 39.6187 15.5707 39.32 15.384C39.0213 15.1973 38.5733 15.104 37.976 15.104H36.786V17.624ZM36.786 21.74H38.158C38.83 21.74 39.348 21.6187 39.712 21.376C40.076 21.124 40.258 20.7413 40.258 20.228C40.258 19.7427 40.0807 19.3927 39.726 19.178C39.3713 18.954 38.8487 18.842 38.158 18.842H36.786V21.74Z" fill="white"/>
<path d="M45.4195 23.168C44.6822 23.168 44.1455 22.9347 43.8095 22.468C43.4735 21.992 43.3055 21.3153 43.3055 20.438V16.126H44.9155V20.228C44.9155 20.7973 44.9995 21.1987 45.1675 21.432C45.3355 21.6653 45.6062 21.782 45.9795 21.782C46.2782 21.782 46.5395 21.7073 46.7635 21.558C46.9969 21.4087 47.2442 21.166 47.5055 20.83V16.126H49.1155V23H47.7995L47.6735 21.992H47.6315C47.3329 22.3467 47.0062 22.6313 46.6515 22.846C46.3062 23.0607 45.8955 23.168 45.4195 23.168Z" fill="white"/>
<path d="M51.6168 25.828C51.4301 25.828 51.2668 25.814 51.1268 25.786C50.9868 25.7673 50.8515 25.7347 50.7208 25.688L51.0148 24.428C51.0801 24.4467 51.1548 24.4653 51.2388 24.484C51.3321 24.512 51.4208 24.526 51.5048 24.526C51.8688 24.526 52.1581 24.414 52.3728 24.19C52.5968 23.9753 52.7648 23.6953 52.8768 23.35L53.0028 22.916L50.3008 16.126H51.9388L53.1288 19.5C53.2315 19.7987 53.3295 20.116 53.4228 20.452C53.5255 20.7787 53.6281 21.1053 53.7308 21.432H53.7868C53.8708 21.1147 53.9548 20.7927 54.0388 20.466C54.1321 20.13 54.2208 19.808 54.3048 19.5L55.3408 16.126H56.8948L54.4028 23.308C54.2628 23.7 54.1088 24.05 53.9408 24.358C53.7728 24.666 53.5768 24.9273 53.3528 25.142C53.1381 25.366 52.8861 25.534 52.5968 25.646C52.3168 25.7673 51.9901 25.828 51.6168 25.828Z" fill="white"/>
<path d="M60.8892 23V16.126H62.2192L62.3312 17.064H62.3872C62.6765 16.756 62.9892 16.4947 63.3252 16.28C63.6705 16.0653 64.0579 15.958 64.4872 15.958C64.9912 15.958 65.3925 16.0653 65.6912 16.28C65.9992 16.4947 66.2325 16.798 66.3912 17.19C66.7179 16.8353 67.0585 16.5413 67.4132 16.308C67.7679 16.0747 68.1645 15.958 68.6032 15.958C69.3312 15.958 69.8679 16.196 70.2132 16.672C70.5585 17.1387 70.7312 17.8107 70.7312 18.688V23H69.1072V18.898C69.1072 18.3287 69.0185 17.9273 68.8412 17.694C68.6732 17.4607 68.4119 17.344 68.0572 17.344C67.6279 17.344 67.1472 17.6287 66.6152 18.198V23H65.0052V18.898C65.0052 18.3287 64.9165 17.9273 64.7392 17.694C64.5712 17.4607 64.3052 17.344 63.9412 17.344C63.5119 17.344 63.0312 17.6287 62.4992 18.198V23H60.8892Z" fill="white"/>
<path d="M75.628 23.168C75.152 23.168 74.7087 23.0887 74.298 22.93C73.8874 22.762 73.528 22.524 73.22 22.216C72.912 21.908 72.6694 21.5347 72.492 21.096C72.324 20.648 72.24 20.1393 72.24 19.57C72.24 19.01 72.3287 18.506 72.506 18.058C72.6834 17.61 72.9167 17.232 73.206 16.924C73.5047 16.616 73.8454 16.378 74.228 16.21C74.6107 16.042 75.0027 15.958 75.404 15.958C75.8707 15.958 76.2814 16.0373 76.636 16.196C76.9907 16.3547 77.2847 16.5787 77.518 16.868C77.7607 17.1573 77.9427 17.5027 78.064 17.904C78.1854 18.3053 78.246 18.744 78.246 19.22C78.246 19.3787 78.2367 19.528 78.218 19.668C78.2087 19.808 78.1947 19.92 78.176 20.004H73.808C73.8827 20.62 74.0974 21.096 74.452 21.432C74.816 21.7587 75.278 21.922 75.838 21.922C76.1367 21.922 76.412 21.88 76.664 21.796C76.9254 21.7027 77.182 21.5767 77.434 21.418L77.98 22.426C77.6534 22.6407 77.2894 22.818 76.888 22.958C76.4867 23.098 76.0667 23.168 75.628 23.168ZM73.794 18.912H76.846C76.846 18.38 76.7294 17.9647 76.496 17.666C76.272 17.358 75.922 17.204 75.446 17.204C75.0354 17.204 74.676 17.3487 74.368 17.638C74.06 17.9273 73.8687 18.352 73.794 18.912Z" fill="white"/>
<path d="M84.2525 23.168C83.6458 23.168 83.1558 22.986 82.7825 22.622C82.4091 22.2487 82.2225 21.7587 82.2225 21.152C82.2225 20.788 82.2971 20.466 82.4465 20.186C82.6051 19.8967 82.8478 19.6493 83.1745 19.444C83.5105 19.2387 83.9305 19.066 84.4345 18.926C84.9478 18.786 85.5591 18.6787 86.2685 18.604C86.2591 18.4267 86.2311 18.2587 86.1845 18.1C86.1471 17.932 86.0771 17.7873 85.9745 17.666C85.8811 17.5353 85.7551 17.4373 85.5965 17.372C85.4378 17.2973 85.2418 17.26 85.0085 17.26C84.6725 17.26 84.3411 17.3253 84.0145 17.456C83.6971 17.5867 83.3845 17.7453 83.0765 17.932L82.4885 16.854C82.8711 16.6113 83.3005 16.4013 83.7765 16.224C84.2525 16.0467 84.7658 15.958 85.3165 15.958C86.1751 15.958 86.8145 16.2147 87.2345 16.728C87.6638 17.232 87.8785 17.9647 87.8785 18.926V23H86.5485L86.4365 22.244H86.3805C86.0725 22.5053 85.7411 22.7247 85.3865 22.902C85.0411 23.0793 84.6631 23.168 84.2525 23.168ZM84.7705 21.908C85.0505 21.908 85.3025 21.8427 85.5265 21.712C85.7598 21.5813 86.0071 21.3947 86.2685 21.152V19.612C85.8018 19.668 85.4098 19.7427 85.0925 19.836C84.7751 19.9293 84.5185 20.0367 84.3225 20.158C84.1265 20.27 83.9865 20.4007 83.9025 20.55C83.8185 20.6993 83.7765 20.858 83.7765 21.026C83.7765 21.334 83.8698 21.558 84.0565 21.698C84.2431 21.838 84.4811 21.908 84.7705 21.908Z" fill="white"/>
<path d="M92.8179 23L93.1539 20.27H92.0759V19.206H93.2659L93.4899 17.4H92.3559V16.336H93.6299L93.9379 13.9H94.9039L94.6099 16.336H96.2479L96.5699 13.9H97.5219L97.2279 16.336H98.3479V17.4H97.1019L96.8779 19.206H98.0679V20.27H96.7519L96.4299 23H95.4499L95.7719 20.27H94.1339L93.7979 23H92.8179ZM94.2459 19.206H95.8979L96.1219 17.4H94.4699L94.2459 19.206Z" fill="white"/>
<path d="M102.656 23.168C102.189 23.168 101.75 23.0887 101.34 22.93C100.938 22.7713 100.588 22.538 100.29 22.23C99.991 21.922 99.7577 21.544 99.5897 21.096C99.4217 20.648 99.3377 20.1393 99.3377 19.57C99.3377 19.0007 99.431 18.492 99.6177 18.044C99.8043 17.596 100.056 17.218 100.374 16.91C100.691 16.602 101.055 16.3687 101.466 16.21C101.886 16.042 102.324 15.958 102.782 15.958C103.23 15.958 103.612 16.0327 103.93 16.182C104.256 16.3313 104.546 16.5133 104.798 16.728L104.014 17.778C103.827 17.6193 103.64 17.498 103.454 17.414C103.276 17.3207 103.08 17.274 102.866 17.274C102.306 17.274 101.853 17.484 101.508 17.904C101.162 18.3147 100.99 18.87 100.99 19.57C100.99 20.2607 101.158 20.816 101.494 21.236C101.839 21.6467 102.282 21.852 102.824 21.852C103.094 21.852 103.346 21.796 103.58 21.684C103.822 21.5627 104.042 21.4227 104.238 21.264L104.896 22.328C104.569 22.608 104.21 22.818 103.818 22.958C103.435 23.098 103.048 23.168 102.656 23.168Z" fill="white"/>
<path d="M108.814 23.168C107.881 23.168 107.144 22.7713 106.602 21.978C106.061 21.1753 105.79 20.018 105.79 18.506C105.79 16.994 106.061 15.8553 106.602 15.09C107.144 14.3153 107.881 13.928 108.814 13.928C109.748 13.928 110.485 14.3153 111.026 15.09C111.568 15.8647 111.838 17.0033 111.838 18.506C111.838 20.018 111.568 21.1753 111.026 21.978C110.485 22.7713 109.748 23.168 108.814 23.168ZM108.814 21.908C109.029 21.908 109.225 21.852 109.402 21.74C109.589 21.6187 109.748 21.4227 109.878 21.152C110.009 20.8813 110.112 20.5313 110.186 20.102C110.261 19.6727 110.298 19.1407 110.298 18.506C110.298 17.8807 110.261 17.358 110.186 16.938C110.112 16.5087 110.009 16.1633 109.878 15.902C109.748 15.6407 109.589 15.4587 109.402 15.356C109.225 15.244 109.029 15.188 108.814 15.188C108.6 15.188 108.399 15.244 108.212 15.356C108.035 15.4587 107.881 15.6407 107.75 15.902C107.62 16.1633 107.517 16.5087 107.442 16.938C107.368 17.358 107.33 17.8807 107.33 18.506C107.33 19.1407 107.368 19.6727 107.442 20.102C107.517 20.5313 107.62 20.8813 107.75 21.152C107.881 21.4227 108.035 21.6187 108.212 21.74C108.399 21.852 108.6 21.908 108.814 21.908Z" fill="white"/>
<path d="M117.924 23V17.4H115.32V23H113.71V17.4H112.786V16.196L113.71 16.126V15.524C113.71 15.1693 113.757 14.8427 113.85 14.544C113.944 14.2453 114.084 13.9887 114.27 13.774C114.466 13.5593 114.714 13.3913 115.012 13.27C115.311 13.1487 115.67 13.088 116.09 13.088C116.352 13.088 116.599 13.1113 116.832 13.158C117.066 13.2047 117.266 13.2653 117.434 13.34L117.126 14.544C116.996 14.4787 116.865 14.432 116.734 14.404C116.604 14.376 116.445 14.362 116.258 14.362C115.969 14.362 115.74 14.46 115.572 14.656C115.404 14.8427 115.32 15.132 115.32 15.524V16.126H117.924V15.412C117.924 15.0573 117.966 14.7307 118.05 14.432C118.134 14.124 118.265 13.8627 118.442 13.648C118.629 13.424 118.862 13.2513 119.142 13.13C119.432 13.0087 119.782 12.948 120.192 12.948C120.444 12.948 120.678 12.9713 120.892 13.018C121.107 13.0647 121.294 13.1207 121.452 13.186L121.144 14.39C120.902 14.278 120.654 14.222 120.402 14.222C119.824 14.222 119.534 14.6093 119.534 15.384V16.126H120.878V17.4H119.534V23H117.924Z" fill="white"/>
<path d="M124.888 23.168C124.412 23.168 123.968 23.0887 123.558 22.93C123.147 22.762 122.788 22.524 122.48 22.216C122.172 21.908 121.929 21.5347 121.752 21.096C121.584 20.648 121.5 20.1393 121.5 19.57C121.5 19.01 121.588 18.506 121.766 18.058C121.943 17.61 122.176 17.232 122.466 16.924C122.764 16.616 123.105 16.378 123.488 16.21C123.87 16.042 124.262 15.958 124.664 15.958C125.13 15.958 125.541 16.0373 125.896 16.196C126.25 16.3547 126.544 16.5787 126.778 16.868C127.02 17.1573 127.202 17.5027 127.324 17.904C127.445 18.3053 127.506 18.744 127.506 19.22C127.506 19.3787 127.496 19.528 127.478 19.668C127.468 19.808 127.454 19.92 127.436 20.004H123.068C123.142 20.62 123.357 21.096 123.712 21.432C124.076 21.7587 124.538 21.922 125.098 21.922C125.396 21.922 125.672 21.88 125.924 21.796C126.185 21.7027 126.442 21.5767 126.694 21.418L127.24 22.426C126.913 22.6407 126.549 22.818 126.148 22.958C125.746 23.098 125.326 23.168 124.888 23.168ZM123.054 18.912H126.106C126.106 18.38 125.989 17.9647 125.756 17.666C125.532 17.358 125.182 17.204 124.706 17.204C124.295 17.204 123.936 17.3487 123.628 17.638C123.32 17.9273 123.128 18.352 123.054 18.912Z" fill="white"/>
<path d="M131.983 23.168C131.507 23.168 131.064 23.0887 130.653 22.93C130.243 22.762 129.883 22.524 129.575 22.216C129.267 21.908 129.025 21.5347 128.847 21.096C128.679 20.648 128.595 20.1393 128.595 19.57C128.595 19.01 128.684 18.506 128.861 18.058C129.039 17.61 129.272 17.232 129.561 16.924C129.86 16.616 130.201 16.378 130.583 16.21C130.966 16.042 131.358 15.958 131.759 15.958C132.226 15.958 132.637 16.0373 132.991 16.196C133.346 16.3547 133.64 16.5787 133.873 16.868C134.116 17.1573 134.298 17.5027 134.419 17.904C134.541 18.3053 134.601 18.744 134.601 19.22C134.601 19.3787 134.592 19.528 134.573 19.668C134.564 19.808 134.55 19.92 134.531 20.004H130.163C130.238 20.62 130.453 21.096 130.807 21.432C131.171 21.7587 131.633 21.922 132.193 21.922C132.492 21.922 132.767 21.88 133.019 21.796C133.281 21.7027 133.537 21.5767 133.789 21.418L134.335 22.426C134.009 22.6407 133.645 22.818 133.243 22.958C132.842 23.098 132.422 23.168 131.983 23.168ZM130.149 18.912H133.201C133.201 18.38 133.085 17.9647 132.851 17.666C132.627 17.358 132.277 17.204 131.801 17.204C131.391 17.204 131.031 17.3487 130.723 17.638C130.415 17.9273 130.224 18.352 130.149 18.912Z" fill="white"/>
<path fill-rule="evenodd" clip-rule="evenodd" d="M107 22L110 15L110.919 15.3939L107.919 22.3939L107 22Z" fill="white"/>
</svg>
