<svg width="160" height="40" viewBox="0 0 160 40" fill="none" xmlns="http://www.w3.org/2000/svg">
<path d="M22.6661 10.5938C21.6652 10.9759 20.8056 11.6562 20.2039 12.5426L20.0595 12.7675C19.552 13.604 19.2884 14.5681 19.3016 15.5501L19.3015 15.782L19.2796 15.7812C17.904 15.7124 16.5549 15.3573 15.3197 14.7356C13.8599 14.0008 12.6045 12.9164 11.6653 11.579C11.3302 11.102 10.6029 11.1728 10.3661 11.7055L10.2629 11.955C10.2443 12.0027 10.2251 12.0536 10.2054 12.1074L10.0818 12.465C10.0178 12.6609 9.95119 12.8819 9.88488 13.1257C9.30017 15.2753 9.19794 17.5371 9.89551 19.6809L9.99239 19.9631C10.7352 22.0176 12.1903 23.7436 14.4403 25.0349L14.4915 25.063L14.2948 25.1638C12.6818 25.9519 10.8911 26.3327 9.08129 26.2607C8.292 26.2293 7.99675 27.2821 8.68726 27.6657C18.5652 33.1534 29.8015 27.1728 29.8015 15.5101L29.7904 15.1838L29.7645 14.921L29.9135 14.737C30.194 14.371 30.4756 13.9178 30.7605 13.3916C31.0103 12.93 31.248 12.4388 31.4668 11.948L31.6806 11.4533L31.7484 11.2872C32.0127 10.6228 31.2856 10.0006 30.67 10.3643L30.2429 10.6088C29.913 10.7939 29.5699 10.979 29.2324 11.151L28.7917 11.3693L28.5748 11.4712L28.3051 11.5915L28.1135 11.67C27.4599 11.0571 26.6667 10.6231 25.8005 10.4064C24.8478 10.168 23.8491 10.2031 22.9182 10.5049L22.6661 10.5938ZM25.4364 11.8616C26.1777 12.047 26.8441 12.4557 27.3456 13.0323C27.5392 13.2548 27.8453 13.3433 28.1277 13.2582L28.3155 13.1975C28.5744 13.1086 28.8671 12.9877 29.1911 12.8389L29.4085 12.736L29.4414 12.6775C29.1148 13.2808 28.8004 13.7613 28.5261 14.0614L28.4449 14.1461C28.2666 14.3218 28.1878 14.575 28.2348 14.8209C28.2784 15.0489 28.3007 15.2805 28.3015 15.5125L28.2985 15.8253C28.1219 25.0601 20.1293 30.16 12.1092 27.5364L12.0295 27.509L12.1568 27.4842C13.6911 27.1492 15.1574 26.5234 16.4727 25.6306C16.9594 25.3003 16.8937 24.5637 16.3561 24.3247C13.6209 23.1091 12.0211 21.3656 11.3219 19.2168L11.2185 18.8729C10.7728 17.26 10.8379 15.5396 11.2408 13.8751L11.3245 13.548L11.3781 13.6087C12.3068 14.6182 13.4128 15.455 14.6453 16.0754C16.326 16.9214 18.1899 17.3386 20.0709 17.2898C20.4774 17.2793 20.8015 16.9467 20.8015 16.5401V15.5401C20.7912 14.7659 21.0158 14.0172 21.445 13.385C21.8741 12.7529 22.4871 12.2677 23.201 11.9952C23.9149 11.7227 24.6952 11.6761 25.4364 11.8616Z" fill="white"/>
<path d="M64.3617 10.2959C66.08 9.23265 67.3485 8.90098 68.1993 9.02448L68.3236 9.04781C68.3416 9.0521 68.3583 9.05654 68.3735 9.06106C68.5873 9.12447 68.7618 9.2797 68.8496 9.48465C69.3655 10.6883 69.4583 12.0254 69.1229 13.2802L69.0942 13.3753L69.1597 13.4542C69.9665 14.4712 70.4348 15.7188 70.4939 17.0204L70.5002 17.3001C70.5002 21.8923 68.445 24.0797 64.7027 24.8426L64.6022 24.8613L64.675 25.017L64.7669 25.2497C64.9367 25.7213 65.0188 26.2192 65.0114 26.682L65.0002 26.9101V29.7801C65.0002 30.1943 64.6645 30.5301 64.2502 30.5301C63.8706 30.5301 63.5568 30.248 63.5071 29.8819L63.5002 29.7801L63.5026 26.8513C63.5317 26.4806 63.4816 26.1079 63.3556 25.7581C63.2296 25.4082 63.0305 25.0891 62.7717 24.8221C62.3379 24.3746 62.6076 23.6238 63.2272 23.5547C67.1104 23.1219 69.0002 21.5328 69.0002 17.3003C69 16.0965 68.537 14.939 67.707 14.0672C67.5091 13.8594 67.4472 13.5568 67.5476 13.2879C67.8762 12.4072 67.9071 11.448 67.6437 10.5551L67.6322 10.5203L67.5574 10.5321C67.4801 10.5454 67.3945 10.5635 67.3004 10.5872L67.1527 10.6272C66.482 10.8202 65.6558 11.2209 64.6678 11.8831C64.4875 12.004 64.2636 12.0408 64.0541 11.984C61.8905 11.3976 59.61 11.3976 57.4464 11.984C57.2369 12.0408 57.013 12.004 56.8326 11.8831C55.8447 11.2209 55.0185 10.8202 54.3478 10.6272C54.1936 10.5828 54.059 10.5521 53.9431 10.5321L53.8672 10.5203L53.8567 10.5551C53.6173 11.3669 53.621 12.2333 53.8706 13.0458L53.9529 13.2879C54.0533 13.5568 53.9913 13.8594 53.7934 14.0673C52.9573 14.9455 52.4938 16.1135 52.5002 17.3301C52.5002 21.5239 54.3752 23.1005 58.2827 23.5858C58.8966 23.6621 59.1594 24.407 58.7292 24.8516C58.4734 25.116 58.2761 25.4312 58.1502 25.7768C58.0495 26.0532 57.9962 26.3442 57.9931 26.6643L58.0002 26.9101V29.7801C58.0002 30.1943 57.6645 30.5301 57.2502 30.5301C56.8705 30.5301 56.5567 30.248 56.5071 29.8819L56.5002 29.7801L56.5021 26.9627C56.4615 26.3858 56.5429 25.8067 56.7409 25.2632C56.7691 25.1856 56.7997 25.109 56.8325 25.0334L56.9042 24.8803L56.7851 24.8559C53.1195 24.0707 51.0915 21.9814 51.0032 17.634L51.0001 17.334C50.9927 15.9219 51.4681 14.5556 52.3382 13.4574L52.4052 13.3753L52.3776 13.2802C52.0661 12.115 52.1239 10.8789 52.5468 9.74453L52.6509 9.48463C52.7387 9.2797 52.9132 9.12447 53.127 9.06106L53.2349 9.03549C53.2557 9.03158 53.2778 9.02789 53.3012 9.02448C54.152 8.90098 55.4205 9.23265 57.1388 10.2959L57.3842 10.4513L57.4825 10.4273C59.631 9.91653 61.8695 9.91653 64.018 10.4273L64.1152 10.4513L64.3617 10.2959Z" fill="white"/>
<path fill-rule="evenodd" clip-rule="evenodd" d="M49.6646 24.3559C50.0351 24.1707 50.4856 24.3208 50.6708 24.6913C51.3603 26.0703 52.2419 26.9128 53.2269 27.3247C54.2123 27.7369 55.3971 27.7582 56.7686 27.3133C57.1626 27.1855 57.5856 27.4013 57.7134 27.7953C57.8412 28.1893 57.6254 28.6123 57.2314 28.7401C55.6029 29.2684 54.0377 29.2898 52.6481 28.7086C51.258 28.1272 50.1397 26.9831 49.3292 25.3621C49.1439 24.9916 49.2941 24.5411 49.6646 24.3559Z" fill="white"/>
<path fill-rule="evenodd" clip-rule="evenodd" d="M93.4 10.55C93.5416 10.3611 93.7639 10.25 94 10.25H108C108.414 10.25 108.75 10.5858 108.75 11V22C108.75 22.2226 108.651 22.4337 108.48 22.5762L102.48 27.5762C102.345 27.6885 102.175 27.75 102 27.75H99.3107L95.5303 31.5303C95.3158 31.7448 94.9932 31.809 94.713 31.6929C94.4327 31.5768 94.25 31.3033 94.25 31V27.75H91C90.5858 27.75 90.25 27.4142 90.25 27V15C90.25 14.8377 90.3026 14.6798 90.4 14.55L93.4 10.55ZM94.375 11.75L91.75 15.25V26.25H95C95.4142 26.25 95.75 26.5858 95.75 27V29.1893L98.4697 26.4697C98.6103 26.329 98.8011 26.25 99 26.25H101.728L107.25 21.6487V11.75H94.375Z" fill="white"/>
<rect x="99" y="14" width="1.5" height="4" rx="0.75" fill="white"/>
<rect x="103" y="14" width="1.5" height="4" rx="0.75" fill="white"/>
<path fill-rule="evenodd" clip-rule="evenodd" d="M95 11.25C95.4142 11.25 95.75 11.5858 95.75 12V21.25H108C108.414 21.25 108.75 21.5858 108.75 22C108.75 22.4142 108.414 22.75 108 22.75H95C94.5858 22.75 94.25 22.4142 94.25 22V12C94.25 11.5858 94.5858 11.25 95 11.25Z" fill="white"/>
<path fill-rule="evenodd" clip-rule="evenodd" d="M138.872 17.3488C138.64 17.2162 138.355 17.2171 138.124 17.3513C137.892 17.4855 137.75 17.7326 137.75 18V22C137.75 22.2674 137.892 22.5145 138.124 22.6487C138.355 22.7829 138.64 22.7838 138.872 22.6512L142.372 20.6512C142.606 20.5177 142.75 20.2691 142.75 20C142.75 19.7309 142.606 19.4823 142.372 19.3488L138.872 17.3488Z" fill="white"/>
<path d="M130 20.7075V19.2924C130 16.3971 130 14.9494 130.905 14.0179C131.811 13.0865 133.237 13.0461 136.088 12.9655C137.439 12.9273 138.819 12.8999 140 12.8999C141.181 12.8999 142.561 12.9273 143.912 12.9655C146.763 13.0461 148.189 13.0865 149.094 14.0179C150 14.9494 150 16.3971 150 19.2924V20.7075C150 23.6028 150 25.0505 149.094 25.9819C148.189 26.9134 146.764 26.9537 143.912 27.0344C142.561 27.0726 141.181 27.1 140 27.1C138.819 27.1 137.439 27.0726 136.088 27.0344C133.237 26.9537 131.811 26.9134 130.905 25.9819C130 25.0505 130 23.6028 130 20.7075Z" stroke="white" stroke-width="1.5"/>
</svg>
