<?xml version="1.0" encoding="UTF-8" standalone="no"?>
<svg width="84px" height="42px" viewBox="0 0 84 42" version="1.1" xmlns="http://www.w3.org/2000/svg" xmlns:xlink="http://www.w3.org/1999/xlink" xmlns:sketch="http://www.bohemiancoding.com/sketch/ns">
    <!-- Generator: Sketch 3.2.2 (9983) - http://www.bohemiancoding.com/sketch -->
    <title>ico-education</title>
    <desc>Created with Sketch.</desc>
    <defs></defs>
    <g id="Page-1" stroke="none" stroke-width="1" fill="none" fill-rule="evenodd" sketch:type="MSPage">
        <g id="ico-education" sketch:type="MSArtboardGroup">
            <g id="ico-painter" sketch:type="MSLayerGroup" transform="translate(10.000000, 11.000000)" fill="#231F1F">
                <path d="M10.3910018,12.4157951 C11.9460018,13.8877951 12.1010018,16.6957951 9.30800184,18.8187951 C6.51600184,20.9427951 1.59500184,21.4257951 0.438001835,19.1137951 C0.297001835,18.8327951 0.452001835,18.7007951 0.594001835,18.6047951 C0.737001835,18.5097951 3.02000184,17.4427951 3.72900184,14.9197951 C4.43800184,12.3957951 7.98500184,10.1387951 10.3910018,12.4157951 L10.3910018,12.4157951 Z M22.3860018,0.598795054 C21.5500018,-0.237204946 20.1840018,-0.193204946 19.4110018,0.701795054 C18.1350018,2.17779505 16.0140018,4.50979505 13.1590018,7.22279505 C12.4710018,7.88779505 11.5340018,7.61179505 10.4250018,8.72079505 C10.4250018,8.72079505 9.62100184,9.52679505 9.42300184,9.72379505 C9.22500184,9.92179505 9.27900184,10.3277951 9.62300184,10.4747951 C9.96600184,10.6227951 10.7350018,10.9737951 11.3890018,11.6277951 C12.0430018,12.2817951 12.3940018,13.0507951 12.5420018,13.3937951 C12.6890018,13.7377951 13.0950018,13.7927951 13.2930018,13.5947951 C13.4910018,13.3967951 14.2960018,12.5917951 14.2960018,12.5917951 C15.4050018,11.4827951 15.1290018,10.5457951 15.7940018,9.85779505 C18.5070018,7.00279505 20.8390018,4.88179505 22.3150018,3.60579505 C23.2100018,2.83279505 23.2220018,1.43479505 22.3860018,0.598795054 L22.3860018,0.598795054 Z" id="brush" sketch:type="MSShapeGroup"></path>
            </g>
            <g id="ico-computer" sketch:type="MSLayerGroup" transform="translate(52.000000, 11.000000)" fill="#FFFFFF">
                <path d="M20.5236751,0 L1.47632487,0 C0.661291045,0 0,0.655486812 0,1.46434386 L0,14.7460111 C0,15.5538912 0.661291045,16.2093781 1.47632487,16.2093781 L6.68583972,16.2093781 C7.17367737,16.2093781 7.56887515,16.6011071 7.56887515,17.084663 L7.56887515,18.2442201 C7.56887515,18.727776 7.17367737,19.119505 6.68583972,19.119505 L6.59911302,19.119505 C6.07973839,19.119505 5.65891681,19.536633 5.65891681,20.0504722 L5.65891681,20.0700098 C5.65891681,20.5838489 6.07973839,21 6.59911302,21 L15.3762487,21 C15.8946378,21 16.3154594,20.5838489 16.3154594,20.0700098 L16.3154594,20.0504722 C16.3154594,19.536633 15.8946378,19.119505 15.3762487,19.119505 L15.3092326,19.119505 C14.821395,19.119505 14.4261972,18.727776 14.4261972,18.2442201 L14.4261972,17.084663 C14.4261972,16.6011071 14.821395,16.2093781 15.3092326,16.2093781 L20.5236751,16.2093781 C21.338709,16.2093781 22,15.5538912 22,14.7460111 L22,1.46434386 C22,0.655486812 21.338709,0 20.5236751,0 L20.5236751,0 Z M10.9995072,15.5157929 C10.5698159,15.5157929 10.220938,15.1699772 10.220938,14.7440573 C10.220938,14.3181374 10.5698159,13.9723217 10.9995072,13.9723217 C11.4291986,13.9723217 11.7780764,14.3181374 11.7780764,14.7440573 C11.7780764,15.1699772 11.4291986,15.5157929 10.9995072,15.5157929 L10.9995072,15.5157929 Z M20.0723021,12.5050472 C20.0723021,12.7981114 19.8338037,13.0345164 19.53913,13.0345164 L2.43524616,13.0345164 C2.14155803,13.0345164 1.90207409,12.7981114 1.90207409,12.5050472 L1.90207409,2.39042657 C1.90207409,2.0983393 2.14155803,1.86193422 2.43524616,1.86193422 L19.53913,1.86193422 C19.8338037,1.86193422 20.0723021,2.0983393 20.0723021,2.39042657 L20.0723021,12.5050472 L20.0723021,12.5050472 Z" id="monitor" sketch:type="MSShapeGroup"></path>
            </g>
        </g>
    </g>
</svg>