<?xml version="1.0" encoding="UTF-8" standalone="no"?>
<svg width="100px" height="25px" viewBox="0 0 100 25" version="1.1" xmlns="http://www.w3.org/2000/svg" xmlns:xlink="http://www.w3.org/1999/xlink" xmlns:sketch="http://www.bohemiancoding.com/sketch/ns">
    <!-- Generator: Sketch 3.2.2 (9983) - http://www.bohemiancoding.com/sketch -->
    <title>ico-contact</title>
    <desc>Created with Sketch.</desc>
    <defs></defs>
    <g id="Page-1" stroke="none" stroke-width="1" fill="none" fill-rule="evenodd" sketch:type="MSPage">
        <g id="ico-contact" sketch:type="MSArtboardGroup">
            <g id="ico-chat" sketch:type="MSLayerGroup" transform="translate(78.000000, 3.000000)">
                <rect id="Rectangle-66" fill="#4A90E2" sketch:type="MSShapeGroup" x="4" y="4" width="11" height="8"></rect>
                <path d="M14.835,0 L3.367,0 C1.507,0 0,1.507 0,3.366 L0,12.819 C0,14.678 1.507,16.185 3.367,16.185 C4.167,16.185 4.495,16.614 4.485,17.137 L4.45,18.893 C4.442,19.316 4.949,19.539 5.255,19.246 L8.131,16.492 C8.337,16.295 8.61,16.185 8.894,16.185 L14.835,16.185 C16.694,16.185 18.201,14.678 18.201,12.819 L18.201,3.366 C18.201,1.507 16.694,0 14.835,0 L14.835,0 Z M10.959,10.849 L6.112,10.849 C5.627,10.849 5.234,10.456 5.234,9.971 C5.234,9.486 5.627,9.092 6.112,9.092 L10.959,9.092 C11.444,9.092 11.837,9.486 11.837,9.971 C11.837,10.456 11.444,10.849 10.959,10.849 L10.959,10.849 Z M12.881,7.321 L6.112,7.321 C5.627,7.321 5.234,6.928 5.234,6.443 C5.234,5.958 5.627,5.565 6.112,5.565 L12.881,5.565 C13.366,5.565 13.759,5.958 13.759,6.443 C13.759,6.928 13.366,7.321 12.881,7.321 L12.881,7.321 Z" fill="#FFFFFF" sketch:type="MSShapeGroup"></path>
            </g>
            <path d="M73.1007742,14.9415937 C73.2647419,14.193375 73.3515484,13.4178438 73.3515484,12.6200313 C73.3515484,6.6465 68.4926129,1.8035625 62.4977742,1.8035625 C61.8663871,1.8035625 61.246129,1.8581875 60.6429355,1.9616875 C59.671,1.35290625 58.5254516,1 57.2930968,1 C53.817871,1 51,3.808875 51,7.27253125 C51,8.4304375 51.3168065,9.51575 51.8658387,10.4465312 C51.7226452,11.1473125 51.6454839,11.8754063 51.6454839,12.6200313 C51.6454839,18.5928438 56.5059032,23.4379375 62.4977742,23.4379375 C63.1773871,23.4379375 63.8429032,23.3754063 64.4861613,23.2560938 C65.3712903,23.7311875 66.3840323,24 67.4598387,24 C70.9372903,24 73.7544194,21.1925625 73.7544194,17.7274687 C73.7544194,16.7276875 73.5184839,15.780375 73.1007742,14.9415937 L73.1007742,14.9415937 Z M68.0645161,17.79 C67.5622258,18.4994062 66.8202903,19.06075 65.8594839,19.4582188 C64.9075806,19.8520937 63.7687097,20.052625 62.4688387,20.052625 C60.9092903,20.052625 59.6034839,19.7795 58.5840645,19.239 C57.8532581,18.8472812 57.2522903,18.3154063 56.7967419,17.660625 C56.3345161,16.9972187 56.1015484,16.3395625 56.1015484,15.7049063 C56.1015484,15.3081562 56.2536452,14.9645938 56.5533871,14.6835625 C56.8523871,14.4054062 57.2322581,14.2638125 57.6870645,14.2638125 C58.0587742,14.2638125 58.3807742,14.3730625 58.6434194,14.5937188 C58.8927097,14.8050312 59.1063871,15.1184062 59.2777742,15.5201875 C59.4706774,15.958625 59.6799032,16.3302188 59.901,16.6205937 C60.1139355,16.9023438 60.4203548,17.1395312 60.8120968,17.3235312 C61.2053226,17.50825 61.7358065,17.6038437 62.3887097,17.6038437 C63.2849677,17.6038437 64.0209677,17.4126563 64.5737097,17.0353125 C65.1145806,16.665875 65.3772258,16.2252813 65.3772258,15.6855 C65.3772258,15.2585625 65.2399677,14.9214687 64.9587742,14.6598437 C64.6627419,14.3845625 64.2717419,14.1696562 63.799129,14.02375 C63.3057419,13.8699375 62.6357742,13.704625 61.8085161,13.5314063 C60.6822581,13.2913437 59.7244194,13.006 58.9639355,12.684 C58.187871,12.3548125 57.5594516,11.8976875 57.1001935,11.3248437 C56.6342581,10.7455313 56.3975806,10.0145625 56.3975806,9.1578125 C56.3975806,8.339875 56.6446452,7.60315625 57.1350645,6.9685 C57.6217742,6.33815625 58.3288387,5.84653125 59.2406774,5.5094375 C60.142129,5.17809375 61.2157097,5.00990625 62.4265484,5.00990625 C63.3962581,5.00990625 64.248,5.12203125 64.9595161,5.34125 C65.674,5.56478125 66.2779355,5.86378125 66.7505484,6.23178125 C67.2290968,6.6048125 67.5837419,7.003 67.8070645,7.41340625 C68.0326129,7.8324375 68.146129,8.2464375 68.146129,8.6489375 C68.146129,9.03490625 67.9962581,9.38565625 67.7009677,9.6925625 C67.4041935,9.99946875 67.0287742,10.1561562 66.5865806,10.1561562 C66.1859355,10.1561562 65.8706129,10.0576875 65.6524839,9.8665 C65.4499355,9.6868125 65.2377419,9.4079375 65.0047742,9.0083125 C64.7339677,8.49296875 64.4067742,8.08903125 64.0320968,7.80584375 C63.6655806,7.52840625 63.0571935,7.38825 62.2188065,7.38825 C61.4412581,7.38825 60.8083871,7.5435 60.338,7.85040625 C59.8846774,8.14796875 59.6650645,8.48721875 59.6650645,8.88971875 C59.6650645,9.13553125 59.7355484,9.340375 59.8817097,9.518625 C60.0367742,9.70478125 60.2534194,9.8708125 60.5286774,10.007375 C60.8128387,10.1489687 61.1066452,10.2646875 61.4011935,10.3451875 C61.7039032,10.4278438 62.2091613,10.5514687 62.9036129,10.7124687 C63.7820645,10.8993437 64.5878065,11.1106562 65.3015484,11.3377812 C66.0249355,11.5670625 66.6496452,11.8524062 67.1593548,12.1823125 C67.6779677,12.5194062 68.0904839,12.9535313 68.3828065,13.4703125 C68.6736452,13.9899688 68.8235161,14.630375 68.8235161,15.3742813 C68.8235161,16.2684062 68.5697742,17.0791563 68.0645161,17.79 L68.0645161,17.79 Z" id="skype" fill="#00aaeb" sketch:type="MSShapeGroup"></path>
            <path d="M36.3241442,17.2773572 L32.6171442,18.5503572 C32.2511442,18.6753572 31.9001442,18.3253572 32.0261442,17.9583572 L33.2981442,14.2513572 C33.3881442,13.9913572 33.7201442,13.9143572 33.9151442,14.1093572 L36.4671442,16.6613572 C36.6621442,16.8563572 36.5851442,17.1883572 36.3241442,17.2773572 Z M46.2611442,7.48435724 L37.7871442,15.9583572 C37.5291442,16.2163572 37.1191442,16.2233572 36.8701442,15.9743572 L34.4881442,13.5923572 C34.2391442,13.3433572 34.2461442,12.9323572 34.5031442,12.6753572 L42.9771442,4.20135724 C43.2351442,3.94335724 43.6451442,3.93635724 43.8941442,4.18535724 L46.2771442,6.56835724 C46.5251442,6.81635724 46.5181442,7.22735724 46.2611442,7.48435724 Z M49.2561442,4.71635724 L47.8591442,6.11435724 C47.6021442,6.37135724 47.1841442,6.37135724 46.9271442,6.11435724 L44.4621442,3.64935724 C44.2041442,3.39135724 44.2041442,2.97435724 44.4621442,2.71635724 L45.8591442,1.31935724 C46.3111442,0.867357241 47.0441442,0.867357241 47.4961442,1.31935724 L49.2561442,3.08035724 C49.7081442,3.53235724 49.7081442,4.26435724 49.2561442,4.71635724 Z M39.6571442,3.96035724 C39.6571442,3.43535724 39.2311442,2.99135724 38.7071442,2.99135724 L27.9601442,2.99135724 C27.1571442,2.99135724 26.5071442,3.64135724 26.5071442,4.44435724 L26.5071442,22.5803572 C26.5071442,23.3833572 27.1571442,24.0343572 27.9601442,24.0343572 L46.0961442,24.0343572 C46.8991442,24.0343572 47.5501442,23.3833572 47.5501442,22.5803572 L47.5501442,11.8133572 C47.5501442,11.2883572 47.1011442,10.8633572 46.5761442,10.8633572 C46.0511442,10.8633572 45.6261442,11.2883572 45.6261442,11.8133572 L45.6261442,21.3723572 C45.6261442,21.8083572 45.2731442,22.1613572 44.8371442,22.1613572 L29.1641442,22.1613572 C28.7291442,22.1613572 28.3761442,21.8083572 28.3761442,21.3723572 L28.3761442,5.69935724 C28.3761442,5.26435724 28.7291442,4.91135724 29.1641442,4.91135724 L38.7071442,4.91135724 C39.2311442,4.91135724 39.6571442,4.48535724 39.6571442,3.96035724 Z" id="compose" fill="#00aaeb" sketch:type="MSShapeGroup"></path>
            <path d="M12.361,2 C7.743,2 4,5.743 4,10.36 C4,16.735 10.767,23.639 12.388,23.639 C14.009,23.639 20.721,16.735 20.721,10.36 C20.721,5.743 16.978,2 12.361,2 L12.361,2 Z M12.361,14.235 C10.238,14.235 8.517,12.514 8.517,10.391 C8.517,8.268 10.238,6.547 12.361,6.547 C14.484,6.547 16.205,8.268 16.205,10.391 C16.205,12.514 14.484,14.235 12.361,14.235 L12.361,14.235 Z" id="location" fill="#00aaeb" sketch:type="MSShapeGroup"></path>
        </g>
    </g>
</svg>
