<svg xmlns:xlink="http://www.w3.org/1999/xlink" width="400" xmlns="http://www.w3.org/2000/svg" height="80" id="screenshot-60eac23f-4416-8083-8001-f7bf706cf7dd" viewBox="-0 -0 400 80" style="-webkit-print-color-adjust: exact;" fill="none" version="1.1"><g id="shape-60eac23f-4416-8083-8001-f7bf706cf7dd"><defs><clipPath id="frame-clip-60eac23f-4416-8083-8001-f7bf706cf7dd-042c80df-7eb1-805d-8001-f7c06992ed7f" class="frame-clip"><rect rx="0" ry="0" x="0" y="0" width="399.99999960884475" height="79.99999900855637" transform="matrix(1,0,0,1,-0.000001,0.000001)"/></clipPath></defs><g clip-path="url(#frame-clip-60eac23f-4416-8083-8001-f7bf706cf7dd-042c80df-7eb1-805d-8001-f7c06992ed7f)"><clipPath id="frame-clip-60eac23f-4416-8083-8001-f7bf706cf7dd-042c80df-7eb1-805d-8001-f7c06992ed7f" class="frame-clip"><rect rx="0" ry="0" x="0" y="0" width="399.99999960884475" height="79.99999900855637" transform="matrix(1,0,0,1,-0.000001,0.000001)"/></clipPath><g id="fills-60eac23f-4416-8083-8001-f7bf706cf7dd"><rect rx="0" ry="0" x="0" y="0" transform="matrix(1,0,0,1,-0.000001,0.000001)" width="399.99999960884475" height="79.99999900855637" class="frame-background"/></g><g class="frame-children"><g id="shape-60eac23f-4416-8083-8001-f7bf8d955ff4" rx="0" ry="0" style="fill: rgb(0, 0, 0);"><g id="shape-60eac23f-4416-8083-8001-f7c006077e17" rx="0" ry="0" style="fill: rgb(0, 0, 0);"><g id="shape-60eac23f-4416-8083-8001-f7c006088677"><g id="fills-60eac23f-4416-8083-8001-f7c006088677"><path rx="0" ry="0" d="M378.777,33.092C378.777,24.359,373.053,21.799,373.053,21.799C367.436,19.22,352.519,19.247,346.956,21.799C346.956,21.799,341.231,24.359,341.231,33.092C341.231,43.487,340.638,56.397,350.721,59.066C354.361,60.027,357.488,60.234,360.004,60.09C364.569,59.838,367.131,58.464,367.131,58.464L366.978,55.149C366.978,55.149,363.716,56.173,360.049,56.056C356.419,55.93,352.592,55.661,351.997,51.204C351.941,50.79,351.914,50.373,351.916,49.956C359.609,51.833,366.17,50.773,367.975,50.558C373.017,49.956,377.409,46.847,377.969,44.008C378.849,39.534,378.777,33.092,378.777,33.092ZZM372.028,44.34L367.839,44.34L367.839,34.08C367.839,29.615,362.089,29.444,362.089,34.7L362.089,40.315L357.926,40.315L357.926,34.699C357.926,29.443,352.176,29.614,352.176,34.079L352.176,44.339L347.978,44.339C347.978,33.37,347.511,31.052,349.632,28.617C351.959,26.02,356.803,25.85,358.961,29.165L360.003,30.917L361.045,29.165C363.211,25.832,368.063,26.038,370.373,28.617C372.504,31.07,372.026,33.379,372.028,44.34ZZ" style="fill: rgb(255, 255, 255); fill-opacity: 1;"/></g></g></g><g id="shape-60eac23f-4416-8083-8001-f7bf8d95f595" rx="0" ry="0" style="fill: rgb(0, 0, 0);"><g id="shape-60eac23f-4416-8083-8001-f7bf8d9658b7" rx="0" ry="0" style="fill: rgb(0, 0, 0);"><g id="shape-60eac23f-4416-8083-8001-f7bf8d98a6e8"><g id="fills-60eac23f-4416-8083-8001-f7bf8d98a6e8"><path fill-rule="evenodd" stroke="none" rx="0" ry="0" d="M303.512,60.099C303.512,61.935,301.972,63.423,300.075,63.423L260.437,63.423C258.534,63.423,257,61.935,257,60.099L257,20.324C257,18.488,258.534,17,260.437,17L300.075,17C301.972,17,303.512,18.488,303.512,20.324L303.512,60.099ZZM268.186,24.428C265.921,24.428,264.442,26.035,264.442,28.141C264.442,30.208,265.883,31.855,268.097,31.855L268.143,31.855C270.448,31.855,271.884,30.208,271.884,28.141C271.838,26.035,270.448,24.428,268.186,24.428ZZM264.442,35.569L271.884,35.569L271.884,55.995L264.442,55.995L264.442,35.569ZZM289.507,33.712C285.613,33.712,283.879,35.834,282.913,37.323L282.913,37.382L282.871,37.382C282.883,37.361,282.901,37.341,282.913,37.323L282.913,34.224L275.605,34.224C275.694,36.266,275.605,55.995,275.605,55.995L282.913,55.995L282.913,43.838C282.913,43.188,282.957,42.541,283.16,42.07C283.686,40.772,284.891,39.427,286.913,39.427C289.554,39.427,290.616,41.419,290.616,44.344L290.616,55.995L297.93,55.995L297.93,43.515C297.93,36.826,294.322,33.712,289.507,33.712ZZ" style="fill: rgb(28, 135, 189);"/></g><g id="strokes-60eac23f-4416-8083-8001-f7bf8d98a6e8"><g class="stroke-shape"><path fill-rule="evenodd" stroke="none" rx="0" ry="0" d="M303.512,60.099C303.512,61.935,301.972,63.423,300.075,63.423L260.437,63.423C258.534,63.423,257,61.935,257,60.099L257,20.324C257,18.488,258.534,17,260.437,17L300.075,17C301.972,17,303.512,18.488,303.512,20.324L303.512,60.099ZZM268.186,24.428C265.921,24.428,264.442,26.035,264.442,28.141C264.442,30.208,265.883,31.855,268.097,31.855L268.143,31.855C270.448,31.855,271.884,30.208,271.884,28.141C271.838,26.035,270.448,24.428,268.186,24.428ZZM264.442,35.569L271.884,35.569L271.884,55.995L264.442,55.995L264.442,35.569ZZM289.507,33.712C285.613,33.712,283.879,35.834,282.913,37.323L282.913,37.382L282.871,37.382C282.883,37.361,282.901,37.341,282.913,37.323L282.913,34.224L275.605,34.224C275.694,36.266,275.605,55.995,275.605,55.995L282.913,55.995L282.913,43.838C282.913,43.188,282.957,42.541,283.16,42.07C283.686,40.772,284.891,39.427,286.913,39.427C289.554,39.427,290.616,41.419,290.616,44.344L290.616,55.995L297.93,55.995L297.93,43.515C297.93,36.826,294.322,33.712,289.507,33.712ZZ" style="fill: none; stroke-width: 1;"/></g></g></g></g><g id="shape-60eac23f-4416-8083-8001-f7bf8d993e9d" rx="0" ry="0" style="fill: rgb(0, 0, 0);"><g id="shape-60eac23f-4416-8083-8001-f7bf8d9a5a67"><g id="fills-60eac23f-4416-8083-8001-f7bf8d9a5a67"><path fill="none" fill-rule="evenodd" stroke="none" rx="0" ry="0" d="M303.512,60.099C303.512,61.935,301.972,63.423,300.075,63.423L260.437,63.423C258.534,63.423,257,61.935,257,60.099L257,20.324C257,18.488,258.534,17,260.437,17L300.075,17C301.972,17,303.512,18.488,303.512,20.324L303.512,60.099ZZM268.186,24.428C265.921,24.428,264.442,26.035,264.442,28.141C264.442,30.208,265.883,31.855,268.097,31.855L268.143,31.855C270.448,31.855,271.884,30.208,271.884,28.141C271.838,26.035,270.448,24.428,268.186,24.428ZZM264.442,35.569L271.884,35.569L271.884,55.995L264.442,55.995L264.442,35.569ZZM289.507,33.712C285.613,33.712,283.879,35.834,282.913,37.323L282.913,37.382L282.871,37.382C282.883,37.361,282.901,37.341,282.913,37.323L282.913,34.224L275.605,34.224C275.694,36.266,275.605,55.995,275.605,55.995L282.913,55.995L282.913,43.838C282.913,43.188,282.957,42.541,283.16,42.07C283.686,40.772,284.891,39.427,286.913,39.427C289.554,39.427,290.616,41.419,290.616,44.344L290.616,55.995L297.93,55.995L297.93,43.515C297.93,36.826,294.322,33.712,289.507,33.712ZZ" style="fill: none;"/></g><g id="strokes-60eac23f-4416-8083-8001-f7bf8d9a5a67"><g class="stroke-shape"><path fill-rule="evenodd" stroke="none" rx="0" ry="0" d="M303.512,60.099C303.512,61.935,301.972,63.423,300.075,63.423L260.437,63.423C258.534,63.423,257,61.935,257,60.099L257,20.324C257,18.488,258.534,17,260.437,17L300.075,17C301.972,17,303.512,18.488,303.512,20.324L303.512,60.099ZZM268.186,24.428C265.921,24.428,264.442,26.035,264.442,28.141C264.442,30.208,265.883,31.855,268.097,31.855L268.143,31.855C270.448,31.855,271.884,30.208,271.884,28.141C271.838,26.035,270.448,24.428,268.186,24.428ZZM264.442,35.569L271.884,35.569L271.884,55.995L264.442,55.995L264.442,35.569ZZM289.507,33.712C285.613,33.712,283.879,35.834,282.913,37.323L282.913,37.382L282.871,37.382C282.883,37.361,282.901,37.341,282.913,37.323L282.913,34.224L275.605,34.224C275.694,36.266,275.605,55.995,275.605,55.995L282.913,55.995L282.913,43.838C282.913,43.188,282.957,42.541,283.16,42.07C283.686,40.772,284.891,39.427,286.913,39.427C289.554,39.427,290.616,41.419,290.616,44.344L290.616,55.995L297.93,55.995L297.93,43.515C297.93,36.826,294.322,33.712,289.507,33.712ZZ" style="fill: none; stroke-width: 1;"/></g></g></g></g></g><g id="shape-60eac23f-4416-8083-8001-f7bf8d9aaf0f" rx="0" ry="0" style="fill: rgb(0, 0, 0);"><g id="shape-60eac23f-4416-8083-8001-f7bf8d9aec33" rx="0" ry="0" style="fill: rgb(0, 0, 0);"><g id="shape-60eac23f-4416-8083-8001-f7bf8d9d6c16"><g id="fills-60eac23f-4416-8083-8001-f7bf8d9d6c16"><path fill="none" fill-rule="evenodd" stroke="none" rx="0" ry="0" d="M170.146,38.596C172.686,37.979,179.986,37.635,182.57,37.64C181.991,35.947,181.732,34.009,181.732,31.843C181.732,27.998,182.941,26.55,184.569,24.498C183.324,20.115,185.015,17.121,185.015,17.121C185.015,17.121,187.628,16.586,192.568,20.084C195.247,18.951,202.385,18.852,205.769,19.833C207.841,18.473,211.636,16.555,213.164,17.093C213.581,17.753,214.473,19.674,213.708,23.9C214.225,24.828,216.93,26.8,216.936,32.381C216.896,34.439,216.677,36.177,216.277,37.646C222.716,37.595,226.506,38.121,229.118,38.594C229.219,38.619,229.291,38.713,229.276,38.818C229.253,38.907,229.173,38.975,229.084,38.975C229.072,38.975,229.055,38.975,229.049,38.969C226.437,38.494,222.65,37.968,216.165,38.03C216.053,38.4,215.923,38.75,215.782,39.097C217.992,39.166,224.054,39.399,228.989,40.89C229.089,40.922,229.147,41.027,229.118,41.127C229.089,41.209,229.017,41.26,228.937,41.26C228.917,41.26,228.9,41.26,228.876,41.255C223.87,39.741,217.681,39.533,215.618,39.462C214.024,42.928,210.94,44.462,206.083,45.179L206.083,45.182C205.487,45.267,204.863,45.347,204.218,45.412C206.146,46.613,206.696,48.119,206.696,52.183C206.696,56.25,206.638,56.796,206.65,57.73C206.673,59.264,208.949,60.003,208.865,60.496C208.776,60.988,206.96,60.911,206.112,60.618C203.7,59.784,203.942,57.804,203.942,57.804L203.864,52.368C203.864,52.368,204.026,49.437,202.924,49.437L202.924,58.341C202.924,60.277,204.308,60.866,204.308,61.58C204.308,62.812,201.796,61.463,201.03,60.692C199.856,59.528,199.992,57.052,200.015,55.103C200.041,53.21,199.997,49.075,199.997,49.075L199.203,49.092C199.203,49.092,199.531,58.122,198.783,59.764C197.816,61.876,194.899,62.605,194.899,61.637C194.899,60.994,195.612,61.202,196.012,59.747C196.355,58.518,196.237,49.314,196.237,49.314C196.237,49.314,195.305,49.861,195.305,51.585C195.305,52.374,195.282,56.881,195.282,58.219C195.282,59.91,192.859,60.869,191.696,60.869C191.107,60.869,190.37,60.84,190.37,60.53C190.37,59.747,192.586,59.292,192.586,57.67C192.586,56.261,192.557,52.638,192.557,52.638C192.557,52.638,191.437,52.829,189.846,52.829C185.83,52.829,184.555,50.296,183.954,48.876C183.165,47.032,182.144,46.161,181.065,45.467C180.395,45.04,180.245,44.542,181.013,44.394C184.569,43.733,185.482,48.384,187.852,49.126C189.55,49.653,191.725,49.425,192.81,48.731C192.951,47.308,193.99,46.081,194.85,45.435C194.798,45.43,194.743,45.424,194.686,45.418C188.747,44.823,185.211,42.754,183.373,39.453C177.057,39.601,173.472,40.489,170.842,41.138C170.658,41.186,170.465,41.232,170.287,41.277C170.269,41.28,170.252,41.283,170.241,41.283C170.151,41.283,170.077,41.229,170.057,41.138C170.028,41.038,170.094,40.933,170.195,40.907C170.37,40.865,170.56,40.819,170.753,40.774C173.371,40.125,176.933,39.24,183.177,39.077C183.004,38.736,182.846,38.386,182.705,38.019C180.282,37.999,172.804,38.34,170.241,38.966C170.223,38.975,170.206,38.975,170.195,38.975C170.105,38.975,170.028,38.915,170.005,38.83C169.982,38.727,170.045,38.625,170.146,38.596ZL170.146,38.596ZZ" style="fill: none;"/></g><g id="strokes-60eac23f-4416-8083-8001-f7bf8d9d6c16"><g class="stroke-shape"><path fill-rule="evenodd" stroke="none" rx="0" ry="0" d="M170.146,38.596C172.686,37.979,179.986,37.635,182.57,37.64C181.991,35.947,181.732,34.009,181.732,31.843C181.732,27.998,182.941,26.55,184.569,24.498C183.324,20.115,185.015,17.121,185.015,17.121C185.015,17.121,187.628,16.586,192.568,20.084C195.247,18.951,202.385,18.852,205.769,19.833C207.841,18.473,211.636,16.555,213.164,17.093C213.581,17.753,214.473,19.674,213.708,23.9C214.225,24.828,216.93,26.8,216.936,32.381C216.896,34.439,216.677,36.177,216.277,37.646C222.716,37.595,226.506,38.121,229.118,38.594C229.219,38.619,229.291,38.713,229.276,38.818C229.253,38.907,229.173,38.975,229.084,38.975C229.072,38.975,229.055,38.975,229.049,38.969C226.437,38.494,222.65,37.968,216.165,38.03C216.053,38.4,215.923,38.75,215.782,39.097C217.992,39.166,224.054,39.399,228.989,40.89C229.089,40.922,229.147,41.027,229.118,41.127C229.089,41.209,229.017,41.26,228.937,41.26C228.917,41.26,228.9,41.26,228.876,41.255C223.87,39.741,217.681,39.533,215.618,39.462C214.024,42.928,210.94,44.462,206.083,45.179L206.083,45.182C205.487,45.267,204.863,45.347,204.218,45.412C206.146,46.613,206.696,48.119,206.696,52.183C206.696,56.25,206.638,56.796,206.65,57.73C206.673,59.264,208.949,60.003,208.865,60.496C208.776,60.988,206.96,60.911,206.112,60.618C203.7,59.784,203.942,57.804,203.942,57.804L203.864,52.368C203.864,52.368,204.026,49.437,202.924,49.437L202.924,58.341C202.924,60.277,204.308,60.866,204.308,61.58C204.308,62.812,201.796,61.463,201.03,60.692C199.856,59.528,199.992,57.052,200.015,55.103C200.041,53.21,199.997,49.075,199.997,49.075L199.203,49.092C199.203,49.092,199.531,58.122,198.783,59.764C197.816,61.876,194.899,62.605,194.899,61.637C194.899,60.994,195.612,61.202,196.012,59.747C196.355,58.518,196.237,49.314,196.237,49.314C196.237,49.314,195.305,49.861,195.305,51.585C195.305,52.374,195.282,56.881,195.282,58.219C195.282,59.91,192.859,60.869,191.696,60.869C191.107,60.869,190.37,60.84,190.37,60.53C190.37,59.747,192.586,59.292,192.586,57.67C192.586,56.261,192.557,52.638,192.557,52.638C192.557,52.638,191.437,52.829,189.846,52.829C185.83,52.829,184.555,50.296,183.954,48.876C183.165,47.032,182.144,46.161,181.065,45.467C180.395,45.04,180.245,44.542,181.013,44.394C184.569,43.733,185.482,48.384,187.852,49.126C189.55,49.653,191.725,49.425,192.81,48.731C192.951,47.308,193.99,46.081,194.85,45.435C194.798,45.43,194.743,45.424,194.686,45.418C188.747,44.823,185.211,42.754,183.373,39.453C177.057,39.601,173.472,40.489,170.842,41.138C170.658,41.186,170.465,41.232,170.287,41.277C170.269,41.28,170.252,41.283,170.241,41.283C170.151,41.283,170.077,41.229,170.057,41.138C170.028,41.038,170.094,40.933,170.195,40.907C170.37,40.865,170.56,40.819,170.753,40.774C173.371,40.125,176.933,39.24,183.177,39.077C183.004,38.736,182.846,38.386,182.705,38.019C180.282,37.999,172.804,38.34,170.241,38.966C170.223,38.975,170.206,38.975,170.195,38.975C170.105,38.975,170.028,38.915,170.005,38.83C169.982,38.727,170.045,38.625,170.146,38.596ZL170.146,38.596ZZ" style="fill: none; stroke-width: 1;"/></g></g></g></g><g id="shape-60eac23f-4416-8083-8001-f7bf8d9db41b" rx="0" ry="0" style="fill: rgb(0, 0, 0);"><g id="shape-60eac23f-4416-8083-8001-f7bf8d9f9a05"><g id="fills-60eac23f-4416-8083-8001-f7bf8d9f9a05"><path fill-rule="evenodd" stroke="none" rx="0" ry="0" d="M170.146,38.596C172.686,37.979,179.986,37.635,182.57,37.64C181.991,35.947,181.732,34.009,181.732,31.843C181.732,27.998,182.941,26.55,184.569,24.498C183.324,20.115,185.015,17.121,185.015,17.121C185.015,17.121,187.628,16.586,192.568,20.084C195.247,18.951,202.385,18.852,205.769,19.833C207.841,18.473,211.636,16.555,213.164,17.093C213.581,17.753,214.473,19.674,213.708,23.9C214.225,24.828,216.93,26.8,216.936,32.381C216.896,34.439,216.677,36.177,216.277,37.646C222.716,37.595,226.506,38.121,229.118,38.594C229.219,38.619,229.291,38.713,229.276,38.818C229.253,38.907,229.173,38.975,229.084,38.975C229.072,38.975,229.055,38.975,229.049,38.969C226.437,38.494,222.65,37.968,216.165,38.03C216.053,38.4,215.923,38.75,215.782,39.097C217.992,39.166,224.054,39.399,228.989,40.89C229.089,40.922,229.147,41.027,229.118,41.127C229.089,41.209,229.017,41.26,228.937,41.26C228.917,41.26,228.9,41.26,228.876,41.255C223.87,39.741,217.681,39.533,215.618,39.462C214.024,42.928,210.94,44.462,206.083,45.179L206.083,45.182C205.487,45.267,204.863,45.347,204.218,45.412C206.146,46.613,206.696,48.119,206.696,52.183C206.696,56.25,206.638,56.796,206.65,57.73C206.673,59.264,208.949,60.003,208.865,60.496C208.776,60.988,206.96,60.911,206.112,60.618C203.7,59.784,203.942,57.804,203.942,57.804L203.864,52.368C203.864,52.368,204.026,49.437,202.924,49.437L202.924,58.341C202.924,60.277,204.308,60.866,204.308,61.58C204.308,62.812,201.796,61.463,201.03,60.692C199.856,59.528,199.992,57.052,200.015,55.103C200.041,53.21,199.997,49.075,199.997,49.075L199.203,49.092C199.203,49.092,199.531,58.122,198.783,59.764C197.816,61.876,194.899,62.605,194.899,61.637C194.899,60.994,195.612,61.202,196.012,59.747C196.355,58.518,196.237,49.314,196.237,49.314C196.237,49.314,195.305,49.861,195.305,51.585C195.305,52.374,195.282,56.881,195.282,58.219C195.282,59.91,192.859,60.869,191.696,60.869C191.107,60.869,190.37,60.84,190.37,60.53C190.37,59.747,192.586,59.292,192.586,57.67C192.586,56.261,192.557,52.638,192.557,52.638C192.557,52.638,191.437,52.829,189.846,52.829C185.83,52.829,184.555,50.296,183.954,48.876C183.165,47.032,182.144,46.161,181.065,45.467C180.395,45.04,180.245,44.542,181.013,44.394C184.569,43.733,185.482,48.384,187.852,49.126C189.55,49.653,191.725,49.425,192.81,48.731C192.951,47.308,193.99,46.081,194.85,45.435C194.798,45.43,194.743,45.424,194.686,45.418C188.747,44.823,185.211,42.754,183.373,39.453C177.057,39.601,173.472,40.489,170.842,41.138C170.658,41.186,170.465,41.232,170.287,41.277C170.269,41.28,170.252,41.283,170.241,41.283C170.151,41.283,170.077,41.229,170.057,41.138C170.028,41.038,170.094,40.933,170.195,40.907C170.37,40.865,170.56,40.819,170.753,40.774C173.371,40.125,176.933,39.24,183.177,39.077C183.004,38.736,182.846,38.386,182.705,38.019C180.282,37.999,172.804,38.34,170.241,38.966C170.223,38.975,170.206,38.975,170.195,38.975C170.105,38.975,170.028,38.915,170.005,38.83C169.982,38.727,170.045,38.625,170.146,38.596ZL170.146,38.596ZZ" style="fill: rgb(255, 255, 255);"/></g><g id="strokes-60eac23f-4416-8083-8001-f7bf8d9f9a05"><g class="stroke-shape"><path fill-rule="evenodd" stroke="none" rx="0" ry="0" d="M170.146,38.596C172.686,37.979,179.986,37.635,182.57,37.64C181.991,35.947,181.732,34.009,181.732,31.843C181.732,27.998,182.941,26.55,184.569,24.498C183.324,20.115,185.015,17.121,185.015,17.121C185.015,17.121,187.628,16.586,192.568,20.084C195.247,18.951,202.385,18.852,205.769,19.833C207.841,18.473,211.636,16.555,213.164,17.093C213.581,17.753,214.473,19.674,213.708,23.9C214.225,24.828,216.93,26.8,216.936,32.381C216.896,34.439,216.677,36.177,216.277,37.646C222.716,37.595,226.506,38.121,229.118,38.594C229.219,38.619,229.291,38.713,229.276,38.818C229.253,38.907,229.173,38.975,229.084,38.975C229.072,38.975,229.055,38.975,229.049,38.969C226.437,38.494,222.65,37.968,216.165,38.03C216.053,38.4,215.923,38.75,215.782,39.097C217.992,39.166,224.054,39.399,228.989,40.89C229.089,40.922,229.147,41.027,229.118,41.127C229.089,41.209,229.017,41.26,228.937,41.26C228.917,41.26,228.9,41.26,228.876,41.255C223.87,39.741,217.681,39.533,215.618,39.462C214.024,42.928,210.94,44.462,206.083,45.179L206.083,45.182C205.487,45.267,204.863,45.347,204.218,45.412C206.146,46.613,206.696,48.119,206.696,52.183C206.696,56.25,206.638,56.796,206.65,57.73C206.673,59.264,208.949,60.003,208.865,60.496C208.776,60.988,206.96,60.911,206.112,60.618C203.7,59.784,203.942,57.804,203.942,57.804L203.864,52.368C203.864,52.368,204.026,49.437,202.924,49.437L202.924,58.341C202.924,60.277,204.308,60.866,204.308,61.58C204.308,62.812,201.796,61.463,201.03,60.692C199.856,59.528,199.992,57.052,200.015,55.103C200.041,53.21,199.997,49.075,199.997,49.075L199.203,49.092C199.203,49.092,199.531,58.122,198.783,59.764C197.816,61.876,194.899,62.605,194.899,61.637C194.899,60.994,195.612,61.202,196.012,59.747C196.355,58.518,196.237,49.314,196.237,49.314C196.237,49.314,195.305,49.861,195.305,51.585C195.305,52.374,195.282,56.881,195.282,58.219C195.282,59.91,192.859,60.869,191.696,60.869C191.107,60.869,190.37,60.84,190.37,60.53C190.37,59.747,192.586,59.292,192.586,57.67C192.586,56.261,192.557,52.638,192.557,52.638C192.557,52.638,191.437,52.829,189.846,52.829C185.83,52.829,184.555,50.296,183.954,48.876C183.165,47.032,182.144,46.161,181.065,45.467C180.395,45.04,180.245,44.542,181.013,44.394C184.569,43.733,185.482,48.384,187.852,49.126C189.55,49.653,191.725,49.425,192.81,48.731C192.951,47.308,193.99,46.081,194.85,45.435C194.798,45.43,194.743,45.424,194.686,45.418C188.747,44.823,185.211,42.754,183.373,39.453C177.057,39.601,173.472,40.489,170.842,41.138C170.658,41.186,170.465,41.232,170.287,41.277C170.269,41.28,170.252,41.283,170.241,41.283C170.151,41.283,170.077,41.229,170.057,41.138C170.028,41.038,170.094,40.933,170.195,40.907C170.37,40.865,170.56,40.819,170.753,40.774C173.371,40.125,176.933,39.24,183.177,39.077C183.004,38.736,182.846,38.386,182.705,38.019C180.282,37.999,172.804,38.34,170.241,38.966C170.223,38.975,170.206,38.975,170.195,38.975C170.105,38.975,170.028,38.915,170.005,38.83C169.982,38.727,170.045,38.625,170.146,38.596ZL170.146,38.596ZZ" style="fill: none; stroke-width: 1;"/></g></g></g></g></g><g id="shape-60eac23f-4416-8083-8001-f7bf8d9fe228" rx="0" ry="0" style="fill: rgb(0, 0, 0);"><g id="shape-60eac23f-4416-8083-8001-f7bf8da03955" rx="0" ry="0" style="fill: rgb(0, 0, 0);"><g id="shape-60eac23f-4416-8083-8001-f7bf8da14a2d"><g id="fills-60eac23f-4416-8083-8001-f7bf8da14a2d"><path fill="none" fill-rule="evenodd" stroke="none" rx="0" ry="0" d="M98.636,32.161C99.793,29.344,101.165,27.235,103.054,25.251C105.706,22.479,109.308,20.066,113.839,18.864C115.468,18.431,117.162,18.153,118.872,18.05C126.46,17.58,132.064,20.51,136.012,23.915C139.953,27.305,143.052,32.233,143.466,39.014C143.911,46.15,141.05,51.585,137.407,55.389C135.558,57.331,133.358,58.892,130.744,60.153C128.144,61.406,125.18,62.372,121.66,62.536C114.242,62.881,108.433,60.146,104.572,56.729C100.591,53.209,97.584,48.493,97.059,41.687C96.779,38.069,97.523,34.869,98.636,32.161ZZM119.658,41.163C120.554,40.803,121.519,40.573,122.446,40.178C122.015,39.402,121.604,38.514,121.23,37.794C121.098,37.533,121.001,37.21,120.75,37.039C114.783,38.696,108.169,39.734,100.45,39.713C100.294,45.685,102.555,49.851,105.541,53.01C108.983,47.904,113.562,43.617,119.658,41.163ZZM123.717,43.425C116.844,45.802,111.447,49.591,108.087,55.333C110.346,57.034,113.411,58.502,116.992,59.108C120.938,59.774,125.074,59.07,128.022,57.832C127.135,52.958,125.702,48.326,124.081,44.242C123.978,43.978,123.992,43.615,123.717,43.425ZZM111.783,23.101C106.259,25.742,102.384,29.971,100.817,36.403C107.685,36.326,113.781,35.51,119.173,34.021C116.839,30.255,114.494,26.504,111.783,23.101ZZM127.537,42.499C129.067,46.761,130.476,51.138,131.354,56.03C132.448,55.444,133.424,54.627,134.323,53.763C137.064,51.134,139.09,47.726,139.894,43.313C136.478,42.356,131.695,41.869,127.537,42.499ZZM123.114,32.916C127.262,31.301,130.956,29.247,133.41,26.004C130.151,23.376,125.453,21.002,119.474,21.302C118.027,21.374,116.957,21.478,115.661,21.766C117.889,24.903,120.267,28.158,122.204,31.466C122.486,31.946,122.679,32.512,123.114,32.916ZZM124.566,35.819C125.032,36.689,125.502,37.663,125.9,38.55C126.043,38.872,126.1,39.251,126.385,39.479C130.991,38.985,136.109,39.355,140.137,40.119C139.981,34.905,138.175,31.272,135.652,28.329C132.772,31.606,128.959,33.99,124.566,35.819ZZ" style="fill: none;"/></g><g id="strokes-60eac23f-4416-8083-8001-f7bf8da14a2d"><g class="stroke-shape"><path fill-rule="evenodd" stroke="none" rx="0" ry="0" d="M98.636,32.161C99.793,29.344,101.165,27.235,103.054,25.251C105.706,22.479,109.308,20.066,113.839,18.864C115.468,18.431,117.162,18.153,118.872,18.05C126.46,17.58,132.064,20.51,136.012,23.915C139.953,27.305,143.052,32.233,143.466,39.014C143.911,46.15,141.05,51.585,137.407,55.389C135.558,57.331,133.358,58.892,130.744,60.153C128.144,61.406,125.18,62.372,121.66,62.536C114.242,62.881,108.433,60.146,104.572,56.729C100.591,53.209,97.584,48.493,97.059,41.687C96.779,38.069,97.523,34.869,98.636,32.161ZZM119.658,41.163C120.554,40.803,121.519,40.573,122.446,40.178C122.015,39.402,121.604,38.514,121.23,37.794C121.098,37.533,121.001,37.21,120.75,37.039C114.783,38.696,108.169,39.734,100.45,39.713C100.294,45.685,102.555,49.851,105.541,53.01C108.983,47.904,113.562,43.617,119.658,41.163ZZM123.717,43.425C116.844,45.802,111.447,49.591,108.087,55.333C110.346,57.034,113.411,58.502,116.992,59.108C120.938,59.774,125.074,59.07,128.022,57.832C127.135,52.958,125.702,48.326,124.081,44.242C123.978,43.978,123.992,43.615,123.717,43.425ZZM111.783,23.101C106.259,25.742,102.384,29.971,100.817,36.403C107.685,36.326,113.781,35.51,119.173,34.021C116.839,30.255,114.494,26.504,111.783,23.101ZZM127.537,42.499C129.067,46.761,130.476,51.138,131.354,56.03C132.448,55.444,133.424,54.627,134.323,53.763C137.064,51.134,139.09,47.726,139.894,43.313C136.478,42.356,131.695,41.869,127.537,42.499ZZM123.114,32.916C127.262,31.301,130.956,29.247,133.41,26.004C130.151,23.376,125.453,21.002,119.474,21.302C118.027,21.374,116.957,21.478,115.661,21.766C117.889,24.903,120.267,28.158,122.204,31.466C122.486,31.946,122.679,32.512,123.114,32.916ZZM124.566,35.819C125.032,36.689,125.502,37.663,125.9,38.55C126.043,38.872,126.1,39.251,126.385,39.479C130.991,38.985,136.109,39.355,140.137,40.119C139.981,34.905,138.175,31.272,135.652,28.329C132.772,31.606,128.959,33.99,124.566,35.819ZZ" style="fill: none; stroke-width: 1;"/></g></g></g></g><g id="shape-60eac23f-4416-8083-8001-f7bf8da19dd0" rx="0" ry="0" style="fill: rgb(0, 0, 0);"><g id="shape-60eac23f-4416-8083-8001-f7bf8da2e99a"><g id="fills-60eac23f-4416-8083-8001-f7bf8da2e99a"><path fill-rule="evenodd" stroke="none" rx="0" ry="0" d="M98.636,32.161C99.793,29.344,101.165,27.235,103.054,25.251C105.706,22.479,109.308,20.066,113.839,18.864C115.468,18.431,117.162,18.153,118.872,18.05C126.46,17.58,132.064,20.51,136.012,23.915C139.953,27.305,143.052,32.233,143.466,39.014C143.911,46.15,141.05,51.585,137.407,55.389C135.558,57.331,133.358,58.892,130.744,60.153C128.144,61.406,125.18,62.372,121.66,62.536C114.242,62.881,108.433,60.146,104.572,56.729C100.591,53.209,97.584,48.493,97.059,41.687C96.779,38.069,97.523,34.869,98.636,32.161ZZM119.658,41.163C120.554,40.803,121.519,40.573,122.446,40.178C122.015,39.402,121.604,38.514,121.23,37.794C121.098,37.533,121.001,37.21,120.75,37.039C114.783,38.696,108.169,39.734,100.45,39.713C100.294,45.685,102.555,49.851,105.541,53.01C108.983,47.904,113.562,43.617,119.658,41.163ZZM123.717,43.425C116.844,45.802,111.447,49.591,108.087,55.333C110.346,57.034,113.411,58.502,116.992,59.108C120.938,59.774,125.074,59.07,128.022,57.832C127.135,52.958,125.702,48.326,124.081,44.242C123.978,43.978,123.992,43.615,123.717,43.425ZZM111.783,23.101C106.259,25.742,102.384,29.971,100.817,36.403C107.685,36.326,113.781,35.51,119.173,34.021C116.839,30.255,114.494,26.504,111.783,23.101ZZM127.537,42.499C129.067,46.761,130.476,51.138,131.354,56.03C132.448,55.444,133.424,54.627,134.323,53.763C137.064,51.134,139.09,47.726,139.894,43.313C136.478,42.356,131.695,41.869,127.537,42.499ZZM123.114,32.916C127.262,31.301,130.956,29.247,133.41,26.004C130.151,23.376,125.453,21.002,119.474,21.302C118.027,21.374,116.957,21.478,115.661,21.766C117.889,24.903,120.267,28.158,122.204,31.466C122.486,31.946,122.679,32.512,123.114,32.916ZZM124.566,35.819C125.032,36.689,125.502,37.663,125.9,38.55C126.043,38.872,126.1,39.251,126.385,39.479C130.991,38.985,136.109,39.355,140.137,40.119C139.981,34.905,138.175,31.272,135.652,28.329C132.772,31.606,128.959,33.99,124.566,35.819ZZ" style="fill: rgb(255, 255, 255);"/></g><g id="strokes-60eac23f-4416-8083-8001-f7bf8da2e99a"><g class="stroke-shape"><path fill-rule="evenodd" stroke="none" rx="0" ry="0" d="M98.636,32.161C99.793,29.344,101.165,27.235,103.054,25.251C105.706,22.479,109.308,20.066,113.839,18.864C115.468,18.431,117.162,18.153,118.872,18.05C126.46,17.58,132.064,20.51,136.012,23.915C139.953,27.305,143.052,32.233,143.466,39.014C143.911,46.15,141.05,51.585,137.407,55.389C135.558,57.331,133.358,58.892,130.744,60.153C128.144,61.406,125.18,62.372,121.66,62.536C114.242,62.881,108.433,60.146,104.572,56.729C100.591,53.209,97.584,48.493,97.059,41.687C96.779,38.069,97.523,34.869,98.636,32.161ZZM119.658,41.163C120.554,40.803,121.519,40.573,122.446,40.178C122.015,39.402,121.604,38.514,121.23,37.794C121.098,37.533,121.001,37.21,120.75,37.039C114.783,38.696,108.169,39.734,100.45,39.713C100.294,45.685,102.555,49.851,105.541,53.01C108.983,47.904,113.562,43.617,119.658,41.163ZZM123.717,43.425C116.844,45.802,111.447,49.591,108.087,55.333C110.346,57.034,113.411,58.502,116.992,59.108C120.938,59.774,125.074,59.07,128.022,57.832C127.135,52.958,125.702,48.326,124.081,44.242C123.978,43.978,123.992,43.615,123.717,43.425ZZM111.783,23.101C106.259,25.742,102.384,29.971,100.817,36.403C107.685,36.326,113.781,35.51,119.173,34.021C116.839,30.255,114.494,26.504,111.783,23.101ZZM127.537,42.499C129.067,46.761,130.476,51.138,131.354,56.03C132.448,55.444,133.424,54.627,134.323,53.763C137.064,51.134,139.09,47.726,139.894,43.313C136.478,42.356,131.695,41.869,127.537,42.499ZZM123.114,32.916C127.262,31.301,130.956,29.247,133.41,26.004C130.151,23.376,125.453,21.002,119.474,21.302C118.027,21.374,116.957,21.478,115.661,21.766C117.889,24.903,120.267,28.158,122.204,31.466C122.486,31.946,122.679,32.512,123.114,32.916ZZM124.566,35.819C125.032,36.689,125.502,37.663,125.9,38.55C126.043,38.872,126.1,39.251,126.385,39.479C130.991,38.985,136.109,39.355,140.137,40.119C139.981,34.905,138.175,31.272,135.652,28.329C132.772,31.606,128.959,33.99,124.566,35.819ZZ" style="fill: none; stroke-width: 1;"/></g></g></g></g></g><g id="shape-60eac23f-4416-8083-8001-f7bf8da32667" rx="0" ry="0" style="fill: rgb(0, 0, 0);"><g id="shape-60eac23f-4416-8083-8001-f7bf8da34acc" rx="0" ry="0" style="fill: rgb(0, 0, 0);"><g id="shape-60eac23f-4416-8083-8001-f7bf8da3c2f5"><g id="fills-60eac23f-4416-8083-8001-f7bf8da3c2f5"><path fill="none" fill-rule="evenodd" stroke="none" rx="0" ry="0" d="M57.133,31.585C57.15,31.959,57.155,32.328,57.155,32.709C57.155,44.204,48.391,57.462,32.36,57.462C27.434,57.462,22.859,56.028,19,53.554C19.68,53.633,20.372,53.673,21.078,53.673C25.159,53.673,28.919,52.287,31.903,49.948C28.089,49.883,24.869,47.365,23.759,43.911C24.293,44.015,24.84,44.068,25.402,44.068C26.192,44.068,26.963,43.958,27.7,43.761C23.711,42.961,20.702,39.445,20.702,35.233L20.702,35.123C21.879,35.768,23.226,36.166,24.657,36.208C22.311,34.644,20.776,31.985,20.776,28.967C20.776,27.373,21.202,25.879,21.955,24.589C26.255,29.857,32.676,33.317,39.922,33.686C39.773,33.047,39.697,32.379,39.697,31.7C39.697,26.894,43.598,23,48.413,23C50.917,23,53.184,24.059,54.77,25.75C56.763,25.358,58.623,24.634,60.308,23.637C59.656,25.665,58.279,27.373,56.475,28.449C58.239,28.243,59.922,27.77,61.48,27.08C60.308,28.824,58.838,30.353,57.133,31.585ZL57.133,31.585ZZ" style="fill: none;"/></g><g id="strokes-60eac23f-4416-8083-8001-f7bf8da3c2f5"><g class="stroke-shape"><path fill-rule="evenodd" stroke="none" rx="0" ry="0" d="M57.133,31.585C57.15,31.959,57.155,32.328,57.155,32.709C57.155,44.204,48.391,57.462,32.36,57.462C27.434,57.462,22.859,56.028,19,53.554C19.68,53.633,20.372,53.673,21.078,53.673C25.159,53.673,28.919,52.287,31.903,49.948C28.089,49.883,24.869,47.365,23.759,43.911C24.293,44.015,24.84,44.068,25.402,44.068C26.192,44.068,26.963,43.958,27.7,43.761C23.711,42.961,20.702,39.445,20.702,35.233L20.702,35.123C21.879,35.768,23.226,36.166,24.657,36.208C22.311,34.644,20.776,31.985,20.776,28.967C20.776,27.373,21.202,25.879,21.955,24.589C26.255,29.857,32.676,33.317,39.922,33.686C39.773,33.047,39.697,32.379,39.697,31.7C39.697,26.894,43.598,23,48.413,23C50.917,23,53.184,24.059,54.77,25.75C56.763,25.358,58.623,24.634,60.308,23.637C59.656,25.665,58.279,27.373,56.475,28.449C58.239,28.243,59.922,27.77,61.48,27.08C60.308,28.824,58.838,30.353,57.133,31.585ZL57.133,31.585ZZ" style="fill: none; stroke-width: 1;"/></g></g></g></g><g id="shape-60eac23f-4416-8083-8001-f7bf8da41226" rx="0" ry="0" style="fill: rgb(0, 0, 0);"><g id="shape-60eac23f-4416-8083-8001-f7bf8da4dda2"><g id="fills-60eac23f-4416-8083-8001-f7bf8da4dda2"><path fill-rule="evenodd" stroke="none" rx="0" ry="0" d="M57.133,31.585C57.15,31.959,57.155,32.328,57.155,32.709C57.155,44.204,48.391,57.462,32.36,57.462C27.434,57.462,22.859,56.028,19,53.554C19.68,53.633,20.372,53.673,21.078,53.673C25.159,53.673,28.919,52.287,31.903,49.948C28.089,49.883,24.869,47.365,23.759,43.911C24.293,44.015,24.84,44.068,25.402,44.068C26.192,44.068,26.963,43.958,27.7,43.761C23.711,42.961,20.702,39.445,20.702,35.233L20.702,35.123C21.879,35.768,23.226,36.166,24.657,36.208C22.311,34.644,20.776,31.985,20.776,28.967C20.776,27.373,21.202,25.879,21.955,24.589C26.255,29.857,32.676,33.317,39.922,33.686C39.773,33.047,39.697,32.379,39.697,31.7C39.697,26.894,43.598,23,48.413,23C50.917,23,53.184,24.059,54.77,25.75C56.763,25.358,58.623,24.634,60.308,23.637C59.656,25.665,58.279,27.373,56.475,28.449C58.239,28.243,59.922,27.77,61.48,27.08C60.308,28.824,58.838,30.353,57.133,31.585ZL57.133,31.585ZZ" style="fill: rgb(255, 255, 255);"/></g><g id="strokes-60eac23f-4416-8083-8001-f7bf8da4dda2"><g class="stroke-shape"><path fill-rule="evenodd" stroke="none" rx="0" ry="0" d="M57.133,31.585C57.15,31.959,57.155,32.328,57.155,32.709C57.155,44.204,48.391,57.462,32.36,57.462C27.434,57.462,22.859,56.028,19,53.554C19.68,53.633,20.372,53.673,21.078,53.673C25.159,53.673,28.919,52.287,31.903,49.948C28.089,49.883,24.869,47.365,23.759,43.911C24.293,44.015,24.84,44.068,25.402,44.068C26.192,44.068,26.963,43.958,27.7,43.761C23.711,42.961,20.702,39.445,20.702,35.233L20.702,35.123C21.879,35.768,23.226,36.166,24.657,36.208C22.311,34.644,20.776,31.985,20.776,28.967C20.776,27.373,21.202,25.879,21.955,24.589C26.255,29.857,32.676,33.317,39.922,33.686C39.773,33.047,39.697,32.379,39.697,31.7C39.697,26.894,43.598,23,48.413,23C50.917,23,53.184,24.059,54.77,25.75C56.763,25.358,58.623,24.634,60.308,23.637C59.656,25.665,58.279,27.373,56.475,28.449C58.239,28.243,59.922,27.77,61.48,27.08C60.308,28.824,58.838,30.353,57.133,31.585ZL57.133,31.585ZZ" style="fill: none; stroke-width: 1;"/></g></g></g></g></g></g></g></g></g></svg>