<?xml version="1.0" encoding="UTF-8" standalone="no"?>
<svg width="36px" height="18px" viewBox="0 0 36 18" version="1.1" xmlns="http://www.w3.org/2000/svg" xmlns:xlink="http://www.w3.org/1999/xlink" xmlns:sketch="http://www.bohemiancoding.com/sketch/ns">
    <!-- Generator: Sketch 3.4.4 (17249) - http://www.bohemiancoding.com/sketch -->
    <title>ico-networks</title>
    <desc>Created with Sketch.</desc>
    <defs></defs>
    <g id="Page-1" stroke="none" stroke-width="1" fill="none" fill-rule="evenodd" sketch:type="MSPage">
        <g id="ico-networks" sketch:type="MSArtboardGroup">
            <path d="M15.464303,4.92855942 C14.9464452,5.15177397 14.3839445,5.31248845 13.8035867,5.37498853 C14.4018017,5.01784524 14.8571594,4.45534457 15.0714453,3.78570092 C14.5178733,4.11605845 13.8928725,4.35713017 13.241086,4.48213032 C12.7142997,3.91962965 11.9642988,3.57141495 11.1339407,3.57141495 C9.53572446,3.57141495 8.25000864,4.86605935 8.25000864,6.45534696 C8.25000864,6.67856151 8.27679439,6.90177606 8.3214373,7.11606203 C5.9285773,6.99106188 3.79464619,5.84820338 2.37500164,4.09820129 C2.12500134,4.52677323 1.98214403,5.01784524 1.98214403,5.55356017 C1.98214403,6.55356136 2.49107321,7.43749098 3.26785985,7.95534874 C2.794645,7.93749158 2.34821589,7.80356285 1.96428686,7.58927688 L1.96428686,7.62499121 C1.96428686,9.02677859 2.95535947,10.1874943 4.27678962,10.4553517 C4.0357179,10.5178518 3.77678902,10.5535661 3.51786014,10.5535661 C3.33035992,10.5535661 3.15178828,10.535709 2.97321664,10.5089232 C3.3392885,11.6517817 4.40178977,12.4821399 5.66964842,12.5089256 C4.67857581,13.2857122 3.43750291,13.7410699 2.08928701,13.7410699 C1.8482153,13.7410699 1.62500075,13.7321413 1.39285761,13.7053556 C2.66964485,14.5267852 4.1875038,15 5.82143432,15 C11.1250121,15 14.0268012,10.6071376 14.0268012,6.79463308 C14.0268012,6.66963293 14.0268012,6.54463278 14.0178727,6.41963263 C14.5803733,6.00891785 15.0714453,5.49998868 15.464303,4.92855942 L15.464303,4.92855942 Z" id="" fill="#4CABF0" sketch:type="MSShapeGroup"></path>
            <path d="M29.142868,14.678571 C28.4375101,14.9732143 27.669652,15.1428573 26.857151,15.1428573 C25.4375065,15.1428573 24.1428621,14.6339281 23.1250037,13.80357 C23.1250037,13.80357 23.205361,13.8571415 23.2589325,13.9017844 C24.3839338,11.4553529 27.8571522,10.2410658 27.8571522,10.2410658 C27.8660808,10.2410658 27.883938,10.2321372 27.8928666,10.2321372 C28.7142961,12.3749969 29.0535822,14.1607133 29.142868,14.678571 L29.142868,14.678571 Z M27.4910804,9.25892173 C27.4196517,9.28570747 27.3392945,9.30356464 27.2589372,9.33035038 C27.2589372,9.33035038 24.0982192,10.3482087 22.500003,13.1964264 C21.5714304,12.1607109 21.0000012,10.7857093 21.0000012,9.28570747 C21.0000012,9.2232074 21.0000012,9.16070732 21.0089298,9.09820725 C21.1071442,9.09820725 24.0000048,9.16963591 27.0178655,8.26784912 C27.1875086,8.59820665 27.348223,8.92856419 27.4910804,9.25892173 L27.4910804,9.25892173 Z M26.5357221,7.36606233 C23.7232187,8.10713464 21.2767872,8.08034889 21.1250013,8.08034889 C21.5089304,6.26784673 22.7232175,4.75891636 24.3571481,3.9910583 C24.4375053,4.09820129 25.5178637,5.56248875 26.5357221,7.36606233 L26.5357221,7.36606233 Z M32.6428722,10.21428 C32.3750148,11.8482105 31.4464422,13.2589265 30.1339407,14.1428561 C30.0714406,13.7946414 29.7589402,12.0714251 28.9910821,9.95535113 C30.8839415,9.66070792 32.5178721,10.1785657 32.6428722,10.21428 L32.6428722,10.21428 Z M25.4553636,3.59820069 C25.4464351,3.59820069 25.4375065,3.60712928 25.4375065,3.60712928 C25.4464351,3.59820069 25.4464351,3.59820069 25.4553636,3.59820069 L25.4553636,3.59820069 Z M30.7232271,4.89284509 C30.7053699,4.91963084 29.8750118,6.18748949 27.669652,7.00891905 C26.6696508,5.16963114 25.5625066,3.71427226 25.4732208,3.59820069 C25.9196499,3.49105771 26.3839362,3.42855763 26.857151,3.42855763 C28.3392957,3.42855763 29.6964401,3.98212972 30.7232271,4.89284509 L30.7232271,4.89284509 Z M32.7143009,9.2232074 C32.6428722,9.21427882 30.6517984,8.7767783 28.6339389,9.03570718 C28.589296,8.93749277 28.5535816,8.83034979 28.5089387,8.73213539 C28.3839386,8.44642076 28.2500098,8.16070613 28.1160811,7.88392009 C30.4285839,6.93749039 31.366085,5.58034591 31.3839421,5.56248875 C32.2053717,6.56248994 32.6964437,7.83927718 32.7143009,9.2232074 L32.7143009,9.2232074 Z M33.7143021,9.28570747 C33.7143021,5.49998868 30.6428698,2.42855644 26.857151,2.42855644 C23.0714322,2.42855644 20,5.49998868 20,9.28570747 C20,13.0714263 23.0714322,16.1428585 26.857151,16.1428585 C30.6428698,16.1428585 33.7143021,13.0714263 33.7143021,9.28570747 L33.7143021,9.28570747 Z" id="" fill="#ED4B89" sketch:type="MSShapeGroup"></path>
        </g>
    </g>
</svg>