<svg width="32" height="32" viewBox="0 0 32 32" fill="none" xmlns="http://www.w3.org/2000/svg">
<g clip-path="url(#clip0_701_3)">
<path d="M31.6969 5.9625C31.8187 5.86563 32 5.95625 32 6.10938V12.5C32 13.3281 31.3281 14 30.5 14H17.5C16.6719 14 16 13.3281 16 12.5V6.1125C16 5.95625 16.1781 5.86875 16.3031 5.96562C17.0031 6.50937 17.9312 7.2 21.1187 9.51562C21.7781 9.99687 22.8906 11.0094 24 11.0031C25.1156 11.0125 26.25 9.97813 26.8844 9.51562C30.0719 7.2 30.9969 6.50625 31.6969 5.9625ZM24 10C24.725 10.0125 25.7688 9.0875 26.2938 8.70625C30.4406 5.69688 30.7562 5.43437 31.7125 4.68437C31.8937 4.54375 32 4.325 32 4.09375V3.5C32 2.67188 31.3281 2 30.5 2H17.5C16.6719 2 16 2.67188 16 3.5V4.09375C16 4.325 16.1063 4.54062 16.2875 4.68437C17.2438 5.43125 17.5594 5.69688 21.7062 8.70625C22.2312 9.0875 23.275 10.0125 24 10Z" fill="white"/>
<path d="M31.6969 21.9625C31.8187 21.8656 32 21.9562 32 22.1094V28.5C32 29.3281 31.3281 30 30.5 30H17.5C16.6719 30 16 29.3281 16 28.5V22.1125C16 21.9562 16.1781 21.8688 16.3031 21.9656C17.0031 22.5094 17.9312 23.2 21.1187 25.5156C21.7781 25.9969 22.8906 27.0094 24 27.0031C25.1156 27.0125 26.25 25.9781 26.8844 25.5156C30.0719 23.2 30.9969 22.5062 31.6969 21.9625ZM24 26C24.725 26.0125 25.7688 25.0875 26.2938 24.7062C30.4406 21.6969 30.7562 21.4344 31.7125 20.6844C31.8937 20.5438 32 20.325 32 20.0938V19.5C32 18.6719 31.3281 18 30.5 18H17.5C16.6719 18 16 18.6719 16 19.5V20.0938C16 20.325 16.1063 20.5406 16.2875 20.6844C17.2438 21.4313 17.5594 21.6969 21.7062 24.7062C22.2312 25.0875 23.275 26.0125 24 26Z" fill="#00AAEB"/>
<path d="M14.5307 5.59727C14.5307 2.55977 12.5398 1.66915 12.5398 1.66915C10.586 0.77227 5.39728 0.781645 3.46228 1.66915C3.46228 1.66915 1.47103 2.55977 1.47103 5.59727C1.47103 9.2129 1.26478 13.7035 4.77197 14.6316C6.03791 14.966 7.12572 15.0379 8.00103 14.9879C9.58885 14.9004 10.4798 14.4223 10.4798 14.4223L10.4267 13.2691C10.4267 13.2691 9.29197 13.6254 8.01666 13.5848C6.75385 13.541 5.42291 13.4473 5.21572 11.8973C5.19651 11.7533 5.18712 11.6082 5.1876 11.4629C7.86353 12.116 10.1454 11.7473 10.7735 11.6723C12.5273 11.4629 14.0548 10.3816 14.2495 9.39415C14.5557 7.8379 14.5307 5.59727 14.5307 5.59727ZM12.1832 9.50977H10.726V5.94102C10.726 4.3879 8.72603 4.32852 8.72603 6.15665V8.10977H7.27822V6.15633C7.27822 4.32821 5.27822 4.38758 5.27822 5.94071V9.50946H3.81791C3.81791 5.69383 3.65541 4.88758 4.39322 4.04071C5.2026 3.13758 6.8876 3.07821 7.63791 4.23133L8.00041 4.84071L8.36291 4.23133C9.11635 3.07196 10.8042 3.14383 11.6076 4.04071C12.3485 4.89383 12.1826 5.69696 12.1826 9.50946L12.1832 9.50977Z" fill="white"/>
<path d="M14.5307 21.5973C14.5307 18.5598 12.5398 17.6691 12.5398 17.6691C10.586 16.7723 5.39728 16.7816 3.46228 17.6691C3.46228 17.6691 1.47103 18.5598 1.47103 21.5973C1.47103 25.2129 1.26478 29.7035 4.77197 30.6316C6.03791 30.966 7.12572 31.0379 8.00103 30.9879C9.58885 30.9004 10.4798 30.4223 10.4798 30.4223L10.4267 29.2691C10.4267 29.2691 9.29197 29.6254 8.01666 29.5848C6.75385 29.541 5.42291 29.4473 5.21572 27.8973C5.19651 27.7533 5.18712 27.6082 5.1876 27.4629C7.86353 28.116 10.1454 27.7473 10.7735 27.6723C12.5273 27.4629 14.0548 26.3816 14.2495 25.3941C14.5557 23.8379 14.5307 21.5973 14.5307 21.5973ZM12.1832 25.5098H10.726V21.941C10.726 20.3879 8.72603 20.3285 8.72603 22.1566V24.1098H7.27822V22.1563C7.27822 20.3282 5.27822 20.3876 5.27822 21.9407V25.5095H3.81791C3.81791 21.6938 3.65541 20.8876 4.39322 20.0407C5.2026 19.1376 6.8876 19.0782 7.63791 20.2313L8.00041 20.8407L8.36291 20.2313C9.11635 19.072 10.8042 19.1438 11.6076 20.0407C12.3485 20.8938 12.1826 21.697 12.1826 25.5095L12.1832 25.5098Z" fill="#00AAEB"/>
</g>
<defs>
<clipPath id="clip0_701_3">
<rect width="32" height="32" fill="white"/>
</clipPath>
</defs>
</svg>
